<?xml version="1.0" standalone="no"?>
<!DOCTYPE svg PUBLIC "-//W3C//DTD SVG 20010904//EN"
 "http://www.w3.org/TR/2001/REC-SVG-20010904/DTD/svg10.dtd">
<svg version="1.0" xmlns="http://www.w3.org/2000/svg"
 width="652.000000pt" height="652.000000pt" viewBox="0 0 652.000000 652.000000"
 preserveAspectRatio="xMidYMid meet">
<metadata>
Created by potrace 1.14, written by Peter Selinger 2001-2017
</metadata>
<g transform="translate(0.000000,652.000000) scale(0.100000,-0.100000)"
fill="#000000" stroke="none">
<path d="M1975 4634 c-70 -75 30 -173 108 -106 9 8 17 21 17 29 0 8 12 13 33
14 302 5 961 -1 969 -9 15 -15 15 -15 -254 -338 -128 -154 -294 -355 -368
-446 -127 -156 -137 -165 -165 -161 -43 7 -85 -28 -85 -70 0 -18 6 -39 13 -48
56 -73 157 -13 126 76 -4 14 0 29 15 46 476 580 739 894 748 893 4 -1 14 -2
22 -2 12 -2 17 -21 42 -146 2 -11 13 -65 25 -120 12 -56 32 -153 44 -216 13
-63 44 -210 68 -326 42 -202 43 -211 26 -222 -42 -26 -36 -103 9 -126 45 -23
88 -8 107 38 17 40 -1 78 -45 96 -16 7 -30 15 -31 19 -1 10 -7 41 -29 146 -12
55 -24 111 -26 125 -3 14 -7 32 -9 40 -2 8 -7 29 -9 45 -3 17 -15 75 -26 130
-12 55 -24 111 -26 125 -3 14 -21 99 -40 188 -19 90 -34 172 -34 182 0 46 37
25 298 -172 147 -111 269 -204 272 -207 3 -4 120 -93 260 -198 632 -477 605
-456 602 -488 -3 -31 26 -74 51 -76 69 -7 115 54 81 108 -13 21 -3 42 152 320
92 164 214 384 272 488 125 225 137 244 160 243 9 0 24 2 33 6 12 5 74 -51
245 -224 126 -127 230 -233 232 -235 2 -2 -1 -12 -6 -22 -7 -13 -6 -28 4 -52
l14 -34 -197 -346 c-108 -190 -224 -394 -257 -453 -48 -85 -66 -108 -83 -108
-35 0 -53 -11 -68 -39 -15 -30 -15 -47 0 -72 24 -39 87 -46 112 -13 14 19 32
17 168 -20 50 -13 185 -50 300 -82 116 -31 263 -71 327 -88 64 -17 120 -34
123 -38 18 -18 9 -44 -24 -66 -99 -67 -305 -210 -503 -348 -135 -94 -225 -151
-232 -146 -10 8 -22 8 -67 4 -20 -2 -42 -51 -37 -83 3 -27 43 -59 73 -59 40 1
78 50 68 89 -4 16 1 27 18 39 13 9 181 126 373 260 302 209 354 242 376 236
62 -18 97 2 107 60 4 26 0 38 -18 55 -12 11 -31 21 -40 21 -12 0 -24 20 -42
73 -14 39 -57 164 -97 277 -39 113 -80 230 -90 260 -15 46 -72 210 -180 518
-20 59 -21 64 -5 81 18 21 21 43 11 81 -5 21 20 57 170 245 146 181 181 220
203 221 46 2 50 4 71 26 27 30 26 73 -5 103 -57 58 -143 -4 -114 -82 7 -19
-13 -49 -137 -205 -225 -284 -207 -265 -255 -270 l-41 -4 -231 234 c-207 208
-231 236 -229 262 4 38 -13 69 -45 81 -33 12 -80 -5 -88 -32 -6 -18 -34 -19
-1012 -19 l-1005 0 -35 30 c-18 17 -44 30 -58 30 -13 0 -36 -13 -52 -30 l-28
-30 -497 0 c-474 0 -497 1 -503 18 -6 21 -45 42 -76 42 -11 0 -31 -12 -44 -26z
m3281 -63 c7 -1 19 -13 29 -27 16 -25 15 -27 -78 -192 -51 -92 -181 -323 -288
-515 -131 -235 -199 -347 -209 -345 -8 1 -25 -2 -38 -6 -25 -8 -14 -16 -607
434 -154 117 -400 303 -547 414 -163 123 -268 208 -268 218 0 14 11 18 58 20
45 2 1905 1 1948 -1z m679 -643 c1 -2 14 -37 28 -78 14 -41 60 -174 102 -295
42 -121 119 -341 170 -490 51 -148 98 -282 103 -296 9 -23 7 -28 -13 -39 -20
-11 -77 2 -457 105 -238 65 -440 120 -448 122 -9 2 -21 21 -27 41 l-12 37 257
451 c211 371 260 451 276 448 10 -2 20 -5 21 -6z"/>
<path d="M72 4639 c-20 -8 -22 -14 -18 -45 4 -19 11 -44 16 -54 7 -13 6 -20
-3 -23 -7 -3 -5 -6 6 -6 20 -1 22 -12 5 -30 -9 -10 -9 -12 -1 -7 6 3 14 2 17
-3 4 -5 -2 -12 -11 -14 -14 -4 -13 -5 5 -6 20 -1 26 -14 21 -47 0 -4 5 -11 13
-15 11 -7 10 -9 -1 -9 -11 0 -10 -4 5 -16 10 -8 12 -12 4 -8 -10 5 -9 1 3 -14
11 -11 16 -26 12 -31 -3 -6 -2 -11 4 -11 5 0 13 -15 16 -32 4 -18 14 -46 22
-62 11 -22 12 -26 1 -20 -10 6 -10 4 1 -9 7 -9 10 -17 7 -17 -4 0 0 -8 9 -17
16 -16 16 -17 1 -29 -11 -8 -13 -14 -7 -19 6 -3 11 -1 11 4 0 6 5 11 12 11 6
0 8 -3 5 -6 -3 -4 -2 -15 4 -26 8 -14 7 -24 -3 -36 -11 -13 -11 -15 4 -10 10
4 18 1 21 -10 3 -9 8 -26 13 -37 7 -17 6 -18 -8 -7 -13 10 -18 10 -24 1 -4 -7
-3 -10 2 -6 5 3 18 -1 29 -9 13 -10 15 -14 4 -14 -11 -1 -11 -3 2 -10 9 -5 22
-31 29 -57 7 -27 18 -54 24 -62 8 -10 8 -15 -1 -18 -8 -3 -5 -11 8 -24 10 -10
19 -28 19 -39 0 -12 7 -31 15 -44 16 -24 10 -61 -8 -49 -6 3 -7 1 -3 -6 6 -9
11 -9 21 -1 17 14 27 -23 11 -41 -8 -9 -8 -10 1 -5 6 3 14 2 18 -4 3 -5 1 -10
-5 -10 -7 0 -5 -7 4 -16 9 -8 14 -20 11 -25 -4 -5 -1 -9 6 -9 7 0 10 -3 6 -6
-7 -7 38 -58 53 -60 6 -1 15 -2 22 -3 7 -1 6 -6 -5 -13 -14 -12 -14 -16 -1
-38 l14 -25 -4 28 c-3 16 -1 25 5 22 5 -4 7 -11 4 -16 -4 -5 -1 -9 5 -9 6 0 8
-4 5 -10 -6 -9 8 -14 28 -11 4 0 7 -5 7 -12 0 -9 2 -9 9 1 4 8 12 14 17 13 5
0 8 10 7 22 -2 21 -2 20 12 -3 8 -14 14 -19 15 -12 0 6 5 12 10 12 7 0 7 -7 0
-22 -11 -23 -11 -23 5 -3 9 11 19 20 23 19 4 0 18 11 31 24 15 16 18 23 7 19
-9 -4 -16 -2 -16 3 0 9 15 14 33 11 10 -2 0 16 -22 42 -8 10 -11 17 -6 15 6
-2 10 0 10 3 0 3 7 14 15 23 18 23 25 60 8 50 -7 -5 -8 -3 -3 5 5 9 10 10 18
2 6 -6 18 -11 26 -11 11 0 9 5 -7 16 -21 14 -22 41 -1 29 5 -4 9 -1 9 5 0 6 4
9 9 5 5 -3 13 0 17 6 4 7 3 9 -3 6 -6 -4 -16 0 -23 8 -10 12 -9 20 4 40 9 14
22 22 30 19 8 -3 17 0 21 5 3 6 11 8 17 5 7 -4 8 -2 4 5 -4 6 -13 8 -19 4 -7
-4 -25 -8 -41 -9 -25 -2 -27 0 -12 8 21 12 56 45 56 53 0 3 -10 1 -22 -5 -21
-10 -21 -10 -6 3 10 8 15 17 11 21 -4 4 0 4 10 0 16 -6 21 -17 18 -37 -1 -5 3
-6 9 -2 11 7 6 19 -18 48 -8 9 -11 17 -6 18 5 0 0 4 -11 9 -17 7 -17 9 -2 9 9
1 20 1 23 0 10 -1 24 24 24 44 0 12 -4 16 -12 11 -7 -4 -2 4 11 19 12 14 21
30 17 35 -3 5 1 18 9 28 11 13 15 15 13 4 -2 -8 -7 -18 -13 -22 -6 -5 -3 -8 6
-8 12 0 17 10 18 33 3 94 6 110 24 113 9 1 15 -2 11 -7 -3 -5 -10 -7 -15 -4
-5 4 -9 1 -9 -4 0 -6 7 -11 15 -11 14 0 19 11 16 37 -1 8 5 10 14 7 8 -4 15
-1 15 7 0 7 -3 9 -7 6 -3 -4 -12 -2 -19 4 -8 7 -14 6 -20 -2 -5 -8 -3 -10 7
-4 11 6 12 5 2 -5 -17 -19 -29 -4 -13 15 7 9 19 14 26 11 8 -3 13 0 11 7 -1 7
4 11 11 9 8 -1 11 2 7 8 -3 6 -10 8 -14 5 -5 -2 -19 8 -32 23 l-24 27 25 -22
c26 -22 35 -21 58 9 11 14 11 16 -5 13 -10 -1 -17 -8 -16 -14 2 -6 -2 -11 -7
-11 -13 0 -13 17 1 25 6 4 8 14 4 22 -4 13 -3 14 9 4 11 -9 16 -9 22 0 4 8 3
9 -4 5 -7 -4 -12 -3 -12 2 0 5 11 15 25 22 18 10 22 16 13 22 -7 4 -9 8 -5 8
4 0 3 9 -2 19 -8 14 -7 22 4 31 8 7 15 17 15 23 0 5 -10 2 -22 -9 l-23 -19 20
24 c11 13 19 25 18 27 -2 2 0 4 5 4 4 0 7 -4 7 -10 0 -5 3 -10 8 -10 4 0 12 0
19 0 6 0 4 6 -5 13 -10 6 -19 21 -21 32 -2 11 -8 29 -12 40 -7 17 -6 18 8 5 9
-8 14 -23 12 -33 -1 -10 1 -15 7 -12 5 4 9 -2 10 -12 0 -11 3 -13 6 -5 3 7 -1
20 -8 29 -12 14 -11 15 11 10 14 -4 19 -4 12 -1 -6 3 -10 9 -7 14 3 4 -1 7 -8
6 -6 0 -13 3 -14 8 0 5 -8 13 -17 18 -9 5 -14 13 -11 19 4 5 1 9 -6 9 -7 0
-10 3 -6 6 3 3 14 1 24 -5 14 -8 15 -11 3 -11 -12 0 -11 -3 3 -11 9 -6 14 -16
11 -22 -5 -8 -2 -7 7 1 11 11 12 14 1 21 -15 9 -15 20 -1 38 7 7 6 14 -1 18
-6 4 -9 1 -8 -7 4 -17 -24 -17 -30 1 -3 8 0 11 5 8 11 -7 9 40 -1 51 -12 12
-128 8 -141 -4 -7 -8 -23 -45 -34 -84 -12 -39 -27 -83 -33 -98 -6 -15 -12 -29
-12 -32 -11 -48 -82 -247 -88 -244 -4 3 -6 -1 -3 -8 7 -19 -70 -240 -80 -231
-4 5 -5 2 -1 -4 7 -13 -42 -176 -55 -181 -4 -2 -5 -10 -2 -18 3 -8 -2 -17 -12
-20 -11 -4 -13 -9 -6 -13 8 -5 6 -13 -4 -27 -13 -18 -14 -18 -8 5 5 18 3 22
-7 16 -8 -5 -11 -4 -6 3 3 6 2 13 -3 17 -5 3 -8 14 -6 24 2 11 -3 22 -11 25
-11 4 -13 13 -9 27 5 15 4 19 -5 14 -9 -6 -9 -2 0 15 13 25 4 42 -11 20 -9
-13 -10 -12 -5 2 3 10 1 20 -5 23 -5 4 -7 10 -5 14 3 4 1 13 -4 21 -5 9 -5 19
2 27 8 11 7 12 -8 7 -10 -4 -16 -4 -12 1 4 4 3 16 -2 26 -7 12 -6 20 2 25 6 4
8 3 5 -2 -3 -6 -1 -16 4 -24 13 -21 4 32 -11 59 -6 12 -8 27 -4 34 5 9 4 9 -5
1 -10 -9 -10 -17 -1 -34 6 -12 9 -24 6 -28 -11 -10 -18 6 -19 42 0 19 -5 34
-11 33 -6 -1 -11 4 -12 11 -1 6 -3 15 -4 20 -1 4 -2 11 -1 16 1 4 -4 18 -12
30 -16 24 -11 50 6 39 8 -5 8 -2 0 8 -10 12 -10 18 -1 27 9 9 9 15 -1 25 -10
10 -11 9 -6 -3 4 -11 -1 -16 -15 -17 -11 -1 -19 1 -19 5 1 4 0 9 -1 12 -7 19
-7 39 1 34 5 -3 7 -10 4 -15 -4 -5 -1 -9 5 -9 7 0 9 7 6 16 -3 9 -6 18 -6 20
0 2 -7 4 -15 4 -8 0 -15 9 -15 19 0 11 -5 23 -10 26 -8 5 -8 11 0 20 8 10 8
15 -1 21 -8 5 -9 3 -4 -7 7 -12 6 -12 -8 -1 -11 10 -14 20 -7 36 10 27 7 93
-5 104 -4 4 -5 1 -1 -5 4 -8 1 -13 -8 -13 -9 0 -16 -4 -16 -10 0 -5 5 -9 11
-7 15 3 22 -40 7 -49 -7 -5 -8 -3 -4 5 5 7 1 20 -9 31 -13 14 -14 23 -6 39 9
17 8 22 -9 31 -12 7 -17 16 -13 27 4 11 3 14 -6 9 -6 -4 -11 -4 -10 1 3 16
-23 73 -34 74 -66 6 -106 5 -125 -2z m933 -318 c-1 -9 -7 -16 -13 -16 -6 0
-14 -3 -18 -7 -4 -5 -12 -8 -18 -8 -5 0 -2 6 9 13 10 8 15 19 11 25 -5 8 -1
10 11 5 15 -5 16 -3 6 8 -7 7 -13 17 -13 23 0 5 6 1 14 -9 7 -10 13 -26 11
-34z m-55 -61 c0 -5 -5 -10 -11 -10 -5 0 -7 5 -4 10 3 6 8 10 11 10 2 0 4 -4
4 -10z m-574 -55 c-1 -8 -5 -17 -8 -21 -5 -4 -4 16 1 34 3 9 9 -1 7 -13z m510
-151 c-3 -9 -6 -18 -6 -20 0 -2 -5 -4 -11 -4 -8 0 -9 4 0 13 6 8 8 17 4 20 -3
4 -1 7 6 7 8 0 11 -6 7 -16z m-45 -107 c-10 -9 -11 -8 -5 6 3 10 9 15 12 12 3
-3 0 -11 -7 -18z m-96 -287 c3 -5 1 -10 -4 -10 -6 0 -11 5 -11 10 0 6 2 10 4
10 3 0 8 -4 11 -10z m-44 -103 c-10 -9 -11 -8 -5 6 3 10 9 15 12 12 3 -3 0
-11 -7 -18z m-7 -75 c3 -5 -1 -9 -9 -9 -8 0 -15 4 -15 9 0 4 4 8 9 8 6 0 12
-4 15 -8z m-31 -39 c-5 -12 -3 -14 7 -8 9 5 11 4 6 -4 -4 -6 -12 -9 -17 -6 -5
4 -9 0 -9 -7 0 -10 -2 -10 -9 1 -5 8 -14 10 -21 6 -9 -6 -11 -4 -6 4 5 7 14
10 21 7 7 -2 16 2 19 10 3 8 8 14 10 14 3 0 2 -7 -1 -17z m-122 -16 c-10 -9
-11 -8 -5 6 3 10 9 15 12 12 3 -3 0 -11 -7 -18z m49 -31 c0 -1 -7 -3 -15 -3
-8 0 -15 5 -15 11 0 6 -5 4 -10 -4 -5 -8 -10 -10 -10 -4 0 18 12 24 31 13 11
-5 19 -11 19 -13z"/>
<path d="M1390 4643 c-63 -2 -125 -5 -137 -8 -22 -5 -40 -43 -38 -85 0 -14 -4
-28 -10 -32 -7 -5 -7 -8 1 -8 12 0 12 -99 -1 -120 -5 -7 -4 -11 1 -7 11 7 11
-153 -1 -172 -5 -9 -4 -12 3 -7 7 4 10 -3 7 -21 -1 -16 -8 -27 -15 -25 -6 1
-9 -2 -5 -8 3 -6 10 -8 14 -5 10 6 6 -99 -5 -116 -4 -7 -3 -10 4 -5 12 7 11
-32 -3 -53 -5 -9 -4 -12 3 -7 12 7 11 -32 -3 -53 -5 -9 -4 -12 1 -8 12 7 11
-153 -1 -172 -5 -9 -4 -12 3 -7 7 4 10 -3 7 -21 -1 -16 -8 -27 -15 -25 -6 1
-9 -2 -5 -8 3 -6 9 -8 13 -6 4 2 7 -34 7 -81 1 -59 5 -87 14 -92 8 -5 10 -14
6 -22 -6 -11 -5 -12 6 -1 20 18 34 15 18 -5 -12 -14 -12 -16 0 -8 11 6 13 4 8
-8 -4 -11 -1 -17 8 -17 16 0 20 -12 8 -24 -11 -10 -12 -37 -2 -30 5 3 7 10 4
15 -4 5 0 12 9 15 8 3 12 13 9 22 -4 14 -3 14 5 3 6 -9 7 -23 2 -37 -7 -18 -6
-21 8 -19 9 2 20 4 25 4 4 1 7 8 7 17 0 8 5 12 10 9 7 -4 7 -12 0 -25 -5 -10
-10 -22 -10 -27 1 -4 8 5 16 21 12 21 13 31 4 40 -8 8 -16 5 -30 -14 -11 -14
-20 -20 -20 -15 0 22 20 38 48 40 28 2 30 0 21 -23 -13 -33 -6 -38 11 -7 7 14
18 25 23 25 5 0 4 -7 -3 -15 -9 -11 -9 -15 -1 -15 7 0 9 -5 5 -11 -5 -8 -1 -8
14 0 27 14 35 14 26 -1 -5 -9 -2 -9 9 1 14 11 17 11 18 0 1 -8 1 -18 0 -22 -1
-5 3 -6 8 -2 6 3 7 13 4 22 -4 11 -3 14 5 9 17 -10 52 -16 51 -8 -3 19 2 32
12 32 6 0 8 -10 5 -22 -3 -13 -3 -17 0 -10 5 10 9 9 20 -5 13 -17 14 -17 8 0
-4 10 -3 17 2 16 5 -1 15 -1 22 0 15 1 6 21 -9 21 -6 0 -8 -4 -5 -8 3 -5 -1
-9 -9 -9 -20 0 -19 13 1 21 9 4 24 0 34 -9 9 -8 20 -12 23 -9 4 4 -1 12 -9 19
-15 11 -15 12 0 12 9 0 16 -3 16 -7 0 -4 10 -7 23 -6 13 1 22 7 22 18 0 24 11
31 12 8 1 -11 -3 -22 -8 -25 -5 -4 -7 -10 -5 -14 3 -4 -1 -8 -9 -8 -8 0 -15 4
-15 9 0 5 -5 6 -11 2 -14 -9 7 -23 30 -19 9 1 19 -3 24 -9 4 -6 6 0 5 14 -2
19 2 25 17 25 11 0 19 -6 18 -12 -3 -15 13 -18 21 -4 8 12 -29 43 -39 34 -4
-5 -5 -2 -1 5 6 11 12 10 27 -4 11 -10 29 -19 41 -21 17 -3 19 -1 9 11 -11 13
-9 14 13 10 19 -3 26 0 26 11 0 8 5 15 10 15 15 0 -6 -36 -25 -44 -8 -3 -15
-11 -15 -18 0 -10 2 -10 9 1 7 11 9 11 14 0 4 -10 6 -9 6 3 1 11 8 16 19 13
10 -2 25 1 33 6 11 8 10 9 -5 7 -10 -2 -21 3 -24 11 -3 9 0 11 8 6 9 -6 11 -4
5 5 -6 10 -4 12 8 7 9 -3 19 -1 23 6 4 7 4 9 -1 5 -9 -9 -47 10 -41 20 3 5 1
14 -3 21 -6 9 -11 10 -15 2 -4 -6 -2 -11 4 -11 7 0 5 -6 -4 -15 -18 -18 -32
-20 -19 -2 15 18 12 90 -4 108 -12 14 -44 17 -221 19 -241 2 -231 2 -229 9 1
3 -5 17 -12 30 -7 13 -8 21 -3 17 6 -3 13 -2 17 3 3 5 -3 14 -12 20 -11 6 -13
11 -5 11 7 0 10 5 6 12 -5 7 -3 8 5 4 14 -9 12 25 -3 35 -5 4 -5 13 0 20 13
20 11 32 -6 47 -9 8 -1 6 18 -3 32 -15 32 -15 20 4 -6 11 -15 18 -19 15 -4 -2
-11 1 -15 7 -4 8 -3 9 4 5 7 -4 12 -2 12 3 0 6 -6 11 -12 11 -7 0 -2 7 10 16
12 8 22 21 21 27 -4 30 2 35 36 33 19 -2 35 0 35 3 0 4 7 16 15 27 15 19 15
19 8 0 -5 -16 -3 -18 12 -13 15 6 16 5 5 -8 -11 -13 -15 -13 -21 -3 -7 10 -9
9 -9 -3 0 -9 7 -20 16 -23 8 -3 13 -2 10 3 -3 5 1 11 8 14 9 4 16 -1 18 -11 3
-13 5 -12 10 6 4 14 2 20 -4 15 -7 -3 -8 -1 -4 5 3 6 -2 15 -11 21 -10 6 -13
11 -6 11 6 0 15 -5 18 -10 4 -6 11 -7 17 -4 7 4 8 2 4 -5 -5 -8 0 -10 18 -7
15 3 24 1 21 -5 -4 -5 -10 -7 -15 -4 -4 3 -14 -3 -21 -12 -12 -15 -12 -16 1
-8 22 14 44 12 53 -5 5 -11 6 -9 4 5 -2 11 2 26 10 33 7 7 13 9 13 4 0 -5 12
-9 26 -9 19 0 24 3 19 16 -5 13 -4 13 6 4 10 -10 9 -17 -6 -33 -14 -15 -20
-17 -26 -8 -7 10 -11 10 -21 0 -6 -6 -9 -13 -5 -13 4 -1 10 -2 15 -3 4 -1 14
-5 22 -10 8 -5 12 -6 8 -1 -8 9 9 35 23 35 5 0 6 -8 2 -17 -7 -19 -5 -18 17
11 12 16 12 18 1 11 -10 -6 -12 -4 -6 5 6 10 12 7 27 -11 12 -16 16 -18 12 -6
-4 12 -2 17 7 15 8 -2 13 9 15 34 1 21 -2 35 -7 32 -17 -10 -9 9 9 22 16 13
16 13 -1 14 -18 0 -19 20 -2 32 6 5 5 8 -2 8 -7 0 -13 11 -13 24 0 13 -7 27
-16 30 -9 3 -91 6 -184 6 -139 0 -169 3 -174 15 -3 9 -12 12 -23 9 -13 -4 -15
-3 -5 4 8 5 13 13 12 18 -1 5 4 10 11 13 8 2 10 -2 6 -13 -4 -9 -2 -16 3 -16
19 0 10 39 -10 45 -21 7 -25 16 -13 29 11 11 10 46 -1 46 -6 0 -4 5 4 10 13 8
12 11 -5 25 -12 9 -14 13 -5 10 11 -4 16 1 17 15 1 13 -2 18 -10 14 -7 -4 -9
-4 -5 1 4 4 2 15 -5 24 -7 9 -2 7 15 -4 21 -16 24 -23 15 -35 -6 -8 -7 -12 -3
-8 5 4 15 0 23 -10 13 -15 13 -15 3 6 -10 20 -7 25 10 24 3 0 6 8 6 19 0 18
-2 19 -12 4 -7 -9 -15 -12 -18 -7 -3 6 2 13 11 16 12 5 14 9 5 18 -15 15 -15
28 -1 28 5 0 8 -4 4 -9 -9 -16 34 -34 50 -21 8 7 15 7 19 1 3 -5 3 -11 -1 -14
-5 -2 -1 -2 7 1 8 2 24 5 35 6 11 1 26 5 33 9 6 5 18 5 24 1 19 -12 78 -15 78
-4 0 12 22 9 32 -5 4 -5 8 4 9 20 1 17 3 22 6 13 2 -10 11 -18 20 -18 12 0 13
3 4 13 -8 10 -7 14 3 14 9 0 13 -8 10 -24 -5 -25 5 -30 23 -12 8 8 20 9 43 1
18 -7 28 -7 25 -2 -4 6 -12 10 -18 10 -7 0 -18 9 -25 20 -7 11 -8 20 -3 20 5
0 12 -7 15 -16 4 -9 9 -14 13 -11 3 4 12 2 19 -4 8 -7 14 -6 20 2 4 7 3 9 -4
5 -6 -3 -13 -2 -17 4 -4 6 -12 7 -18 3 -8 -4 -8 -2 1 9 10 13 10 17 -3 22 -8
3 -15 10 -15 16 0 5 9 2 19 -7 11 -9 18 -20 15 -25 -3 -4 0 -8 5 -8 6 0 11 7
11 16 0 9 5 12 12 8 7 -5 8 -3 3 6 -6 10 -3 12 11 7 18 -7 18 -6 2 7 -10 7
-18 19 -18 25 0 7 -5 9 -10 6 -8 -5 -8 -11 0 -20 14 -17 -1 -27 -20 -14 -8 5
-10 9 -5 9 6 0 11 9 12 20 1 13 -2 18 -9 14 -7 -4 -8 -2 -4 5 4 6 13 8 19 4 7
-4 6 0 -2 10 -7 9 -11 24 -7 32 3 8 1 15 -4 15 -6 0 -10 7 -10 15 0 11 -12 15
-47 15 -27 0 -104 1 -173 3 -69 1 -177 1 -240 0z m400 -163 c0 -5 -5 -10 -11
-10 -5 0 -7 5 -4 10 3 6 8 10 11 10 2 0 4 -4 4 -10z m-223 -15 c0 -8 -4 -12
-9 -9 -5 3 -6 10 -3 15 9 13 12 11 12 -6z m-97 -21 c0 -8 5 -14 11 -14 5 0 8
4 5 9 -4 5 2 8 11 6 10 -1 23 2 30 7 7 6 15 4 21 -7 12 -22 24 -21 34 2 7 17
8 16 5 -2 -2 -14 -10 -19 -35 -20 -18 0 -36 3 -39 8 -2 4 -11 3 -18 -3 -17
-14 -31 -7 -38 20 -3 11 -1 18 4 14 5 -3 9 -12 9 -20z m197 11 c-4 -8 -2 -17
3 -20 6 -4 10 -2 10 4 0 5 9 9 20 8 18 -1 18 -11 -1 -13 -5 -1 -10 -2 -11 -4
-2 -1 -18 -3 -36 -4 -34 -3 -50 8 -31 20 6 3 15 1 19 -6 6 -9 10 -7 15 9 3 11
9 21 12 21 3 0 3 -7 0 -15z m143 -9 c0 -2 -7 -9 -15 -16 -13 -11 -14 -10 -9 4
5 14 24 23 24 12z m-225 -454 c-3 -3 -11 0 -18 7 -9 10 -8 11 6 5 10 -3 15 -9
12 -12z m80 0 c-3 -3 -11 0 -18 7 -9 10 -8 11 6 5 10 -3 15 -9 12 -12z m104
-4 c-5 -10 -15 -18 -22 -18 -8 0 -8 3 2 9 7 5 11 13 8 18 -3 5 0 10 8 10 10 0
11 -5 4 -19z m31 -33 c0 -5 -5 -3 -10 5 -8 12 -10 12 -10 1 0 -8 -2 -12 -5 -9
-3 3 -2 13 1 22 5 14 9 15 15 4 5 -7 9 -17 9 -23z m-155 15 c3 -6 -1 -7 -9 -4
-18 7 -21 14 -7 14 6 0 13 -4 16 -10z m-235 -69 c0 -6 -4 -12 -8 -15 -5 -3 -9
1 -9 9 0 8 4 15 9 15 4 0 8 -4 8 -9z m-82 -466 c-3 -3 -9 2 -12 12 -6 14 -5
15 5 6 7 -7 10 -15 7 -18z m159 10 c0 -8 -4 -12 -9 -9 -5 3 -6 10 -3 15 9 13
12 11 12 -6z m97 -13 c2 -4 -4 -8 -14 -8 -10 0 -16 4 -14 8 3 4 9 8 14 8 5 0
11 -4 14 -8z m-48 -11 c-4 -5 -1 -11 6 -13 6 -2 8 -10 4 -16 -5 -8 -13 -9 -25
-2 -10 5 -21 6 -25 3 -3 -3 -6 -1 -6 5 0 7 -5 12 -11 12 -5 0 -8 -3 -6 -7 3
-5 -7 -9 -21 -9 -15 -1 -21 1 -14 3 6 3 10 8 7 12 -2 5 10 7 29 6 18 -2 39 1
47 6 18 11 22 11 15 0z"/>
<path d="M1510 3406 c0 -2 7 -7 16 -10 8 -3 12 -2 9 4 -6 10 -25 14 -25 6z"/>
<path d="M275 4540 c3 -5 8 -10 11 -10 2 0 4 5 4 10 0 6 -5 10 -11 10 -5 0 -7
-4 -4 -10z"/>
<path d="M305 4393 c-5 -14 -4 -15 6 -6 10 10 15 9 26 -5 13 -15 13 -15 3 6
-13 26 -25 28 -35 5z"/>
<path d="M1595 4400 c3 -5 8 -10 11 -10 2 0 4 5 4 10 0 6 -5 10 -11 10 -5 0
-7 -4 -4 -10z"/>
<path d="M1735 4400 c-3 -6 1 -7 9 -4 18 7 21 14 7 14 -6 0 -13 -4 -16 -10z"/>
<path d="M1815 4400 c3 -5 8 -10 11 -10 2 0 4 5 4 10 0 6 -5 10 -11 10 -5 0
-7 -4 -4 -10z"/>
<path d="M1470 4390 c0 -5 5 -10 11 -10 5 0 7 5 4 10 -3 6 -8 10 -11 10 -2 0
-4 -4 -4 -10z"/>
<path d="M1027 4376 c-10 -8 -14 -17 -9 -20 6 -3 13 1 16 10 3 8 11 12 17 8 8
-4 9 -3 5 4 -9 14 -7 15 -29 -2z"/>
<path d="M365 4360 c-3 -6 1 -7 9 -4 18 7 21 14 7 14 -6 0 -13 -4 -16 -10z"/>
<path d="M326 4339 c8 -13 44 -31 44 -22 0 4 -11 13 -25 20 -14 6 -23 7 -19 2z"/>
<path d="M1414 4320 c0 -10 2 -17 5 -15 2 3 10 0 18 -6 19 -17 16 -1 -5 21
-17 19 -18 19 -18 0z"/>
<path d="M110 4299 c0 -5 5 -7 10 -4 6 3 10 8 10 11 0 2 -4 4 -10 4 -5 0 -10
-5 -10 -11z"/>
<path d="M1010 4279 c0 -5 5 -7 10 -4 6 3 10 8 10 11 0 2 -4 4 -10 4 -5 0 -10
-5 -10 -11z"/>
<path d="M1410 4279 c0 -5 5 -7 10 -4 6 3 10 8 10 11 0 2 -4 4 -10 4 -5 0 -10
-5 -10 -11z"/>
<path d="M1420 4260 c-14 -11 -22 -20 -17 -21 4 -1 10 -2 15 -3 4 -1 12 -4 18
-8 6 -4 11 -1 11 7 0 8 -4 12 -9 9 -12 -8 -10 10 4 24 18 18 6 14 -22 -8z"/>
<path d="M155 4220 c-3 -5 -1 -10 4 -10 6 0 11 5 11 10 0 6 -2 10 -4 10 -3 0
-8 -4 -11 -10z"/>
<path d="M1455 4181 c-3 -5 -2 -12 3 -15 5 -3 9 1 9 9 0 17 -3 19 -12 6z"/>
<path d="M391 4153 c6 -7 17 -13 23 -12 7 0 6 2 -2 6 -6 2 -10 8 -8 12 3 4 -1
8 -9 8 -11 0 -12 -4 -4 -14z"/>
<path d="M416 4118 c3 -4 9 -8 15 -8 5 0 9 4 9 8 0 5 -7 9 -15 9 -8 0 -12 -4
-9 -9z"/>
<path d="M409 4096 c6 -7 9 -15 7 -17 -2 -2 7 -4 20 -4 13 0 24 1 24 2 0 1
-14 8 -31 17 -22 11 -28 12 -20 2z"/>
<path d="M919 4058 c-6 -23 -7 -48 -1 -48 4 0 8 11 8 25 0 21 -4 33 -7 23z"/>
<path d="M1835 4051 c-3 -5 -2 -12 3 -15 5 -3 9 1 9 9 0 17 -3 19 -12 6z"/>
<path d="M1815 4000 c-7 -12 2 -12 30 0 19 8 19 9 -2 9 -12 1 -25 -3 -28 -9z"/>
<path d="M1830 3980 c-9 -6 -10 -10 -3 -10 6 0 15 5 18 10 8 12 4 12 -15 0z"/>
<path d="M867 3942 c-14 -15 -14 -19 -3 -19 8 0 14 5 13 11 -1 6 4 10 11 8 8
-1 11 2 7 8 -8 13 -9 13 -28 -8z"/>
<path d="M1816 3942 c-3 -5 1 -9 9 -9 8 0 12 4 9 9 -3 4 -7 8 -9 8 -2 0 -6 -4
-9 -8z"/>
<path d="M1436 3921 c-3 -4 1 -17 10 -27 14 -18 15 -18 5 2 -6 12 -7 24 -4 28
3 3 4 6 0 6 -3 0 -8 -4 -11 -9z"/>
<path d="M1465 3919 c-4 -6 -4 -13 -1 -16 3 -4 6 -1 6 6 0 7 5 9 12 5 7 -4 8
-3 4 4 -9 15 -13 15 -21 1z"/>
<path d="M478 3913 c7 -3 16 -2 19 1 4 3 -2 6 -13 5 -11 0 -14 -3 -6 -6z"/>
<path d="M865 3895 c4 -11 8 -25 8 -32 0 -7 4 -10 9 -7 4 3 3 15 -3 27 -16 30
-24 37 -14 12z"/>
<path d="M484 3884 c1 -8 4 -15 7 -16 2 -2 3 -1 2 1 -2 2 2 9 7 16 7 8 5 12
-4 12 -8 0 -13 -6 -12 -13z"/>
<path d="M1422 3873 c-6 -2 -10 -9 -6 -14 8 -14 21 -11 21 6 0 8 -1 15 -1 14
-1 0 -7 -3 -14 -6z"/>
<path d="M850 3861 c0 -7 -6 -11 -13 -8 -8 3 -14 -1 -14 -9 0 -8 4 -14 7 -14
12 0 33 30 26 37 -3 3 -6 1 -6 -6z"/>
<path d="M275 3850 c-3 -6 1 -7 9 -4 18 7 21 14 7 14 -6 0 -13 -4 -16 -10z"/>
<path d="M516 3821 c-3 -4 4 -17 15 -27 18 -16 19 -16 13 -1 -3 9 -10 17 -16
17 -5 0 -6 5 -3 10 3 6 4 10 1 10 -3 0 -7 -4 -10 -9z"/>
<path d="M850 3819 c0 -5 5 -7 10 -4 6 3 10 8 10 11 0 2 -4 4 -10 4 -5 0 -10
-5 -10 -11z"/>
<path d="M510 3781 c0 -5 7 -12 16 -15 8 -3 12 -11 8 -17 -4 -8 -3 -9 4 -5 17
10 15 19 -8 34 -11 7 -20 8 -20 3z"/>
<path d="M1430 3779 c0 -5 -4 -8 -9 -4 -5 3 -12 1 -15 -4 -4 -5 -2 -12 3 -15
5 -4 12 -2 16 4 4 6 10 8 14 6 4 -3 8 1 8 9 0 8 -4 15 -9 15 -4 0 -8 -5 -8
-11z"/>
<path d="M796 3754 c-5 -14 -4 -15 9 -4 17 14 19 20 6 20 -5 0 -12 -7 -15 -16z"/>
<path d="M1421 3741 c-10 -6 -10 -10 -1 -16 8 -5 6 -11 -6 -19 -12 -10 -14
-15 -5 -20 9 -6 9 -11 0 -22 -10 -12 -9 -18 6 -32 17 -16 17 -16 7 3 -8 15 -6
23 11 39 17 14 18 18 5 13 -10 -3 -20 -2 -23 3 -6 9 9 15 29 11 5 -1 4 5 -3
13 -7 8 -10 20 -6 26 7 12 4 12 -14 1z"/>
<path d="M1455 3741 c-3 -5 -2 -12 3 -15 5 -3 9 1 9 9 0 17 -3 19 -12 6z"/>
<path d="M550 3729 c0 -5 -5 -7 -12 -3 -7 4 -8 3 -4 -4 4 -6 13 -9 21 -6 8 4
12 10 9 15 -7 12 -14 11 -14 -2z"/>
<path d="M772 3703 c-16 -28 -15 -36 2 -30 7 3 20 0 27 -6 11 -10 11 -9 0 5
-7 10 -18 15 -24 11 -6 -3 -7 -1 -3 5 4 6 13 9 21 5 8 -3 15 0 15 7 0 6 -4 9
-9 6 -5 -4 -11 0 -13 6 -3 8 -9 5 -16 -9z"/>
<path d="M1455 3661 c-3 -5 -2 -12 3 -15 5 -3 9 1 9 9 0 17 -3 19 -12 6z"/>
<path d="M746 3618 c6 -9 44 -6 44 3 0 4 -11 6 -24 5 -13 0 -22 -4 -20 -8z"/>
<path d="M735 3572 c3 -3 -2 -14 -12 -24 -9 -10 -13 -18 -8 -18 4 0 2 -6 -4
-14 -9 -10 -8 -15 3 -19 11 -4 13 -1 10 11 -5 14 -3 13 10 -2 9 -11 16 -15 16
-9 0 7 -5 15 -10 18 -8 5 -7 11 1 21 6 8 8 14 4 14 -4 0 -2 6 4 13 8 10 7 14
-4 14 -8 0 -13 -3 -10 -5z"/>
<path d="M425 3490 c5 -8 17 -21 26 -28 11 -7 16 -21 14 -33 -3 -12 -1 -18 3
-15 4 4 7 11 7 14 0 4 4 14 9 22 5 8 5 12 1 7 -5 -4 -22 5 -38 20 -17 16 -26
21 -22 13z"/>
<path d="M436 3447 c3 -10 9 -15 12 -12 3 3 0 11 -7 18 -10 9 -11 8 -5 -6z"/>
<path d="M1234 3436 c1 -8 5 -18 8 -22 4 -3 5 1 4 10 -1 8 -5 18 -8 22 -4 3
-5 -1 -4 -10z"/>
<path d="M685 3404 c-9 -15 -12 -23 -6 -20 11 7 35 46 28 46 -3 0 -12 -12 -22
-26z"/>
<path d="M1745 3400 c4 -6 11 -8 16 -5 14 9 11 15 -7 15 -8 0 -12 -5 -9 -10z"/>
<path d="M1806 3402 c-3 -6 -1 -14 5 -17 15 -10 25 3 12 16 -7 7 -13 7 -17 1z"/>
<path d="M1636 3381 c-3 -4 6 -7 19 -7 14 0 22 2 19 5 -8 8 -34 10 -38 2z"/>
<path d="M513 3365 c0 -8 4 -12 9 -9 5 3 6 10 3 15 -9 13 -12 11 -12 -6z"/>
<path d="M1750 3370 c0 -5 7 -7 15 -4 8 4 15 8 15 10 0 2 -7 4 -15 4 -8 0 -15
-4 -15 -10z"/>
<path d="M588 3363 c7 -3 16 -2 19 1 4 3 -2 6 -13 5 -11 0 -14 -3 -6 -6z"/>
<path d="M1395 3360 c-3 -5 -1 -10 4 -10 6 0 11 5 11 10 0 6 -2 10 -4 10 -3 0
-8 -4 -11 -10z"/>
<path d="M1695 3360 c3 -5 8 -10 11 -10 2 0 4 5 4 10 0 6 -5 10 -11 10 -5 0
-7 -4 -4 -10z"/>
<path d="M1800 3360 c-9 -6 -10 -10 -3 -10 6 0 15 5 18 10 8 12 4 12 -15 0z"/>
<path d="M2958 3250 c-26 -3 -50 -9 -54 -13 -4 -3 -7 -71 -7 -151 0 -80 -4
-143 -8 -140 -4 2 -11 0 -14 -6 -4 -6 -1 -9 7 -8 9 2 14 -13 16 -55 2 -37 -1
-57 -7 -53 -5 4 -13 2 -16 -4 -4 -6 -1 -9 7 -8 9 2 14 -13 16 -55 2 -37 -1
-57 -7 -53 -5 4 -13 2 -16 -4 -4 -6 -1 -9 7 -8 9 2 14 -13 16 -55 2 -37 -1
-57 -7 -53 -5 4 -13 2 -16 -4 -4 -6 -1 -9 7 -8 9 2 14 -13 16 -55 2 -46 0 -57
-10 -51 -10 6 -10 5 -1 -7 8 -10 11 -73 9 -209 -2 -228 1 -254 32 -258 24 -4
28 -12 11 -29 -6 -6 -8 -16 -5 -22 8 -13 46 4 46 20 0 6 -7 3 -16 -5 -18 -18
-24 -20 -24 -7 0 5 12 16 26 26 15 9 23 12 20 6 -4 -6 -2 -11 4 -11 6 0 8 -4
5 -10 -3 -5 -1 -10 5 -10 6 0 9 -4 6 -8 -3 -5 1 -9 9 -9 8 0 12 5 8 10 -3 5 5
7 18 3 13 -3 18 -3 11 0 -14 6 -37 46 -25 42 4 -1 18 3 31 10 18 11 22 10 22
-2 0 -10 -6 -13 -17 -9 -12 5 -14 3 -8 -7 6 -9 4 -11 -5 -5 -9 5 -11 4 -6 -3
5 -9 13 -9 29 0 12 6 23 9 24 7 1 -2 5 0 10 5 4 5 3 6 -3 3 -7 -4 -14 2 -17
13 -4 14 -11 18 -24 14 -10 -3 -14 -2 -8 3 12 9 18 31 16 53 -1 8 -1 25 -1 38
0 12 -5 22 -12 22 -6 0 -9 2 -6 5 8 8 39 -6 33 -15 -3 -4 2 -11 10 -14 13 -4
14 -2 5 14 -8 14 -8 27 0 43 10 20 10 20 -3 5 -18 -23 -28 -23 -20 -1 4 11 3
14 -5 9 -7 -4 -12 -2 -12 4 0 7 7 10 14 7 10 -4 13 -1 9 8 -3 8 -9 13 -13 10
-5 -3 -12 0 -16 6 -5 8 -3 9 5 5 8 -5 14 0 18 13 5 19 7 20 17 6 10 -14 12
-14 12 4 0 11 -3 18 -7 15 -4 -2 -9 2 -12 8 -3 8 -9 3 -15 -12 -11 -25 -11
-25 -10 5 2 35 16 57 31 48 6 -3 7 -1 3 6 -4 6 -11 9 -16 6 -13 -8 -18 18 -7
42 6 13 16 20 26 16 11 -3 11 -1 -3 7 -14 10 -20 10 -26 0 -5 -8 -10 -8 -14
-2 -8 13 19 23 42 16 9 -3 2 3 -15 13 l-33 18 23 14 c20 13 21 13 8 -2 -9 -11
-10 -17 -2 -17 6 0 11 5 11 10 0 6 0 12 0 15 0 3 -3 5 -6 4 -12 -1 -24 26 -18
43 2 9 0 19 -6 23 -6 4 -7 12 -2 18 10 14 10 27 -1 45 -5 7 -3 12 3 12 7 0 9
7 6 16 -3 8 -2 13 3 10 10 -6 8 -66 -2 -83 -4 -6 -3 -14 2 -17 5 -4 11 -3 14
1 2 5 3 3 1 -3 -1 -6 3 -11 10 -11 6 0 12 8 12 18 0 10 -3 16 -7 13 -12 -7
-18 23 -7 34 6 6 5 19 -5 38 -8 16 -12 35 -9 43 3 8 0 11 -7 7 -6 -4 -11 -2
-11 3 0 6 5 11 10 11 6 0 10 5 10 11 0 5 -4 8 -9 4 -5 -3 -13 0 -17 6 -5 8 -3
9 5 5 8 -5 14 0 18 13 5 19 7 20 17 6 10 -14 12 -14 12 4 0 11 -3 18 -7 15 -4
-2 -9 2 -12 8 -3 8 -9 3 -15 -12 -11 -25 -11 -25 -10 5 2 35 16 57 31 48 6 -3
7 -1 3 6 -4 6 -11 9 -16 6 -13 -8 -18 18 -7 42 6 13 16 20 26 16 11 -3 11 -1
-3 7 -14 10 -20 10 -26 0 -5 -8 -10 -8 -14 -2 -8 13 19 23 42 16 9 -3 2 3 -15
13 l-33 18 23 14 c20 13 21 13 8 -2 -9 -11 -10 -17 -2 -17 10 0 14 11 9 28 -2
4 -6 6 -10 5 -9 -3 -10 -1 -13 42 -2 34 12 58 28 48 6 -3 7 -1 3 6 -4 6 -11 9
-16 6 -4 -3 -10 1 -13 7 -5 18 4 48 15 48 5 0 7 -4 4 -9 -3 -5 1 -12 9 -15 13
-4 13 -2 5 14 -5 10 -7 27 -4 37 3 10 2 14 -3 8 -4 -5 -15 -16 -24 -22 -13
-10 -16 -10 -16 2 0 8 3 12 7 10 3 -2 14 5 23 16 18 20 9 27 -10 8 -8 -8 -13
-7 -18 2 -5 8 -4 10 3 5 16 -10 15 7 0 23 -11 11 -9 11 12 2 l25 -12 -23 20
c-12 11 -22 23 -21 28 6 35 -28 51 -93 43z"/>
<path d="M3397 3254 c-2 -2 -17 -4 -34 -6 -27 -2 -33 -7 -41 -40 -7 -25 -6
-38 0 -38 6 0 5 -6 -2 -15 -10 -12 -10 -15 0 -15 9 0 9 -4 -1 -17 -12 -14 -12
-16 0 -8 10 6 12 4 7 -4 -11 -18 -14 -101 -3 -101 4 0 5 -4 2 -10 -11 -18 -14
-50 -5 -50 5 0 7 -6 5 -12 -10 -28 -13 -68 -6 -68 7 0 2 -50 -8 -84 -2 -5 3
-13 11 -18 10 -7 10 -11 1 -14 -7 -3 -9 -12 -6 -21 5 -12 3 -14 -8 -8 -12 8
-12 6 0 -8 14 -17 23 -87 12 -87 -3 0 -6 -23 -6 -50 0 -28 4 -50 8 -50 5 0 5
-4 2 -10 -11 -18 -14 -50 -5 -50 5 0 7 -6 5 -12 -10 -28 -13 -68 -6 -68 7 0 2
-50 -8 -84 -2 -5 3 -13 11 -18 10 -7 10 -11 1 -14 -7 -3 -9 -12 -6 -21 5 -12
3 -14 -8 -8 -12 8 -12 6 0 -8 14 -17 23 -87 12 -87 -8 0 -6 -84 2 -97 3 -5 2
-15 -3 -23 -12 -19 23 -48 53 -45 16 2 23 -3 24 -16 2 -17 0 -18 -13 -4 -25
24 -27 17 -5 -11 11 -15 18 -31 14 -37 -3 -6 -1 -7 5 -3 6 4 9 12 6 20 -3 7 2
13 11 13 8 0 15 -4 15 -9 0 -5 7 -2 16 6 8 9 19 14 24 11 5 -3 8 4 7 15 -1 11
-6 20 -11 20 -5 0 -2 6 9 13 10 8 15 19 11 25 -4 6 -2 20 3 31 8 14 8 20 -1
23 -7 3 -5 7 6 11 10 4 15 3 11 -3 -3 -6 1 -7 9 -4 9 3 16 10 16 16 0 5 -4 6
-10 3 -5 -3 -10 3 -10 15 0 12 4 19 8 16 5 -3 8 8 8 24 0 16 -3 27 -8 24 -4
-3 -8 4 -8 16 0 12 4 19 8 16 5 -3 8 8 8 24 0 16 -3 27 -8 24 -4 -3 -8 4 -8
15 0 12 5 21 12 21 6 0 8 3 5 6 -4 4 -14 1 -24 -7 -15 -12 -16 -12 -10 5 6 14
4 17 -8 12 -22 -8 -18 2 6 15 17 9 20 8 14 -2 -5 -8 -4 -10 4 -5 6 4 9 12 5
17 -3 5 -1 16 6 24 9 11 7 12 -9 8 -12 -3 -18 -9 -15 -14 3 -5 0 -9 -5 -9 -6
0 -11 4 -11 10 0 11 41 35 53 32 5 -1 6 2 2 8 -3 6 -12 7 -18 3 -20 -12 -34
-12 -34 1 0 8 13 12 33 11 18 0 30 3 28 7 -3 4 -11 8 -19 8 -7 0 -15 3 -18 8
-2 4 -2 0 0 -8 3 -11 1 -12 -7 -4 -13 13 -3 44 13 40 7 -1 9 -1 5 1 -16 9 -7
22 10 16 10 -3 6 2 -8 13 -14 10 -28 18 -31 17 -3 -1 -6 5 -6 13 0 12 5 11 26
-3 22 -14 24 -14 13 -1 -9 11 -10 18 -2 23 5 3 10 12 10 18 0 8 -3 7 -9 -2 -5
-7 -11 -9 -13 -5 -3 5 -3 3 -1 -4 1 -7 -2 -10 -8 -7 -5 4 -7 16 -3 27 3 12 2
18 -3 15 -5 -4 -10 0 -10 7 0 7 6 13 13 13 7 0 11 -4 8 -8 -2 -4 1 -11 8 -15
7 -4 10 -4 6 1 -4 4 -2 15 5 23 10 13 9 14 -2 8 -9 -6 -12 -5 -9 5 3 8 11 13
17 11 7 -1 10 2 7 7 -7 11 -32 9 -43 -4 -4 -4 -2 -5 6 0 10 6 12 4 7 -4 -9
-14 -19 -7 -22 14 -1 9 2 12 9 8 6 -4 8 0 4 10 -8 22 1 47 16 43 7 -1 9 -1 5
1 -16 9 -7 22 10 16 10 -3 6 2 -8 13 -14 10 -28 18 -31 17 -3 -1 -6 5 -6 13 0
12 5 11 26 -3 22 -14 24 -14 13 -1 -9 11 -10 18 -2 23 5 3 10 12 10 18 0 8 -3
7 -9 -2 -5 -7 -11 -9 -13 -5 -3 5 -3 3 -1 -4 1 -7 -2 -10 -8 -7 -5 4 -7 16 -3
27 3 12 2 18 -3 15 -5 -4 -10 0 -10 7 0 7 6 13 13 13 7 0 11 -4 8 -8 -2 -4 1
-11 8 -15 7 -4 10 -4 6 1 -4 4 -2 15 5 23 10 13 9 14 -2 8 -9 -6 -12 -5 -9 5
3 8 12 13 19 11 8 -2 10 0 6 4 -12 12 -36 13 -44 2 -4 -7 -1 -8 7 -3 9 6 11 4
6 -4 -9 -14 -19 -7 -22 14 -1 9 2 12 9 8 6 -4 8 0 4 10 -8 22 1 47 16 43 7 -1
9 -1 5 1 -5 3 -8 9 -8 14 0 6 6 7 13 3 6 -4 4 2 -6 13 -17 19 -17 22 -2 37 19
19 6 22 -14 4 -11 -11 -13 -10 -8 4 3 9 1 18 -6 21 -6 2 -3 6 7 10 11 5 15 3
10 -5 -4 -6 -3 -8 4 -5 5 4 8 17 4 30 -5 20 -4 21 14 7 18 -14 18 -14 1 6 -11
13 -16 32 -13 52 2 17 0 30 -4 27 -4 -2 -16 3 -26 11 -18 15 -18 15 3 11 15
-3 20 -1 16 9 -3 7 -10 12 -16 11 -6 -1 -11 3 -12 8 -1 21 -16 33 -45 37 -17
3 -31 3 -33 2z m106 -107 c3 -8 1 -20 -4 -28 -12 -19 -11 -32 1 -24 6 3 7 -1
4 -9 -11 -29 -20 -16 -20 29 1 44 9 58 19 32z m-5 -187 c-7 -10 -14 -18 -15
-16 -6 6 9 36 18 36 5 0 4 -9 -3 -20z m0 -240 c-7 -10 -14 -18 -15 -16 -6 6 9
36 18 36 5 0 4 -9 -3 -20z m0 -240 c-7 -10 -14 -18 -15 -16 -6 6 9 36 18 36 5
0 4 -9 -3 -20z m8 -258 c-18 -16 -19 -16 -12 2 5 14 2 17 -11 12 -15 -5 -15
-4 1 9 28 21 47 1 22 -23z m0 -80 c-18 -16 -19 -16 -12 2 5 14 2 17 -11 12
-15 -5 -15 -4 1 9 28 21 47 1 22 -23z m-53 -166 c4 -11 1 -13 -10 -9 -10 4
-14 2 -10 -4 3 -5 0 -10 -7 -10 -7 0 -13 6 -13 13 0 7 4 11 9 8 4 -3 8 0 8 5
0 16 17 13 23 -3z"/>
<path d="M4657 3247 c-31 -11 -32 -16 -32 -106 0 -48 -4 -81 -10 -81 -7 0 -7
-3 0 -8 14 -9 14 -112 0 -112 -5 0 -3 -5 5 -10 13 -9 13 -10 0 -10 -13 0 -13
-1 0 -11 11 -8 12 -12 2 -16 -6 -2 -9 -10 -5 -16 11 -18 10 -87 -2 -87 -5 0
-4 -4 3 -9 8 -4 14 -12 14 -16 0 -4 -6 -12 -14 -16 -7 -5 -8 -9 -2 -9 6 0 11
-7 11 -15 0 -8 -5 -15 -11 -15 -7 0 -7 -3 -1 -8 6 -4 11 -15 12 -25 1 -13 -4
-17 -15 -13 -12 4 -11 2 3 -9 17 -14 18 -17 5 -25 -8 -5 -10 -10 -5 -10 6 0
11 -16 11 -35 1 -23 -2 -32 -10 -28 -6 4 -5 0 2 -9 9 -12 10 -18 2 -23 -8 -5
-8 -11 1 -21 9 -11 9 -14 0 -14 -7 0 -9 -5 -4 -12 12 -19 11 -58 -2 -58 -7 0
-7 -3 1 -8 13 -9 13 -104 -1 -114 -6 -5 -5 -8 3 -8 6 0 12 -5 12 -11 0 -5 -6
-7 -12 -3 -9 5 -9 2 1 -9 10 -13 10 -17 1 -17 -10 0 -10 -3 0 -15 9 -11 10
-18 1 -28 -6 -8 -8 -17 -4 -21 12 -12 12 -36 0 -36 -8 0 -8 -3 -2 -8 15 -11
17 -74 2 -66 -8 5 -8 3 1 -7 15 -16 16 -33 0 -23 -7 5 -8 3 -2 -7 4 -8 9 -20
11 -28 2 -14 21 -31 36 -31 5 0 5 6 1 13 -6 9 -5 9 8 0 8 -7 19 -9 23 -5 5 4
5 1 1 -5 -4 -8 -2 -13 5 -13 9 0 9 -3 0 -14 -10 -12 -7 -14 16 -11 15 2 34 -2
42 -9 10 -8 10 -4 -2 14 -11 17 -13 30 -7 40 7 11 10 11 10 2 0 -7 4 -11 10
-7 5 3 6 13 3 23 -5 14 -2 13 11 -3 15 -17 17 -18 12 -2 -3 11 -2 16 4 12 6
-3 10 0 10 7 0 9 3 9 10 -2 5 -8 10 -19 10 -25 0 -5 -5 -3 -10 5 -5 8 -10 11
-10 5 0 -5 5 -17 10 -25 5 -8 10 -10 10 -4 0 7 12 19 26 29 15 10 23 12 19 4
-6 -9 -3 -11 9 -6 10 4 15 3 11 -3 -3 -6 -1 -11 4 -11 6 -1 16 -2 22 -3 6 0
16 -9 23 -18 13 -18 32 -26 22 -10 -3 5 1 9 9 9 8 0 12 -4 9 -9 -3 -4 0 -8 5
-8 6 0 11 5 11 12 0 6 3 9 6 6 3 -4 -2 -19 -11 -35 -14 -23 -14 -25 -1 -9 14
18 21 15 17 -6 -2 -13 6 -9 20 9 10 11 10 14 2 9 -7 -4 -13 -3 -13 3 0 12 57
8 68 -4 4 -5 0 -6 -10 -2 -16 5 -48 -20 -48 -39 0 -4 7 2 16 14 12 18 19 20
35 12 11 -6 16 -16 13 -22 -4 -7 -2 -8 5 -4 9 6 9 11 -1 24 -11 13 -11 15 3
10 8 -3 26 3 40 14 13 11 19 17 13 14 -15 -8 -26 21 -12 30 6 4 8 3 5 -3 -4
-5 5 -16 18 -23 13 -7 21 -18 18 -24 -4 -6 1 -5 10 3 18 14 14 32 -6 27 -7 -1
-9 -1 -4 1 4 3 4 10 0 16 -3 7 -3 9 2 5 4 -4 13 0 20 9 9 13 14 13 20 3 5 -8
4 -11 -2 -7 -6 4 -13 1 -16 -7 -3 -8 1 -17 9 -20 10 -4 12 -2 8 6 -5 7 -2 9 9
5 10 -4 14 -2 11 7 -3 7 2 13 11 13 9 0 14 -6 11 -14 -4 -8 -1 -11 5 -8 6 4 8
13 5 21 -3 7 -1 16 5 19 5 4 7 16 5 29 -3 15 1 23 10 23 11 0 11 -4 2 -16 -7
-9 -8 -13 -4 -9 5 4 16 2 25 -5 14 -11 14 -10 2 6 -7 9 -10 17 -5 17 5 0 1 7
-8 14 -16 12 -16 14 7 24 20 9 24 17 21 37 -3 15 -1 23 5 20 5 -4 12 1 15 9 3
9 11 16 16 16 7 0 6 -5 -1 -13 -6 -8 -7 -18 -3 -22 4 -5 1 -5 -7 0 -10 6 -12
4 -6 -5 6 -9 4 -11 -5 -5 -9 5 -11 4 -6 -4 6 -9 11 -9 22 -1 7 7 12 15 11 18
-1 4 3 7 8 7 6 0 9 -4 7 -8 -1 -5 2 -5 8 -2 8 5 6 13 -5 25 -14 16 -14 19 -1
33 14 13 12 17 -17 31 -20 9 -25 16 -15 16 10 0 17 3 17 8 -3 18 2 32 12 32 5
0 7 -4 4 -10 -3 -5 -1 -10 5 -10 6 0 10 8 8 18 -2 9 -10 17 -17 17 -8 0 -16 7
-18 15 -4 12 -3 12 5 2 5 -8 13 -14 17 -14 9 0 25 23 25 37 0 6 -4 4 -9 -4 -8
-12 -12 -12 -25 -2 -9 8 -16 18 -16 24 0 6 7 2 15 -9 13 -18 14 -18 15 -1 0
11 4 15 12 11 7 -4 8 -3 4 5 -4 6 -11 9 -16 6 -13 -8 -17 16 -15 72 2 35 -1
51 -8 46 -6 -3 -7 -1 -3 6 10 15 25 5 24 -17 0 -9 3 -26 7 -37 6 -17 5 -17 -5
-5 -9 12 -11 12 -8 1 6 -21 34 -22 34 -1 0 10 -4 16 -8 14 -4 -3 -9 1 -9 8 -3
37 -18 70 -29 63 -4 -2 -6 7 -4 20 1 14 -1 27 -6 30 -4 2 -5 16 -2 30 3 16 0
25 -9 25 -7 0 -10 3 -6 6 3 3 -3 21 -13 39 -17 31 -18 34 -2 29 9 -2 7 1 -5 7
-13 7 -23 18 -23 26 0 7 -5 13 -11 13 -5 0 -7 5 -4 10 3 6 -1 10 -10 10 -8 0
-18 6 -21 14 -7 19 -75 64 -111 73 -15 3 -61 8 -102 9 -61 2 -85 -2 -135 -24
-34 -15 -72 -37 -86 -49 -14 -13 -29 -23 -35 -23 -5 0 -4 4 3 9 20 12 19 18
-2 34 -12 9 -15 16 -8 21 6 3 9 18 6 31 -2 14 0 25 5 25 6 0 8 -9 6 -19 -3
-14 1 -18 12 -14 12 5 12 7 1 14 -7 5 -8 9 -3 9 6 0 1 7 -9 15 -17 13 -18 17
-6 28 10 9 12 9 6 0 -4 -7 -2 -13 3 -13 6 0 11 3 12 8 0 4 2 15 4 25 2 9 -1
15 -6 11 -5 -3 -9 0 -9 6 0 6 -4 8 -10 5 -5 -3 -10 -2 -10 3 0 6 7 13 16 16 8
3 13 10 9 15 -3 5 0 13 6 17 8 5 10 -1 7 -19 -3 -15 -2 -24 2 -22 9 6 19 55
11 52 -3 -1 -6 2 -6 6 0 13 -34 29 -47 21 -7 -4 -8 -3 -4 5 4 6 17 9 29 6 12
-2 16 -2 9 1 -9 4 -10 9 -2 19 8 10 8 15 0 20 -8 5 -7 12 2 23 12 15 11 15 -4
4 -9 -7 -15 -22 -13 -33 2 -10 -1 -19 -7 -19 -5 0 -8 6 -5 14 3 7 1 18 -5 24
-7 7 -1 15 18 26 l29 16 -26 -4 c-25 -4 -26 -2 -24 39 1 24 -2 42 -7 39 -4 -3
-8 -1 -8 4 0 13 -84 19 -113 9z m153 -233 c-6 -6 -7 -14 -3 -17 3 -4 1 -7 -5
-7 -6 0 -9 12 -8 28 5 38 5 39 16 22 5 -9 5 -19 0 -26z m4 -72 c2 -4 -4 -8
-14 -8 -10 0 -16 4 -14 8 3 4 9 8 14 8 5 0 11 -4 14 -8z m254 -236 c7 1 8 0 2
-3 -5 -2 -7 -10 -3 -16 5 -8 2 -8 -9 0 -8 7 -18 10 -21 6 -4 -3 -7 -1 -7 6 0
7 -5 9 -12 5 -7 -4 -8 -3 -4 4 5 8 13 9 24 3 9 -4 23 -7 30 -5z m56 -8 c4 4 6
0 4 -8 -1 -8 -7 -18 -13 -22 -5 -4 -6 -10 -2 -14 3 -4 13 -2 21 5 11 9 15 8
19 -3 4 -9 1 -18 -5 -22 -7 -5 -8 -2 -3 7 5 8 4 10 0 6 -12 -11 -15 -37 -4
-37 5 0 9 5 9 10 0 6 7 10 16 10 14 0 14 -3 4 -15 -10 -13 -11 -18 -1 -28 10
-9 11 -8 6 6 -4 9 -4 17 -1 17 4 0 11 -12 17 -27 7 -19 7 -28 -2 -34 -7 -4
-14 -15 -15 -23 -1 -9 2 -14 7 -10 5 3 6 10 3 16 -4 6 -1 9 6 6 18 -6 22 -39
7 -57 -10 -12 -9 -13 2 -7 11 7 12 -6 8 -75 -3 -46 -7 -93 -10 -104 -3 -11 -6
-24 -6 -28 -1 -5 -7 -5 -13 -1 -10 5 -10 4 -1 -6 26 -28 -83 -151 -122 -136
-9 3 -13 2 -10 -4 4 -6 -7 -10 -24 -10 -18 0 -31 5 -31 13 0 9 -2 9 -8 0 -11
-17 -96 22 -86 39 4 7 4 10 -1 6 -12 -11 -45 10 -45 29 0 9 -3 14 -6 10 -11
-11 -41 36 -36 56 4 14 7 16 13 5 7 -10 9 -9 9 5 0 9 -4 17 -10 17 -5 0 -14
-8 -20 -17 -9 -15 -11 -15 -7 -2 3 9 0 22 -6 28 -9 9 -8 11 6 6 16 -7 20 1 16
31 0 3 7 11 17 18 13 10 14 15 4 21 -9 5 -11 4 -6 -3 10 -17 -3 -15 -21 3 -14
14 -13 18 3 37 19 21 19 21 -6 8 -22 -12 -24 -11 -13 2 7 8 10 18 6 21 -3 4 0
14 8 24 12 15 12 16 -6 10 -17 -6 -18 -5 -5 5 16 14 27 54 12 44 -5 -3 -9 1
-9 9 0 11 4 12 14 4 17 -14 17 3 1 20 -7 7 -8 11 -3 9 13 -4 66 43 59 53 -2 4
5 13 16 19 11 6 18 14 16 18 -3 5 -1 14 3 21 6 9 11 10 15 2 4 -6 3 -11 -2
-11 -16 0 -9 -27 11 -39 13 -9 17 -9 12 -1 -4 7 2 14 15 17 15 4 18 8 10 13
-7 4 -10 12 -6 18 7 11 85 10 103 -1 7 -5 17 0 25 12 8 13 16 17 24 11 6 -6
14 -6 18 -2z m-192 -50 c-7 -7 -12 -8 -12 -2 0 6 3 14 7 17 3 4 9 5 12 2 2 -3
-1 -11 -7 -17z m-82 -28 c0 -5 -5 -10 -11 -10 -5 0 -7 5 -4 10 3 6 8 10 11 10
2 0 4 -4 4 -10z m-45 -260 c3 -5 1 -10 -4 -10 -6 0 -11 5 -11 10 0 6 2 10 4
10 3 0 8 -4 11 -10z m5 -24 c0 -3 -4 -8 -10 -11 -5 -3 -10 -1 -10 4 0 6 5 11
10 11 6 0 10 -2 10 -4z m572 -124 c-7 -2 -10 -7 -8 -11 3 -4 -1 -8 -8 -8 -7 0
-13 6 -13 13 0 7 4 11 9 8 4 -3 8 0 8 6 0 6 5 8 12 4 9 -6 9 -9 0 -12z m-587
-180 c-3 -3 -11 0 -18 7 -9 10 -8 11 6 5 10 -3 15 -9 12 -12z m474 -19 c-6 -6
-17 -9 -25 -6 -16 6 -19 23 -4 23 6 0 10 -5 10 -11 0 -5 4 -8 10 -4 5 3 7 13
4 23 -5 14 -4 14 4 2 8 -10 8 -18 1 -27z m-417 13 c7 4 8 2 4 -5 -9 -13 -26
-5 -25 12 0 9 2 8 6 -1 2 -6 10 -9 15 -6z m-125 -56 c1 -11 -2 -20 -7 -20 -6
0 -7 17 -1 38 3 8 7 -1 8 -18z m396 -15 c9 -21 -5 -25 -28 -8 -16 13 -17 15
-2 10 9 -4 17 -2 17 3 0 15 7 12 13 -5z"/>
<path d="M5085 2680 c-3 -5 1 -10 9 -10 9 0 16 5 16 10 0 6 -4 10 -9 10 -6 0
-13 -4 -16 -10z"/>
<path d="M4962 2674 c3 -3 20 -7 38 -9 18 -3 30 -2 27 2 -4 3 -21 7 -38 9 -18
2 -30 1 -27 -2z"/>
<path d="M5040 2671 c0 -6 4 -13 10 -16 6 -3 7 1 4 9 -7 18 -14 21 -14 7z"/>
<path d="M4880 2629 c-10 -6 -11 -9 -3 -9 7 0 -4 -15 -24 -34 -36 -33 -36 -34
-15 -45 15 -8 23 -8 28 1 4 6 3 8 -4 4 -7 -4 -10 2 -9 15 1 11 14 28 29 37 15
9 28 20 28 24 0 13 -16 17 -30 7z"/>
<path d="M4890 2579 c0 -5 5 -7 10 -4 6 3 10 8 10 11 0 2 -4 4 -10 4 -5 0 -10
-5 -10 -11z"/>
<path d="M4816 2514 c-4 -10 -4 -15 0 -11 4 4 13 2 20 -4 8 -7 14 -6 20 2 4 7
3 9 -4 5 -6 -3 -15 1 -20 10 -8 15 -10 14 -16 -2z"/>
<path d="M4810 2486 c0 -2 7 -7 16 -10 8 -3 12 -2 9 4 -6 10 -25 14 -25 6z"/>
<path d="M4805 2459 c-10 -15 3 -25 16 -12 7 7 7 13 1 17 -6 3 -14 1 -17 -5z"/>
<path d="M4805 2400 c-3 -5 1 -10 9 -10 9 0 16 5 16 10 0 6 -4 10 -9 10 -6 0
-13 -4 -16 -10z"/>
<path d="M4810 2244 c0 -1 8 -8 17 -15 9 -8 14 -9 10 -2 -4 6 -1 13 5 16 7 3
3 4 -9 4 -13 -1 -23 -2 -23 -3z"/>
<path d="M4870 2190 c-9 -6 -10 -10 -3 -10 6 0 15 5 18 10 8 12 4 12 -15 0z"/>
<path d="M4946 2142 c-3 -5 1 -9 9 -9 8 0 12 4 9 9 -3 4 -7 8 -9 8 -2 0 -6 -4
-9 -8z"/>
<path d="M1410 3182 c0 -5 -17 -9 -37 -9 -53 0 -102 -9 -146 -28 -20 -8 -37
-12 -37 -8 0 5 -4 3 -8 -2 -4 -6 -26 -23 -49 -38 -42 -29 -139 -127 -125 -127
4 0 2 -4 -4 -8 -12 -8 -64 -115 -64 -132 0 -6 -4 -8 -10 -5 -5 3 -7 0 -5 -8 3
-7 -1 -42 -10 -78 -8 -35 -15 -90 -15 -122 0 -44 -3 -56 -12 -51 -9 6 -9 3 0
-9 8 -10 12 -30 9 -52 -3 -19 -2 -35 2 -35 4 0 8 -17 9 -37 3 -50 7 -74 16
-95 5 -10 5 -25 2 -34 -3 -8 -2 -12 4 -9 12 7 24 -40 14 -56 -4 -7 -3 -9 4 -5
6 4 16 -4 23 -16 11 -21 11 -22 -4 -9 -10 7 -17 9 -17 4 0 -5 11 -15 25 -21
14 -6 25 -19 25 -27 0 -10 5 -13 13 -9 8 5 7 2 -2 -9 -12 -15 -12 -17 4 -11
13 5 16 4 11 -4 -4 -7 -2 -20 4 -29 11 -17 11 -17 6 0 -4 11 -2 16 5 11 6 -3
9 -19 7 -35 -3 -15 -1 -26 4 -23 4 3 8 12 8 20 0 8 4 14 10 14 5 0 7 -7 3 -16
-3 -9 0 -20 8 -25 23 -15 34 -10 13 6 -10 8 -14 15 -8 15 17 0 33 -22 26 -39
-5 -14 -4 -14 11 -2 15 12 17 12 12 -2 -4 -8 -1 -18 4 -22 6 -3 8 -11 5 -17
-4 -7 -2 -8 5 -4 9 6 9 11 1 21 -8 10 -8 15 1 21 8 5 9 3 5 -5 -5 -8 -3 -11 6
-9 7 1 27 -7 45 -20 19 -14 34 -18 38 -12 3 5 12 10 18 10 8 0 8 -3 2 -8 -5
-4 -11 -18 -12 -32 l-3 -25 16 28 c8 15 17 27 19 27 8 0 1 -25 -10 -32 -5 -4
-6 -10 -2 -15 5 -4 11 -2 15 4 4 6 16 13 27 15 11 2 19 11 17 19 -3 12 -1 12
10 0 9 -9 10 -15 2 -18 -6 -2 -20 -10 -30 -19 -17 -13 -14 -13 20 1 21 8 40
15 43 15 2 0 1 5 -3 12 -5 7 -3 8 6 3 10 -6 8 -12 -10 -27 -12 -10 -20 -21
-16 -25 3 -3 6 -3 6 2 0 4 8 1 18 -6 16 -13 16 -13 2 5 -14 18 -13 19 3 13 12
-5 16 -3 11 4 -4 7 -1 10 7 7 8 -3 13 -10 12 -15 -1 -5 4 -10 12 -10 8 0 12 4
9 9 -3 4 -1 8 5 8 5 0 12 -5 14 -10 3 -6 4 -5 3 2 -2 7 -11 12 -20 12 -9 -1
-16 2 -16 7 0 12 17 11 41 -2 13 -7 18 -17 15 -27 -5 -15 -5 -15 7 0 8 10 23
16 34 14 11 -3 20 1 20 8 0 8 -13 12 -34 10 -18 -1 -36 3 -40 9 -4 6 -1 7 7 2
10 -6 12 -3 7 11 -7 18 -6 18 7 2 7 -10 16 -18 19 -18 4 0 4 8 1 18 -5 14 -4
15 5 2 6 -8 11 -11 11 -6 0 5 6 3 14 -3 10 -9 16 -8 26 4 8 9 21 13 32 9 10
-3 18 -2 17 3 -1 4 -1 15 0 23 1 12 4 12 12 -2 5 -10 15 -18 20 -18 6 0 7 6 3
13 -4 6 -4 9 0 5 5 -4 17 2 29 12 11 11 23 17 27 15 14 -8 19 22 7 36 -10 11
-9 11 5 1 11 -9 18 -10 23 -2 3 5 1 10 -5 10 -6 0 -8 5 -4 11 4 8 9 7 15 -2 5
-8 2 -20 -7 -30 -13 -15 -12 -16 11 -16 14 0 25 4 25 9 0 5 -4 7 -9 3 -6 -3
-9 4 -8 15 2 25 6 25 24 3 13 -16 13 -16 4 4 -8 16 -8 23 2 27 6 2 1 4 -12 3
-18 -2 -24 3 -26 20 -1 14 3 19 12 16 11 -4 11 -8 1 -22 -11 -14 -11 -14 3 -4
9 7 19 9 24 5 4 -4 1 3 -6 16 -8 12 -18 22 -24 22 -5 0 -3 5 5 10 13 8 13 10
-1 10 -11 0 -15 9 -14 30 1 24 -2 30 -19 30 -12 0 -32 -7 -44 -16 -12 -8 -27
-12 -34 -8 -6 4 -8 3 -5 -3 8 -13 -50 -46 -69 -39 -10 4 -13 2 -8 -6 5 -8 2
-9 -10 -5 -10 4 -15 3 -11 -3 7 -11 -60 -25 -76 -14 -7 4 -10 3 -6 -3 4 -6
-13 -10 -43 -9 -28 0 -50 3 -50 6 0 4 -10 6 -22 5 -29 -2 -88 16 -88 27 0 4
-7 8 -15 8 -8 0 -15 4 -15 8 0 5 -11 15 -25 22 -14 7 -25 20 -25 27 0 8 -5 11
-12 8 -7 -4 -5 0 5 8 9 8 17 18 17 23 0 4 -5 3 -12 -4 -7 -7 -15 -12 -18 -12
-6 0 -32 46 -34 60 -1 3 -5 11 -10 19 -6 10 -5 12 3 7 9 -6 10 0 5 21 l-7 28
24 -20 24 -20 -23 26 c-12 14 -20 28 -17 31 3 2 -2 5 -10 5 -11 0 -12 -4 -4
-13 6 -8 6 -14 0 -18 -13 -8 -19 4 -15 29 1 10 -1 24 -6 30 -7 8 -5 12 5 12 7
0 13 -5 12 -11 -1 -5 7 -11 18 -13 18 -3 18 -2 2 5 -10 4 -18 11 -18 15 2 21
0 28 -8 22 -5 -3 -13 0 -17 6 -4 8 -3 9 4 5 7 -4 12 -3 12 3 0 5 -8 15 -17 20
-17 10 -17 10 0 11 10 0 16 4 12 9 -3 5 5 17 17 27 22 16 18 16 -27 -2 -16 -6
-15 -3 5 14 14 12 20 21 15 22 -6 0 -17 -6 -24 -12 -11 -11 -11 -9 0 9 7 11
19 19 26 16 8 -3 13 0 11 8 -2 8 3 13 11 11 11 -2 11 2 -2 21 -12 18 -13 27
-4 36 8 8 8 14 -2 24 -10 10 -11 8 -5 -8 7 -17 6 -18 -8 -5 -14 13 -14 16 -1
23 8 5 20 4 29 -3 10 -9 14 -9 14 -1 0 6 -4 11 -9 11 -5 0 -8 8 -6 18 2 9 4
21 4 25 1 5 6 5 11 2 6 -4 7 -11 4 -17 -4 -7 -2 -8 4 -4 6 4 9 13 5 22 -7 18
-39 14 -35 -5 1 -7 -2 -10 -8 -6 -15 9 3 30 41 45 16 7 28 15 25 17 -2 3 -14
0 -25 -7 -14 -7 -21 -7 -21 0 0 5 5 10 11 10 5 0 8 4 4 9 -3 5 -1 12 5 16 6 4
8 10 5 15 -3 4 2 13 10 20 8 7 12 17 8 23 -3 6 -1 7 5 3 7 -4 12 -1 12 6 0 8
5 6 11 -5 6 -9 15 -15 20 -12 5 4 6 12 2 18 -11 18 -12 38 -2 31 5 -3 6 -10 3
-16 -5 -7 -2 -8 5 -4 7 5 10 14 7 22 -3 8 0 11 9 7 11 -4 12 -10 4 -26 -10
-21 -10 -21 5 -3 12 15 13 22 4 34 -13 15 -21 49 -10 37 4 -4 7 -12 7 -18 0
-5 6 -12 13 -15 7 -2 11 2 10 8 -2 7 4 15 12 17 9 3 11 1 5 -4 -5 -4 -11 -17
-13 -28 -2 -19 -2 -19 11 -3 8 10 17 15 21 11 4 -4 4 0 0 10 -5 13 -2 16 10
11 9 -3 13 -11 9 -17 -3 -6 -1 -7 6 -3 6 4 8 12 5 18 -4 6 1 8 14 4 18 -6 20
-3 17 14 -3 18 -2 20 10 10 11 -9 15 -9 15 -1 0 6 5 11 11 11 5 0 7 -5 4 -10
-4 -6 3 -8 17 -6 13 3 23 5 23 6 0 1 11 3 23 6 16 3 22 0 20 -8 -3 -7 -19 -13
-36 -12 -25 0 -29 -2 -20 -13 7 -9 14 -10 23 -3 6 5 15 7 18 3 4 -3 16 2 27
12 11 10 23 15 27 12 3 -4 1 -7 -6 -7 -7 0 -9 -5 -5 -12 5 -7 3 -8 -6 -3 -9 6
-11 4 -6 -4 6 -9 12 -9 25 3 10 9 22 16 27 16 5 0 2 -5 -6 -10 -13 -8 -13 -10
3 -11 18 -2 34 -5 42 -9 3 -1 10 -4 15 -5 6 -1 12 -4 15 -5 3 -1 11 -3 18 -4
6 0 12 -14 12 -30 0 -16 6 -30 13 -32 7 -1 8 0 2 3 -5 2 -10 9 -10 14 0 6 4 8
9 4 6 -3 15 3 21 12 10 16 10 15 5 -4 -5 -18 -2 -22 15 -20 11 1 20 5 20 9 0
5 10 4 23 -2 20 -10 20 -10 5 3 -10 8 -16 17 -13 21 3 3 -1 2 -7 -4 -15 -13
-28 -13 -28 -1 0 5 9 13 20 16 15 5 19 13 16 32 -4 17 -1 23 8 20 7 -3 13 1
13 8 0 7 -6 11 -14 8 -9 -3 -11 0 -7 10 3 8 1 17 -3 20 -5 3 -8 -14 -8 -38 1
-24 -2 -42 -6 -40 -4 3 -5 21 -3 40 1 19 -1 37 -6 40 -5 3 -7 12 -4 19 3 7 -2
16 -11 20 -9 3 -13 11 -9 17 4 8 3 9 -4 5 -11 -6 -60 18 -73 37 -3 5 -9 8 -13
8 -3 0 -11 1 -18 3 -78 22 -108 29 -139 31 -20 1 -42 5 -48 9 -6 4 -11 3 -11
-2z m-42 -187 c-3 -3 -9 2 -12 12 -6 14 -5 15 5 6 7 -7 10 -15 7 -18z m-243
-273 c-3 -3 -11 0 -18 7 -9 10 -8 11 6 5 10 -3 15 -9 12 -12z m-27 -55 c-1 -2
3 -11 10 -20 17 -20 8 -36 -18 -34 -10 1 -16 5 -13 10 3 4 12 6 20 3 9 -4 13
-1 10 6 -2 7 -10 12 -17 10 -10 -2 -11 0 -2 11 7 8 10 17 7 20 -3 4 -2 5 1 3
3 -2 4 -6 2 -9z m472 -671 c0 -2 -8 -10 -17 -17 -16 -13 -17 -12 -4 4 13 16
21 21 21 13z"/>
<path d="M3535 3139 c-4 -6 -5 -12 -2 -15 2 -3 7 2 10 11 7 17 1 20 -8 4z"/>
<path d="M4835 3120 c-3 -5 -1 -10 4 -10 6 0 11 5 11 10 0 6 -2 10 -4 10 -3 0
-8 -4 -11 -10z"/>
<path d="M3072 2998 c2 -6 11 -12 20 -14 11 -1 15 3 11 12 -6 17 -36 19 -31 2z"/>
<path d="M1394 2970 c0 -9 6 -17 12 -17 7 0 9 7 6 16 -5 14 -4 14 14 1 15 -11
16 -11 7 0 -18 20 -39 20 -39 0z"/>
<path d="M1550 2960 c0 -5 5 -10 11 -10 5 0 7 5 4 10 -3 6 -8 10 -11 10 -2 0
-4 -4 -4 -10z"/>
<path d="M3070 2958 c0 -11 12 -10 30 2 12 7 10 9 -8 7 -12 0 -22 -5 -22 -9z"/>
<path d="M1585 2950 c3 -5 2 -10 -2 -13 -5 -2 -2 -2 6 0 9 2 11 -2 7 -14 -5
-12 -4 -15 3 -8 17 18 17 37 -2 40 -9 2 -15 0 -12 -5z"/>
<path d="M1627 2930 c-4 -17 -3 -19 8 -10 10 8 14 7 17 -7 3 -15 5 -14 10 5 4
13 4 21 1 18 -4 -3 -12 -1 -18 4 -9 8 -14 5 -18 -10z"/>
<path d="M3504 2919 c1 -7 12 -16 25 -20 14 -6 20 -5 16 1 -3 6 -12 10 -20 10
-7 0 -16 5 -18 10 -3 6 -4 5 -3 -1z"/>
<path d="M3105 2900 c-3 -6 1 -7 9 -4 18 7 21 14 7 14 -6 0 -13 -4 -16 -10z"/>
<path d="M4830 2900 c0 -5 5 -10 11 -10 5 0 7 5 4 10 -3 6 -8 10 -11 10 -2 0
-4 -4 -4 -10z"/>
<path d="M1184 2869 c-9 -10 -14 -19 -9 -19 4 0 2 -6 -4 -13 -8 -10 -7 -14 4
-14 8 0 12 4 9 8 -2 4 0 10 6 14 5 3 10 1 10 -6 0 -7 3 -9 6 -6 4 4 1 13 -6
22 -15 17 -7 19 21 5 24 -14 24 -9 0 12 -18 15 -21 15 -37 -3z"/>
<path d="M2204 2872 c5 -8 -1 -12 -16 -12 -67 0 -199 -83 -235 -147 -9 -18
-21 -33 -25 -33 -5 0 -7 -3 -6 -7 1 -5 -4 -21 -11 -38 -7 -16 -15 -45 -18 -62
-3 -18 -9 -31 -12 -29 -4 3 -5 -11 -3 -31 3 -21 1 -33 -5 -30 -5 3 -10 0 -10
-8 0 -8 3 -13 6 -11 3 2 6 -33 6 -77 0 -45 4 -85 10 -89 6 -5 5 -8 -2 -8 -7 0
-13 -5 -13 -11 0 -5 5 -7 10 -4 6 3 10 1 10 -4 0 -6 -5 -11 -11 -11 -6 0 -3
-7 5 -16 9 -8 14 -19 11 -24 -3 -5 0 -10 5 -12 6 -2 12 -10 13 -18 2 -8 7 -22
12 -30 5 -8 10 -21 11 -28 2 -7 12 -22 24 -32 12 -10 20 -23 17 -27 -3 -5 1
-17 9 -28 8 -10 14 -14 14 -9 0 6 -6 16 -12 24 -11 12 -10 12 3 2 9 -6 19 -9
23 -5 4 4 4 -1 0 -11 -6 -15 -4 -17 7 -11 12 8 12 6 0 -8 -16 -20 -8 -22 21
-6 12 7 18 7 14 1 -3 -6 -3 -12 1 -15 5 -2 3 -2 -4 -1 -7 2 -10 -3 -6 -11 3
-8 9 -12 14 -9 18 11 49 13 49 3 0 -6 5 -7 10 -4 6 3 10 1 10 -6 0 -8 5 -7 17
2 16 13 16 13 0 -11 -23 -33 -22 -48 2 -19 11 13 23 21 27 16 4 -4 2 -13 -6
-20 -10 -10 -11 -9 -5 3 6 12 5 13 -5 3 -23 -21 -2 -28 22 -7 12 10 18 13 13
5 -6 -10 -2 -12 16 -6 20 6 22 5 12 -6 -7 -7 -13 -17 -13 -22 0 -6 13 4 30 21
17 18 30 27 30 22 0 -6 -9 -19 -19 -29 -20 -20 -20 -20 2 -19 39 1 48 -2 41
-14 -4 -7 -3 -8 5 -4 6 4 9 11 6 16 -3 5 -1 11 5 15 5 3 10 0 10 -7 0 -11 2
-11 9 0 4 7 12 12 17 11 20 -3 34 2 34 12 0 8 -4 8 -14 0 -10 -9 -15 -8 -19 3
-4 9 -1 18 5 22 7 4 8 3 4 -4 -4 -7 -2 -12 3 -12 6 0 11 6 11 13 0 6 5 4 11
-5 5 -10 15 -18 21 -18 7 0 7 5 -1 14 -9 11 -9 16 0 22 7 4 9 3 5 -4 -3 -6 1
-15 10 -20 11 -6 13 -11 5 -16 -6 -4 -11 -12 -11 -19 0 -6 7 -2 15 10 9 12 22
20 29 17 7 -3 16 2 20 12 5 12 3 14 -6 7 -19 -14 -41 -10 -45 7 -4 12 -3 12 5
2 10 -15 21 -15 39 0 9 8 16 4 23 -13 10 -24 10 -24 5 2 -3 17 1 31 10 39 8 7
13 16 10 19 -2 4 2 8 9 8 7 0 13 -6 13 -13 0 -7 -5 -10 -10 -7 -6 4 -7 1 -2
-7 5 -8 4 -11 -3 -6 -6 3 -14 2 -17 -4 -4 -6 -1 -9 6 -8 6 2 14 -3 17 -11 3
-9 0 -11 -8 -6 -9 5 -11 4 -6 -4 10 -16 27 -3 24 17 -2 12 3 16 17 14 16 -2
17 -1 5 7 -8 5 -11 13 -7 17 4 4 1 14 -6 22 -8 10 -8 13 -1 9 7 -4 15 0 18 9
5 12 10 14 20 5 7 -6 17 -7 21 -3 5 4 6 2 2 -3 -3 -6 -1 -17 4 -25 7 -12 8
-10 6 8 -2 12 -12 29 -23 38 -18 14 -18 15 4 4 22 -11 23 -10 17 9 -3 12 -2
21 3 21 5 0 13 10 19 22 8 19 10 20 16 4 5 -11 3 -15 -5 -10 -7 4 -8 3 -4 -4
4 -7 2 -12 -4 -12 -6 0 -8 -5 -4 -12 5 -7 2 -8 -7 -3 -11 6 -11 5 -2 -5 6 -7
9 -19 6 -26 -3 -8 0 -14 6 -14 6 0 10 3 10 8 -1 4 0 12 1 17 1 6 3 17 4 25 0
8 6 14 13 13 8 -2 10 4 6 14 -4 11 -3 14 5 9 7 -4 12 -2 12 4 0 7 -6 10 -14 7
-8 -3 -17 1 -20 9 -4 9 -11 12 -18 8 -9 -5 -9 -3 1 9 14 18 26 23 16 8 -3 -5
-1 -12 5 -16 5 -3 10 -2 10 4 0 5 9 12 20 16 11 3 19 12 17 18 -1 7 4 11 11 9
9 -2 7 5 -5 22 -10 13 -21 22 -25 19 -5 -2 -3 8 2 23 9 22 8 25 -5 20 -22 -8
-19 1 4 14 17 9 19 7 15 -15 -2 -14 0 -25 6 -25 6 0 9 -4 5 -9 -3 -5 0 -13 6
-17 8 -4 9 -3 5 4 -4 7 -1 12 6 12 9 0 9 3 -2 10 -8 5 -11 10 -5 10 5 0 3 6
-3 12 -10 10 -8 16 9 29 l21 16 -23 -2 c-33 -3 -41 3 -29 25 8 14 6 21 -6 28
-15 8 -15 10 0 15 10 4 14 3 11 -2 -3 -5 -1 -12 4 -15 12 -8 8 18 -5 35 -6 8
-10 32 -9 54 1 22 -3 46 -9 54 -9 12 -7 12 12 2 18 -10 21 -15 12 -26 -8 -9
-8 -15 0 -20 5 -3 10 -5 11 -3 6 27 5 39 -7 49 -8 6 -11 16 -7 22 3 5 2 8 -3
5 -5 -3 -16 1 -24 10 -13 14 -12 15 3 9 10 -4 16 -2 14 6 -1 7 7 11 18 9 16
-2 17 -1 5 7 -9 7 -18 7 -24 1 -6 -6 -14 -10 -20 -10 -5 0 -7 3 -4 6 4 3 0 17
-8 32 -10 19 -10 29 -2 39 8 11 7 12 -7 7 -12 -5 -16 -4 -12 3 4 6 4 13 -1 15
-17 7 -51 61 -45 72 3 6 3 8 -2 4 -10 -10 -37 11 -29 23 3 5 -2 6 -10 3 -9 -3
-16 -2 -16 4 0 5 -13 15 -30 22 -16 7 -30 16 -30 21 0 5 -7 6 -15 3 -10 -4
-15 0 -15 12 0 16 -2 17 -10 4 -6 -10 -13 -11 -17 -5 -5 6 -53 12 -108 14 -55
2 -104 6 -109 9 -5 3 -6 0 -2 -6z m46 -146 c0 -2 -7 -7 -16 -10 -8 -3 -12 -2
-9 4 6 10 25 14 25 6z m65 -36 c9 0 14 -4 10 -9 -3 -6 3 -10 12 -10 10 0 30
-2 46 -4 22 -4 25 -2 15 10 -9 11 -13 11 -19 1 -7 -11 -9 -11 -9 0 0 7 -4 11
-8 8 -5 -3 -21 4 -38 15 -16 10 -24 19 -19 19 6 0 21 -8 35 -17 22 -16 23 -16
17 3 -6 16 -5 17 6 4 6 -8 19 -16 27 -18 18 -4 31 -23 26 -37 -2 -5 -10 -8
-17 -7 -8 2 -10 0 -6 -4 12 -12 38 -14 30 -1 -4 7 0 8 12 3 15 -5 16 -4 5 9
-7 9 -10 18 -7 21 9 10 27 -34 21 -50 -4 -9 -1 -16 6 -16 10 0 10 -3 0 -15
-11 -13 -10 -14 4 -9 19 7 20 16 4 32 -9 9 -8 12 6 12 9 0 15 -4 11 -9 -3 -5
-1 -12 4 -16 6 -3 8 -12 4 -20 -3 -8 0 -15 7 -15 7 0 10 -8 7 -20 -3 -11 -2
-20 2 -20 5 0 7 -12 6 -27 -1 -16 2 -34 8 -40 6 -9 6 -13 -2 -13 -6 0 -11 -5
-11 -11 0 -5 4 -8 8 -5 10 6 8 -37 -3 -109 -3 -25 -10 -43 -15 -40 -4 3 -6 -3
-4 -12 3 -10 -9 -40 -26 -66 -42 -66 -112 -99 -202 -95 -39 2 -62 7 -61 14 1
7 -8 9 -24 6 -22 -4 -25 -2 -19 13 5 15 4 16 -9 5 -14 -11 -19 -7 -16 13 0 4
-4 7 -10 7 -11 0 -53 47 -55 62 -1 5 -3 9 -4 11 -1 1 -3 16 -5 32 -1 18 -7 29
-14 27 -8 -1 -10 2 -5 10 11 17 11 40 2 54 -6 8 3 10 29 8 25 -2 32 0 23 7 -8
5 -23 9 -32 9 -10 0 -18 5 -18 11 0 5 4 7 10 4 6 -3 7 1 4 9 -3 9 -11 13 -18
9 -6 -3 -3 3 7 14 18 21 19 43 2 55 -6 5 -5 8 3 8 7 0 10 5 7 10 -4 6 -11 8
-16 5 -5 -4 -9 -4 -9 -1 0 3 9 10 19 16 14 7 22 7 27 -2 4 -7 3 -8 -4 -4 -7 4
-12 3 -12 -2 0 -5 9 -12 20 -15 17 -4 18 -2 9 15 -8 15 -8 23 0 31 9 9 6 16
-11 30 l-23 18 25 -12 c14 -7 28 -17 32 -23 6 -8 8 -8 8 0 0 6 -3 14 -7 18
-13 13 -10 63 3 63 7 0 11 -4 8 -9 -3 -4 -2 -8 3 -9 4 0 16 -2 26 -4 9 -2 15
1 11 6 -3 5 -10 6 -16 3 -6 -4 -8 -2 -4 4 3 6 -2 16 -11 22 -16 10 -16 11 -1
6 9 -3 19 -2 21 2 2 4 2 1 1 -5 -2 -7 0 -13 4 -14 4 0 17 -2 29 -5 12 -2 25 1
28 6 4 6 -1 7 -12 3 -16 -6 -16 -5 -5 10 8 8 20 13 28 10 8 -3 14 0 14 7 0 6
-4 9 -8 6 -4 -2 -14 0 -22 6 -12 8 -12 9 2 4 10 -3 20 -1 24 5 4 6 11 6 20 -2
15 -12 19 0 7 17 -5 5 -1 1 9 -8 9 -10 24 -18 33 -18z m-116 -26 c-6 -8 -14
-14 -17 -14 -3 0 -2 3 1 6 3 4 2 15 -4 26 -10 18 -9 18 11 8 17 -9 19 -14 9
-26z m-104 -104 c-3 -5 -12 -10 -18 -10 -7 0 -6 4 3 10 19 12 23 12 15 0z
m609 -328 c6 -11 -22 -47 -31 -38 -4 4 -1 11 7 16 11 7 12 10 2 10 -7 0 -10 5
-7 10 7 12 22 13 29 2z m-214 -227 c0 -2 -10 -9 -22 -15 -22 -11 -22 -10 -4 4
21 17 26 19 26 11z m-189 -48 c-6 -6 -11 -15 -11 -21 0 -6 5 -5 12 2 15 15 28
15 28 1 0 -5 -4 -8 -9 -4 -5 3 -12 1 -16 -4 -3 -5 -14 -9 -25 -8 -19 1 -19 1
0 22 11 12 17 25 13 30 -5 4 -2 5 5 0 10 -5 11 -10 3 -18z"/>
<path d="M2256 2687 c7 -21 31 -29 31 -11 0 8 -3 12 -5 9 -3 -3 -11 0 -19 7
-11 8 -12 7 -7 -5z"/>
<path d="M2124 2613 c3 -20 21 -28 31 -14 4 7 0 8 -11 4 -11 -4 -15 -3 -10 5
3 6 2 13 -3 16 -5 4 -8 -2 -7 -11z"/>
<path d="M2135 2551 c-3 -5 -2 -12 3 -15 5 -3 9 1 9 9 0 17 -3 19 -12 6z"/>
<path d="M2070 2476 c0 -2 6 -9 14 -15 11 -9 16 -9 22 0 4 8 3 9 -4 5 -7 -4
-12 -2 -12 3 0 6 -4 11 -10 11 -5 0 -10 -2 -10 -4z"/>
<path d="M2065 2439 c-4 -6 2 -13 14 -16 11 -3 18 -10 14 -16 -3 -6 -1 -7 6
-3 14 9 5 26 -15 26 -8 0 -12 5 -9 10 3 6 4 10 1 10 -3 0 -8 -5 -11 -11z"/>
<path d="M2074 2362 c3 -6 2 -13 -3 -16 -9 -6 -10 -23 0 -41 3 -5 4 -19 4 -31
-2 -23 30 -50 40 -34 4 6 1 9 -6 8 -8 -2 -14 8 -14 25 -1 16 -5 31 -11 35 -11
8 -12 22 -1 39 4 6 2 15 -4 19 -7 4 -9 3 -5 -4z"/>
<path d="M2080 2227 c0 -2 6 -10 14 -16 11 -9 16 -9 22 1 4 7 4 10 -1 6 -4 -4
-14 -3 -22 3 -7 6 -13 9 -13 6z"/>
<path d="M2126 2201 c-3 -4 6 -7 19 -7 14 0 22 2 19 5 -8 8 -34 10 -38 2z"/>
<path d="M3855 2839 c-105 -43 -119 -56 -123 -118 -2 -28 1 -51 5 -52 4 -1 19
-2 33 -3 14 -2 34 -7 45 -12 11 -6 27 -10 35 -9 8 0 18 -3 21 -7 3 -5 14 1 25
13 10 13 14 19 8 16 -7 -4 -18 1 -25 11 -11 14 -11 15 1 5 10 -9 17 -10 27 -2
7 7 13 8 13 5 0 -4 7 0 16 9 13 13 19 13 31 3 13 -10 19 -8 36 12 11 14 18 18
14 8 -5 -15 5 -25 27 -26 5 0 13 -6 17 -14 7 -10 9 -10 9 0 0 6 4 12 10 12 5
0 8 -6 6 -12 -1 -7 -1 -10 1 -5 8 14 25 7 19 -8 -8 -22 2 -18 15 6 6 12 7 19
2 16 -5 -3 -9 3 -9 14 0 30 18 5 22 -32 2 -18 7 -35 10 -38 4 -3 5 4 2 16 -4
15 0 23 11 26 14 3 17 -2 14 -27 -1 -17 0 -23 3 -13 8 26 19 21 20 -11 1 -15
3 -34 5 -42 2 -8 -1 -14 -8 -15 -6 0 -15 -4 -20 -8 -4 -5 -3 -8 2 -7 24 5 35
-1 32 -20 -2 -11 -5 -21 -8 -23 -2 -3 -56 -7 -119 -11 -131 -6 -155 -10 -213
-33 -121 -48 -173 -114 -176 -228 -1 -23 -4 -27 -11 -15 -15 23 -12 7 5 -27 8
-16 16 -42 17 -57 1 -14 7 -26 13 -26 5 0 3 -5 -5 -10 -11 -7 -12 -10 -2 -10
7 0 20 -7 28 -15 18 -18 4 -20 -16 -2 -12 10 -12 9 -1 -5 7 -10 17 -18 22 -18
5 0 28 -12 52 -27 l42 -26 -30 -14 -30 -14 30 5 c17 2 39 7 50 11 14 5 13 2
-5 -9 l-25 -16 35 5 c19 3 30 2 24 -2 -6 -5 -11 -16 -11 -26 0 -9 3 -15 5 -12
3 3 12 -1 21 -7 13 -10 13 -9 -1 7 -16 19 -16 21 6 31 17 8 23 8 23 -2 0 -7
-4 -11 -9 -8 -4 3 -8 0 -8 -6 0 -7 7 -9 16 -6 9 3 17 6 20 6 2 0 1 8 -2 18 -5
14 -4 15 5 2 10 -13 12 -13 21 0 6 10 10 11 10 3 0 -25 -1 -28 -14 -25 -7 1
-18 -4 -24 -11 -9 -11 -5 -13 18 -13 16 0 27 3 24 8 -3 4 4 8 16 8 12 0 19 -4
16 -8 -2 -4 6 -8 19 -8 13 0 22 3 19 7 -2 4 0 11 6 14 8 5 7 12 -2 22 -12 15
-11 15 9 3 16 -10 19 -18 12 -26 -7 -8 -6 -15 2 -20 8 -4 9 -3 5 4 -4 6 2 17
14 24 11 7 20 17 20 22 0 4 -7 2 -17 -5 -15 -13 -15 -12 -2 8 l14 23 13 -25
c14 -27 25 -34 16 -10 -4 10 -2 13 8 10 8 -3 20 0 26 8 9 11 8 14 -3 14 -8 0
-12 -4 -9 -9 3 -4 1 -8 -5 -8 -5 0 -9 9 -8 19 1 11 6 17 12 13 5 -4 15 -7 20
-7 6 0 9 -12 7 -25 -1 -18 1 -21 7 -11 5 7 11 9 13 5 3 -5 3 -2 0 6 -9 30 -7
43 8 47 13 4 13 3 0 -6 -20 -14 -10 -21 37 -25 22 -2 45 -6 51 -10 6 -3 13 -2
17 4 4 6 10 8 15 5 12 -8 33 33 24 47 -4 7 -3 8 4 4 7 -4 12 -3 12 3 0 5 -6
12 -12 14 -7 3 3 4 22 1 27 -3 31 -2 15 5 -14 7 -15 10 -5 10 13 1 13 2 0 11
-13 8 -13 10 -1 10 13 0 13 2 0 13 -22 18 -47 53 -31 43 8 -5 12 0 12 14 0 14
-4 19 -12 14 -10 -6 -10 -5 -1 7 10 12 10 18 0 28 -9 10 -8 11 6 5 10 -3 16
-12 14 -19 -3 -6 0 -12 7 -12 6 0 12 8 12 18 0 10 -3 16 -6 14 -3 -1 -11 3
-18 11 -7 8 -9 14 -5 14 4 0 1 5 -7 10 -10 7 -11 10 -2 10 7 0 15 -7 18 -15 4
-8 11 -15 16 -15 6 0 5 7 -3 16 -10 13 -10 17 1 24 8 5 18 6 24 3 5 -3 6 -1 2
5 -4 6 -14 8 -24 5 -15 -6 -15 -5 -3 10 7 9 10 17 5 17 -5 0 -2 5 6 10 13 8
12 10 -3 10 -12 0 -17 6 -15 18 2 9 10 16 18 14 11 -3 11 0 1 12 -8 10 -9 16
-1 21 5 3 10 12 9 18 0 9 -2 8 -6 -1 -2 -6 -9 -10 -13 -7 -5 3 -7 -3 -5 -13 2
-12 -3 -18 -16 -18 -12 0 -15 4 -9 10 15 15 12 39 -2 30 -9 -5 -9 -2 1 9 11
14 11 20 0 35 -13 15 -12 16 4 3 10 -8 16 -20 13 -27 -3 -8 0 -11 9 -8 12 5
12 10 -2 30 -9 14 -13 27 -9 31 3 3 1 12 -5 20 -6 7 -8 13 -3 13 5 0 2 5 -6
10 -12 8 -11 10 5 8 11 -2 21 1 22 6 1 5 7 13 15 17 9 6 9 9 1 9 -6 0 -15 -4
-18 -10 -3 -5 -11 -10 -18 -10 -8 0 -8 3 1 12 16 16 15 33 -1 20 -10 -8 -12
-5 -11 16 0 15 -4 31 -10 35 -7 5 -3 7 8 5 15 -2 20 3 21 24 1 20 -2 25 -14
20 -10 -4 -11 -7 -3 -10 7 -2 10 -8 6 -13 -9 -15 -22 -10 -20 9 2 9 -2 21 -8
25 -7 6 -4 7 7 3 9 -3 17 -1 17 4 0 6 -7 10 -16 10 -8 0 -13 4 -10 9 3 5 -1
12 -10 15 -11 4 -14 13 -10 30 3 14 2 28 -4 31 -6 3 -7 -1 -4 -9 4 -9 1 -16
-6 -16 -6 0 -14 9 -17 20 -3 11 -9 17 -14 14 -5 -3 -9 -1 -9 4 0 10 -45 33
-74 39 -11 2 -24 7 -30 12 -6 5 -63 9 -126 8 -103 0 -123 -3 -185 -28z m190
-110 c-4 -5 1 -12 9 -15 21 -8 20 -23 -1 -20 -11 2 -18 13 -18 29 -1 14 2 24
7 21 4 -3 6 -10 3 -15z m-140 -18 c3 -5 2 -12 -3 -15 -5 -3 -9 1 -9 9 0 17 3
19 12 6z m200 -11 c3 -5 2 -10 -4 -10 -5 0 -13 5 -16 10 -3 6 -2 10 4 10 5 0
13 -4 16 -10z m-261 -31 c7 6 18 4 29 -4 17 -12 16 -13 -12 -11 -17 1 -36 8
-41 14 -7 9 -7 9 2 2 7 -6 16 -6 22 -1z m286 -306 c0 4 11 0 25 -9 23 -15 25
-15 25 2 0 25 8 14 14 -20 3 -16 7 -31 10 -34 3 -2 1 -14 -5 -25 -7 -13 -8
-17 -1 -13 15 9 9 -39 -7 -58 -7 -9 -17 -13 -22 -10 -5 3 -7 -1 -4 -8 5 -14
-63 -68 -93 -73 -9 -2 -17 -4 -17 -5 0 -1 -21 -4 -46 -6 -50 -5 -104 10 -94
25 3 5 1 12 -4 16 -5 3 -8 14 -6 24 2 10 -1 24 -6 32 -6 10 -2 19 12 29 20 15
20 16 0 16 -11 0 -19 -3 -18 -6 1 -3 -2 -7 -8 -8 -5 -2 -16 -8 -22 -14 -7 -6
-13 -7 -12 -2 0 5 14 20 32 34 17 14 27 19 23 11 -6 -9 -5 -12 1 -8 6 4 9 18
8 32 -2 14 1 27 5 30 5 3 7 -3 5 -14 -3 -15 0 -18 13 -14 15 6 16 5 2 -13 -14
-18 -14 -18 2 -5 10 7 15 18 11 24 -4 6 0 8 11 4 11 -4 15 -3 11 4 -4 6 -14 8
-24 4 -13 -5 -14 -4 -3 7 9 9 17 10 31 1 14 -9 18 -8 18 3 0 7 -4 11 -8 8 -4
-2 -11 1 -15 8 -4 7 -4 10 1 6 4 -4 14 0 22 10 8 9 12 12 9 5 -3 -6 -2 -22 4
-35 l10 -23 -3 25 c-2 20 2 24 17 22 16 -3 18 -1 8 10 -9 11 -6 14 13 14 19 0
22 -3 13 -13 -13 -17 4 -17 22 0 12 10 12 9 2 -5 -9 -11 -10 -18 -2 -23 6 -3
8 -10 5 -15 -3 -5 0 -12 6 -16 7 -4 9 -3 5 4 -3 6 5 19 19 30 14 11 21 23 16
26 -6 4 -15 -3 -21 -14 -6 -11 -16 -18 -22 -14 -7 4 -5 10 5 16 10 5 14 16 11
26 -5 14 -4 15 5 2 6 -8 11 -12 11 -7z m260 -42 c7 -14 7 -22 0 -26 -6 -4 -8
-11 -5 -16 4 -5 1 -9 -5 -9 -7 0 -10 7 -6 15 3 8 0 15 -7 15 -8 0 -7 4 3 10
13 9 13 11 0 20 -9 6 -11 10 -3 10 7 0 17 -9 23 -19z m-499 -121 c1 -5 2 -18
3 -27 1 -10 5 -24 9 -30 5 -8 4 -13 -2 -13 -10 0 -15 14 -8 24 1 2 -6 13 -16
23 -9 11 -14 23 -10 26 10 10 23 8 24 -3z m496 -115 c0 -8 -4 -15 -9 -15 -4 0
-8 7 -8 15 0 8 4 15 8 15 5 0 9 -7 9 -15z m-178 -38 c8 -10 7 -14 -2 -14 -8 0
-14 6 -14 14 0 7 1 13 2 13 2 0 8 -6 14 -13z m-72 -59 c-3 -8 -6 -5 -6 6 -1
11 2 17 5 13 3 -3 4 -12 1 -19z m-42 -8 c-3 -5 -12 -10 -18 -10 -7 0 -6 4 3
10 19 12 23 12 15 0z m-50 -50 c-11 -17 -23 -1 -18 21 5 19 7 19 15 5 5 -9 6
-21 3 -26z"/>
<path d="M4030 2325 c5 -7 9 -14 7 -16 -1 -2 3 2 9 9 8 9 14 10 17 2 3 -6 5
-6 3 1 -1 7 -12 13 -24 14 -16 1 -19 -2 -12 -10z"/>
<path d="M4138 2322 c-7 -9 -8 -14 -4 -10 5 4 15 0 23 -10 13 -15 13 -15 3 6
-7 15 -7 22 0 22 5 0 10 -4 10 -10 0 -5 4 -10 8 -10 5 0 9 6 9 13 0 19 -34 18
-49 -1z"/>
<path d="M3996 2278 c3 -5 10 -6 15 -3 13 9 11 12 -6 12 -8 0 -12 -4 -9 -9z"/>
<path d="M3941 2126 c14 -15 20 -16 35 -6 18 11 18 11 0 6 -10 -4 -26 -1 -35
6 -14 11 -14 10 0 -6z"/>
<path d="M4803 2835 c-10 -10 -9 -14 3 -19 9 -3 12 -11 8 -17 -4 -8 -3 -9 5
-5 6 4 9 12 6 17 -4 5 1 12 9 15 9 3 16 9 16 13 0 12 -35 9 -47 -4z"/>
<path d="M3080 2836 c0 -2 7 -7 16 -10 8 -3 12 -2 9 4 -6 10 -25 14 -25 6z"/>
<path d="M5270 2789 c0 -5 5 -7 10 -4 6 3 10 8 10 11 0 2 -4 4 -10 4 -5 0 -10
-5 -10 -11z"/>
<path d="M1175 2780 c-3 -5 -1 -10 4 -10 6 0 11 5 11 10 0 6 -2 10 -4 10 -3 0
-8 -4 -11 -10z"/>
<path d="M3110 2780 c0 -5 5 -10 11 -10 5 0 7 5 4 10 -3 6 -8 10 -11 10 -2 0
-4 -4 -4 -10z"/>
<path d="M3070 2762 c0 -4 9 -8 19 -8 11 0 17 4 15 8 -3 4 -12 8 -20 8 -8 0
-14 -4 -14 -8z"/>
<path d="M5327 2739 c7 -7 15 -10 18 -7 3 3 -2 9 -12 12 -14 6 -15 5 -6 -5z"/>
<path d="M2617 2729 c7 -7 15 -10 18 -7 3 3 -2 9 -12 12 -14 6 -15 5 -6 -5z"/>
<path d="M2655 2700 c3 -5 8 -10 11 -10 2 0 4 5 4 10 0 6 -5 10 -11 10 -5 0
-7 -4 -4 -10z"/>
<path d="M3085 2677 c1 -11 8 -23 16 -25 11 -3 11 -1 -1 7 -10 7 -11 11 -2 11
16 0 16 17 -1 23 -9 3 -13 -2 -12 -16z"/>
<path d="M3940 2685 c-7 -8 -17 -12 -23 -8 -6 3 -7 1 -3 -6 4 -6 4 -18 -1 -24
-4 -7 -1 -5 9 5 9 10 18 15 21 11 2 -5 2 -3 1 4 -5 20 14 25 19 6 4 -16 5 -16
6 -1 1 24 -14 31 -29 13z"/>
<path d="M3990 2679 c-7 -11 -9 -23 -7 -26 3 -2 8 5 12 18 6 17 9 19 16 8 6
-9 9 -10 9 -2 0 22 -19 24 -30 2z"/>
<path d="M3504 2679 c1 -7 12 -16 25 -20 14 -6 20 -5 16 1 -3 6 -12 10 -20 10
-7 0 -16 5 -18 10 -3 6 -4 5 -3 -1z"/>
<path d="M2666 2648 c3 -5 10 -6 15 -3 13 9 11 12 -6 12 -8 0 -12 -4 -9 -9z"/>
<path d="M3752 2647 c-8 -10 -6 -13 7 -13 11 0 17 6 14 13 -3 7 -6 13 -8 13
-1 0 -7 -6 -13 -13z"/>
<path d="M5374 2649 c1 -7 10 -13 19 -15 9 -1 15 2 11 7 -3 5 -9 7 -14 4 -4
-3 -11 0 -13 5 -3 6 -4 5 -3 -1z"/>
<path d="M3799 2648 c-6 -25 -6 -38 1 -38 12 0 20 29 10 35 -6 4 -10 5 -11 3z"/>
<path d="M2675 2620 c3 -5 8 -10 11 -10 2 0 4 5 4 10 0 6 -5 10 -11 10 -5 0
-7 -4 -4 -10z"/>
<path d="M3830 2622 c0 -4 9 -8 19 -8 11 0 17 4 15 8 -3 4 -12 8 -20 8 -8 0
-14 -4 -14 -8z"/>
<path d="M4381 2621 c-7 -5 -9 -11 -5 -14 5 -3 15 1 22 9 14 16 5 18 -17 5z"/>
<path d="M5386 2595 c-18 -14 -18 -14 1 -12 11 0 20 7 20 14 0 7 -1 13 -1 13
-1 0 -9 -7 -20 -15z"/>
<path d="M4600 2575 c-7 -9 -11 -17 -9 -20 3 -2 10 5 17 15 14 24 10 26 -8 5z"/>
<path d="M2710 2576 c0 -2 8 -10 18 -17 15 -13 16 -12 3 4 -13 16 -21 21 -21
13z"/>
<path d="M5386 2561 c-3 -5 2 -15 12 -22 15 -12 16 -12 5 2 -7 9 -10 19 -6 22
3 4 4 7 0 7 -3 0 -8 -4 -11 -9z"/>
<path d="M5410 2560 c0 -5 5 -10 11 -10 5 0 7 5 4 10 -3 6 -8 10 -11 10 -2 0
-4 -4 -4 -10z"/>
<path d="M1114 2522 c4 -7 2 -12 -3 -12 -16 0 -13 -12 9 -40 15 -18 18 -20 13
-6 -5 15 -3 17 8 11 8 -5 11 -5 6 1 -5 5 -13 10 -18 10 -5 1 -12 2 -15 3 -4 0
-1 7 5 15 9 11 9 16 0 22 -8 4 -9 3 -5 -4z"/>
<path d="M4177 2519 c7 -7 15 -10 18 -7 3 3 -2 9 -12 12 -14 6 -15 5 -6 -5z"/>
<path d="M4388 2508 c5 -5 16 -8 23 -6 8 3 3 7 -10 11 -17 4 -21 3 -13 -5z"/>
<path d="M3070 2478 c0 -11 12 -10 30 2 12 7 10 9 -8 7 -12 0 -22 -5 -22 -9z"/>
<path d="M2710 2460 c11 -7 12 -10 2 -10 -8 0 -12 -5 -10 -11 6 -19 21 -14 24
9 3 16 -1 22 -14 22 -14 0 -15 -2 -2 -10z"/>
<path d="M4410 2460 c0 -5 5 -10 11 -10 5 0 7 5 4 10 -3 6 -8 10 -11 10 -2 0
-4 -4 -4 -10z"/>
<path d="M3105 2420 c-3 -6 1 -7 9 -4 18 7 21 14 7 14 -6 0 -13 -4 -16 -10z"/>
<path d="M2730 2401 c0 -11 4 -22 9 -25 4 -3 6 6 3 19 -5 30 -12 33 -12 6z"/>
<path d="M5390 2398 c0 -11 12 -10 30 2 12 7 10 9 -8 7 -12 0 -22 -5 -22 -9z"/>
<path d="M5428 2383 c7 -3 16 -2 19 1 4 3 -2 6 -13 5 -11 0 -14 -3 -6 -6z"/>
<path d="M2706 2354 c-5 -13 -4 -14 7 -6 8 7 18 8 22 4 5 -4 5 -1 1 6 -10 17
-23 15 -30 -4z"/>
<path d="M5433 2355 c0 -8 4 -12 9 -9 5 3 6 10 3 15 -9 13 -12 11 -12 -6z"/>
<path d="M3080 2356 c0 -2 7 -7 16 -10 8 -3 12 -2 9 4 -6 10 -25 14 -25 6z"/>
<path d="M1139 2338 c-7 -24 -5 -40 7 -45 8 -3 11 -9 8 -14 -3 -5 0 -9 5 -9
16 0 13 20 -3 26 -8 3 -13 14 -11 25 2 10 2 19 -1 19 -2 0 -4 -1 -5 -2z"/>
<path d="M3110 2300 c0 -5 5 -10 11 -10 5 0 7 5 4 10 -3 6 -8 10 -11 10 -2 0
-4 -4 -4 -10z"/>
<path d="M3070 2282 c0 -4 9 -8 19 -8 11 0 17 4 15 8 -3 4 -12 8 -20 8 -8 0
-14 -4 -14 -8z"/>
<path d="M5383 2255 c0 -8 4 -12 9 -9 5 3 6 10 3 15 -9 13 -12 11 -12 -6z"/>
<path d="M5406 2243 c-6 -14 -5 -15 5 -6 7 7 10 15 7 18 -3 3 -9 -2 -12 -12z"/>
<path d="M3087 2204 c3 -7 9 -14 14 -14 14 0 10 17 -5 23 -10 4 -13 1 -9 -9z"/>
<path d="M1893 2185 c0 -8 4 -12 9 -9 5 3 6 10 3 15 -9 13 -12 11 -12 -6z"/>
<path d="M4402 2156 c7 -8 15 -12 17 -11 5 6 -10 25 -20 25 -5 0 -4 -6 3 -14z"/>
<path d="M1913 2145 c0 -8 4 -12 9 -9 5 3 6 10 3 15 -9 13 -12 11 -12 -6z"/>
<path d="M4386 2142 c-7 -11 6 -26 24 -30 12 -2 11 1 -2 11 -10 8 -15 17 -11
20 3 4 4 7 0 7 -3 0 -8 -4 -11 -8z"/>
<path d="M5375 2119 c-4 -6 -5 -12 -2 -15 2 -3 7 2 10 11 7 17 1 20 -8 4z"/>
<path d="M4600 2095 c-7 -9 -11 -17 -9 -20 3 -2 10 5 17 15 14 24 10 26 -8 5z"/>
<path d="M5330 2094 c-14 -8 -17 -13 -8 -10 10 3 20 1 23 -4 4 -6 12 -10 18
-10 8 0 7 3 -2 9 -7 5 -10 14 -7 20 9 14 6 14 -24 -5z"/>
<path d="M1943 2078 c1 -15 6 -23 11 -18 4 4 4 16 -2 26 -9 16 -10 14 -9 -8z"/>
<path d="M3116 2073 c-6 -14 -5 -15 5 -6 7 7 10 15 7 18 -3 3 -9 -2 -12 -12z"/>
<path d="M3084 2072 c4 -7 3 -18 -3 -25 -7 -9 -5 -16 9 -25 12 -7 21 -8 25 -2
4 6 1 9 -7 8 -8 -2 -13 6 -13 19 0 11 -4 25 -9 30 -5 5 -6 3 -2 -5z"/>
<path d="M3500 2055 c-6 -8 -9 -19 -5 -25 4 -6 1 -17 -5 -25 -10 -12 -9 -15 4
-15 10 0 14 5 11 10 -3 6 -1 11 4 11 26 3 30 4 36 11 4 3 -1 5 -12 4 -27 -5
-34 3 -23 25 13 23 7 25 -10 4z"/>
<path d="M2567 2046 c-3 -8 0 -21 6 -31 11 -14 13 -13 15 9 2 28 -13 44 -21
22z"/>
<path d="M3735 2032 c4 -4 11 -8 16 -8 22 -3 23 -5 9 -15 -12 -8 -10 -9 9 -4
14 4 21 3 18 -2 -4 -5 0 -10 8 -10 23 0 17 13 -12 27 -32 15 -58 22 -48 12z"/>
<path d="M4385 2030 c-3 -5 -3 -10 0 -10 9 0 -35 -45 -46 -46 -5 -1 -10 -2
-11 -4 -10 -7 -38 -7 -38 1 0 5 -5 9 -11 9 -5 0 -7 -4 -4 -10 3 -5 2 -10 -4
-10 -5 0 -13 5 -16 10 -3 6 -12 10 -18 10 -7 0 -4 -5 6 -11 9 -6 15 -15 11
-21 -4 -6 1 -6 14 1 12 7 23 7 26 2 4 -5 0 -11 -6 -14 -7 -2 1 -4 17 -4 17 0
24 2 17 4 -6 3 -10 9 -7 13 3 5 12 7 20 4 8 -4 12 -10 9 -15 -3 -5 3 -6 12 -2
11 4 13 8 6 11 -17 5 -15 18 3 20 8 1 21 3 28 4 8 1 14 7 14 15 0 9 -4 10 -11
3 -5 -5 -15 -10 -20 -10 -6 1 0 10 13 20 13 11 18 20 12 20 -7 0 -9 5 -6 10 3
6 4 10 1 10 -3 0 -8 -4 -11 -10z"/>
<path d="M1675 2000 c-19 -21 -19 -26 1 -34 8 -3 13 -2 10 2 -5 8 23 38 36 37
3 0 9 2 12 6 3 3 -6 5 -20 5 -13 0 -31 -7 -39 -16z m25 6 c0 -2 -8 -10 -17
-17 -16 -13 -17 -12 -4 4 13 16 21 21 21 13z"/>
<path d="M1170 2001 c0 -5 7 -12 16 -15 14 -5 15 -4 4 9 -14 17 -20 19 -20 6z"/>
<path d="M4857 1993 c-4 -3 -2 -14 4 -25 9 -16 13 -17 25 -7 13 10 17 10 24 0
6 -11 9 -11 13 0 4 10 6 9 6 -3 1 -9 -2 -18 -6 -21 -5 -2 -2 -2 6 0 7 2 19 -1
26 -7 9 -8 14 -6 18 4 4 10 1 13 -8 10 -7 -3 -19 4 -25 16 -6 12 -14 19 -17
16 -3 -3 -18 1 -33 9 -15 8 -30 12 -33 8z m33 -18 c0 -12 -19 -12 -23 0 -4 9
-1 12 9 8 7 -3 14 -7 14 -8z"/>
<path d="M1613 1969 c-2 -20 5 -23 24 -11 9 6 8 11 -5 19 -15 9 -18 7 -19 -8z"/>
<path d="M2075 1981 c-7 -12 12 -24 25 -16 6 3 10 -1 10 -10 0 -10 -5 -13 -12
-9 -7 5 -8 3 -3 -6 6 -10 11 -9 22 5 15 21 0 37 -25 27 -10 -3 -13 -1 -8 6 4
7 5 12 2 12 -3 0 -7 -4 -11 -9z"/>
<path d="M4780 1980 c0 -6 5 -10 11 -10 5 0 7 -5 3 -12 -4 -7 -3 -8 4 -4 16
10 15 23 -3 30 -8 3 -15 1 -15 -4z"/>
<path d="M5290 1980 c0 -5 5 -10 11 -10 5 0 7 5 4 10 -3 6 -8 10 -11 10 -2 0
-4 -4 -4 -10z"/>
<path d="M1155 1970 c-3 -6 1 -7 9 -4 18 7 21 14 7 14 -6 0 -13 -4 -16 -10z"/>
<path d="M1194 1964 c-18 -14 -18 -15 3 -5 23 12 40 0 28 -19 -3 -5 -4 -10 -1
-10 3 0 11 10 17 23 6 12 8 19 4 15 -5 -4 -13 -3 -20 2 -8 6 -18 5 -31 -6z"/>
<path d="M3510 1971 c0 -6 4 -13 10 -16 6 -3 7 1 4 9 -7 18 -14 21 -14 7z"/>
<path d="M4675 1970 c6 -10 4 -12 -11 -6 -15 6 -17 5 -6 -5 9 -9 15 -10 23 -2
8 8 7 13 -2 18 -8 6 -10 4 -4 -5z"/>
<path d="M4750 1976 c0 -2 8 -10 18 -17 15 -13 16 -12 3 4 -13 16 -21 21 -21
13z"/>
<path d="M1562 1958 c-17 -17 -15 -29 6 -26 20 3 33 18 26 30 -7 11 -18 10
-32 -4z m28 -2 c0 -2 -7 -7 -16 -10 -8 -3 -12 -2 -9 4 6 10 25 14 25 6z"/>
<path d="M3330 1959 c0 -5 5 -7 10 -4 6 3 10 8 10 11 0 2 -4 4 -10 4 -5 0 -10
-5 -10 -11z"/>
<path d="M4630 1961 c0 -6 4 -13 10 -16 6 -3 7 1 4 9 -7 18 -14 21 -14 7z"/>
<path d="M4835 1960 c-3 -5 -1 -10 4 -10 6 0 11 5 11 10 0 6 -2 10 -4 10 -3 0
-8 -4 -11 -10z"/>
<path d="M3490 1951 c0 -6 4 -13 10 -16 6 -3 7 1 4 9 -7 18 -14 21 -14 7z"/>
<path d="M1640 1940 c-9 -6 -10 -10 -3 -10 6 0 15 5 18 10 8 12 4 12 -15 0z"/>
<path d="M3350 1946 c0 -2 7 -7 16 -10 8 -3 12 -2 9 4 -6 10 -25 14 -25 6z"/>
<path d="M5226 1938 c3 -5 10 -6 15 -3 13 9 11 12 -6 12 -8 0 -12 -4 -9 -9z"/>
<path d="M2980 1931 c0 -6 4 -13 10 -16 6 -3 7 1 4 9 -7 18 -14 21 -14 7z"/>
<path d="M4110 1930 c-9 -6 -10 -10 -3 -10 6 0 15 5 18 10 8 12 4 12 -15 0z"/>
<path d="M5146 1924 c-23 -23 -20 -30 4 -9 11 10 20 20 20 22 0 7 -9 2 -24
-13z"/>
<path d="M2176 1914 c-5 -14 -4 -15 9 -4 17 14 19 20 6 20 -5 0 -12 -7 -15
-16z"/>
<path d="M2439 1913 c-13 -16 -12 -17 4 -4 9 7 17 15 17 17 0 8 -8 3 -21 -13z"/>
<path d="M3840 1920 c-9 -6 -10 -10 -3 -10 6 0 15 5 18 10 8 12 4 12 -15 0z"/>
</g>
</svg>
