<svg width="24" height="24" viewBox="0 0 24 24" fill="none" xmlns="http://www.w3.org/2000/svg">
<path d="M9.78 8.93335C11.9891 8.93335 13.78 7.14249 13.78 4.93335C13.78 2.72421 11.9891 0.93335 9.78 0.93335C7.57086 0.93335 5.78 2.72421 5.78 4.93335C5.78 7.14249 7.57086 8.93335 9.78 8.93335Z" fill="black"/>
<path d="M10.96 20.6133C10.7397 20.3954 10.596 20.1119 10.5503 19.8055C10.5046 19.499 10.5595 19.1859 10.7067 18.9133L11.06 18.2466L10.3334 18.0266C10.037 17.9339 9.77907 17.747 9.5986 17.4943C9.41812 17.2416 9.325 16.937 9.33337 16.6266V15.2599C9.33281 14.9509 9.43168 14.6499 9.61536 14.4014C9.79904 14.1529 10.0578 13.9701 10.3534 13.8799L11.08 13.6599L10.7334 12.9933C10.5905 12.7243 10.5361 12.4172 10.578 12.1155C10.6199 11.8138 10.7559 11.5331 10.9667 11.3133C10.4538 11.246 9.9373 11.2104 9.42004 11.2066C7.89226 11.1706 6.37536 11.4723 4.97753 12.0899C3.57971 12.7076 2.33541 13.6261 1.33337 14.7799V19.9466C1.33337 20.1234 1.40361 20.293 1.52864 20.418C1.65366 20.543 1.82323 20.6133 2.00004 20.6133H10.96Z" fill="black"/>
<path d="M22.4667 15.04L21.1333 14.64C21.0409 14.3107 20.9112 13.9931 20.7467 13.6933L21.4133 12.4533C21.4391 12.4073 21.4485 12.3539 21.44 12.3019C21.4316 12.2498 21.4057 12.2021 21.3667 12.1667L20.4 11.1933C20.3628 11.1571 20.3153 11.1332 20.264 11.1248C20.2127 11.1165 20.1601 11.1241 20.1133 11.1467L18.88 11.8133C18.5764 11.6484 18.257 11.5144 17.9267 11.4133L17.52 10.08C17.5021 10.0308 17.4694 9.98843 17.4265 9.95858C17.3835 9.92874 17.3323 9.91293 17.28 9.91334H15.8933C15.8414 9.91479 15.7911 9.9322 15.7493 9.96321C15.7076 9.99422 15.6764 10.0373 15.66 10.0867L15.26 11.42C14.9232 11.518 14.5989 11.6544 14.2933 11.8267L13.0867 11.16C13.0398 11.1351 12.9862 11.1255 12.9335 11.1327C12.8809 11.1399 12.8319 11.1634 12.7933 11.2L11.8133 12.16C11.7747 12.1972 11.7493 12.2459 11.7409 12.2989C11.7325 12.3518 11.7415 12.406 11.7667 12.4533L12.4333 13.6667C12.2547 13.9678 12.1094 14.2875 12 14.62L10.6667 15.0267C10.6162 15.0413 10.572 15.072 10.5407 15.1141C10.5094 15.1563 10.4927 15.2075 10.4933 15.26V16.6267C10.4927 16.6792 10.5094 16.7304 10.5407 16.7726C10.572 16.8147 10.6162 16.8454 10.6667 16.86L12 17.2667C12.0999 17.5932 12.234 17.9083 12.4 18.2067L11.7333 19.4733C11.7082 19.5207 11.6991 19.5749 11.7076 19.6278C11.716 19.6807 11.7414 19.7295 11.78 19.7667L12.7733 20.7333C12.8119 20.7699 12.8609 20.7935 12.9135 20.8006C12.9662 20.8078 13.0198 20.7983 13.0667 20.7733L14.3133 20.1067C14.61 20.2662 14.9229 20.3936 15.2467 20.4867L15.6467 21.8533C15.6634 21.9037 15.6956 21.9476 15.7387 21.9787C15.7818 22.0098 15.8335 22.0266 15.8867 22.0267H17.2533C17.3053 22.0252 17.3556 22.0078 17.3973 21.9768C17.4391 21.9458 17.4703 21.9027 17.4867 21.8533L17.8867 20.4867C18.2066 20.3948 18.5152 20.2673 18.8067 20.1067L20.0667 20.7733C20.1136 20.7983 20.1671 20.8078 20.2198 20.8006C20.2724 20.7935 20.3215 20.7699 20.36 20.7333L21.3333 19.7667C21.3699 19.7281 21.3935 19.6791 21.4006 19.6265C21.4078 19.5738 21.3983 19.5203 21.3733 19.4733L20.7067 18.22C20.8661 17.9279 20.9936 17.6195 21.0867 17.3L22.42 16.8933C22.4701 16.8772 22.5141 16.8463 22.5463 16.8046C22.5784 16.763 22.5971 16.7125 22.6 16.66V15.28C22.6016 15.2317 22.5901 15.1838 22.5666 15.1415C22.5431 15.0993 22.5086 15.0642 22.4667 15.04ZM16.58 18.1867C16.1393 18.188 15.7082 18.0585 15.3411 17.8147C14.9741 17.5708 14.6876 17.2235 14.5181 16.8167C14.3485 16.41 14.3035 15.9621 14.3886 15.5297C14.4738 15.0973 14.6853 14.7 14.9965 14.3879C15.3076 14.0758 15.7044 13.8631 16.1365 13.7766C16.5686 13.6902 17.0166 13.7339 17.4239 13.9022C17.8312 14.0705 18.1793 14.3559 18.4243 14.7222C18.6692 15.0886 18.8 15.5193 18.8 15.96C18.8 16.5494 18.5663 17.1148 18.1502 17.5321C17.734 17.9495 17.1694 18.1849 16.58 18.1867Z" fill="black"/>
</svg>
