<svg width="24" height="24" viewBox="0 0 24 24" fill="none" xmlns="http://www.w3.org/2000/svg">
<path d="M16.3636 10.6285C18.1745 10.6285 19.6255 9.19281 19.6255 7.41424C19.6255 5.63567 18.1745 4.19995 16.3636 4.19995C14.5527 4.19995 13.0909 5.63567 13.0909 7.41424C13.0909 9.19281 14.5527 10.6285 16.3636 10.6285ZM7.63636 10.6285C9.44727 10.6285 10.8982 9.19281 10.8982 7.41424C10.8982 5.63567 9.44727 4.19995 7.63636 4.19995C5.82545 4.19995 4.36364 5.63567 4.36364 7.41424C4.36364 9.19281 5.82545 10.6285 7.63636 10.6285ZM7.63636 12.7714C5.09455 12.7714 0 14.025 0 16.5214V18.1285C0 18.7178 0.490909 19.2 1.09091 19.2H14.1818C14.7818 19.2 15.2727 18.7178 15.2727 18.1285V16.5214C15.2727 14.025 10.1782 12.7714 7.63636 12.7714ZM16.3636 12.7714C16.0473 12.7714 15.6873 12.7928 15.3055 12.825C15.3273 12.8357 15.3382 12.8571 15.3491 12.8678C16.5927 13.7571 17.4545 14.9464 17.4545 16.5214V18.1285C17.4545 18.5035 17.3782 18.8678 17.2582 19.2H22.9091C23.5091 19.2 24 18.7178 24 18.1285V16.5214C24 14.025 18.9055 12.7714 16.3636 12.7714Z" fill="black"/>
</svg>
