<svg width="24" height="24" viewBox="0 0 24 24" fill="none" xmlns="http://www.w3.org/2000/svg">
<path d="M11.7771 21C9.99927 21 8.49195 20.504 7.25517 19.512C6.01839 18.52 5.4 17.311 5.4 15.885V6.12002C5.4 5.09702 5.85413 4.22127 6.76239 3.49277C7.67065 2.76427 8.7625 2.40002 10.0379 2.40002C11.3134 2.40002 12.4052 2.76427 13.3135 3.49277C14.2217 4.22127 14.6758 5.09702 14.6758 6.12002V14.955C14.6758 15.606 14.3956 16.1563 13.8352 16.6058C13.2748 17.0553 12.5888 17.28 11.7771 17.28C10.9655 17.28 10.2795 17.0553 9.71907 16.6058C9.15865 16.1563 8.87844 15.606 8.87844 14.955V6.12002H10.6177V14.955C10.6177 15.2185 10.729 15.4392 10.9516 15.6172C11.1734 15.7957 11.4486 15.885 11.7771 15.885C12.1057 15.885 12.3812 15.7957 12.6039 15.6172C12.8257 15.4392 12.9366 15.2185 12.9366 14.955V6.12002C12.9366 5.46902 12.6564 4.91877 12.096 4.46927C11.5356 4.01977 10.8496 3.79502 10.0379 3.79502C9.22629 3.79502 8.54026 4.01977 7.97985 4.46927C7.41943 4.91877 7.13922 5.46902 7.13922 6.12002V15.885C7.13922 16.908 7.59335 17.7838 8.50161 18.5123C9.40987 19.2408 10.5017 19.605 11.7771 19.605C13.0526 19.605 14.1444 19.2408 15.0527 18.5123C15.9609 17.7838 16.4151 16.908 16.4151 15.885V6.12002H18.1543V15.885C18.1543 17.311 17.5359 18.52 16.2991 19.512C15.0623 20.504 13.555 21 11.7771 21Z" fill="black"/>
</svg>
