<svg width="24" height="24" viewBox="0 0 24 24" fill="none" xmlns="http://www.w3.org/2000/svg">
<path d="M16.2 19.2H7.95V9.44995L13.2 4.19995L14.1375 5.13745C14.225 5.22495 14.297 5.3437 14.3535 5.4937C14.4095 5.6437 14.4375 5.78745 14.4375 5.92495V6.18745L13.6125 9.44995H18.45C18.85 9.44995 19.2 9.59995 19.5 9.89995C19.8 10.2 19.95 10.55 19.95 10.95V12.45C19.95 12.5375 19.9375 12.6312 19.9125 12.7312C19.8875 12.8312 19.8625 12.925 19.8375 13.0125L17.5875 18.3C17.475 18.55 17.2875 18.7625 17.025 18.9375C16.7625 19.1125 16.4875 19.2 16.2 19.2ZM9.45 17.7H16.2L18.45 12.45V10.95H11.7L12.7125 6.82495L9.45 10.0875V17.7ZM7.95 9.44995V10.95H5.7V17.7H7.95V19.2H4.2V9.44995H7.95Z" fill="black"/>
</svg>
