<svg width="24" height="24" viewBox="0 0 24 24" fill="none" xmlns="http://www.w3.org/2000/svg">
<path d="M13.2056 5.72603C12.9227 6.10815 12.4755 6.33356 12 6.33356C11.5254 6.33356 11.0788 6.10893 10.7959 5.72801M13.2056 5.72603L10.7939 5.72538C10.7946 5.72626 10.7952 5.72714 10.7959 5.72801M13.2056 5.72603L13.2054 5.7263L13.2196 5.70776C13.2339 5.6892 13.2577 5.65861 13.2906 5.61771C13.3565 5.53579 13.4581 5.41335 13.5913 5.26392C13.8594 4.96311 14.2465 4.5634 14.72 4.16725C15.7106 3.33856 16.8704 2.69995 18 2.69995C20.486 2.69995 22.5 4.71359 22.5 7.1954C22.5 8.31695 22.2846 10.3058 20.8805 12.7643C19.4886 15.2016 16.8832 18.1794 12 21.2415C7.11676 18.1794 4.51144 15.2016 3.1195 12.7643C1.71545 10.3058 1.5 8.31695 1.5 7.1954C1.5 4.71359 3.51403 2.69995 6 2.69995M13.2056 5.72603L6 2.69995M10.7959 5.72801C10.7956 5.72768 10.7952 5.7271 10.7946 5.7263M10.7959 5.72801L10.7946 5.7263M6 2.69995C7.12965 2.69995 8.28941 3.33856 9.27997 4.16725M6 2.69995L9.27997 4.16725M9.27997 4.16725C9.75351 4.5634 10.1406 4.96311 10.4087 5.26392M9.27997 4.16725L10.4087 5.26392M10.4087 5.26392C10.5419 5.41335 10.6435 5.53579 10.7094 5.61771M10.4087 5.26392L10.7094 5.61771M10.7094 5.61771C10.7423 5.65861 10.7661 5.6892 10.7804 5.70776M10.7094 5.61771L10.7804 5.70776M10.7804 5.70776L10.7946 5.7263M10.7804 5.70776L10.7946 5.7263" stroke="black" stroke-width="3" stroke-linecap="round" stroke-linejoin="round"/>
</svg>
