<svg width="24" height="24" viewBox="0 0 24 24" fill="none" xmlns="http://www.w3.org/2000/svg">
<path d="M3 18.9074V5.25744C3 4.87244 3.1575 4.57914 3.4725 4.37754C3.7875 4.17664 4.12 4.14619 4.47 4.28619L20.64 11.1112C21.0775 11.3037 21.2962 11.6274 21.2962 12.0824C21.2962 12.5374 21.0775 12.8612 20.64 13.0537L4.47 19.8787C4.12 20.0187 3.7875 19.9879 3.4725 19.7863C3.1575 19.5854 3 19.2924 3 18.9074ZM5.1 17.3324L17.5425 12.0824L5.1 6.83244V10.5074L11.4 12.0824L5.1 13.6574V17.3324ZM5.1 12.0824V6.83244V17.3324V12.0824Z" fill="black"/>
</svg>
