<svg width="24" height="24" viewBox="0 0 24 24" fill="none" xmlns="http://www.w3.org/2000/svg">
<path d="M11.7 16.2C12.257 16.2 12.7911 16.4212 13.185 16.8151C13.5788 17.2089 13.8 17.743 13.8 18.3C13.8 18.8569 13.5788 19.3911 13.185 19.7849C12.7911 20.1787 12.257 20.4 11.7 20.4C11.1431 20.4 10.6089 20.1787 10.2151 19.7849C9.82129 19.3911 9.60004 18.8569 9.60004 18.3C9.60004 17.743 9.82129 17.2089 10.2151 16.8151C10.6089 16.4212 11.1431 16.2 11.7 16.2ZM11.7 9.89998C12.257 9.89998 12.7911 10.1212 13.185 10.5151C13.5788 10.9089 13.8 11.443 13.8 12C13.8 12.5569 13.5788 13.0911 13.185 13.4849C12.7911 13.8787 12.257 14.1 11.7 14.1C11.1431 14.1 10.6089 13.8787 10.2151 13.4849C9.82129 13.0911 9.60004 12.5569 9.60004 12C9.60004 11.443 9.82129 10.9089 10.2151 10.5151C10.6089 10.1212 11.1431 9.89998 11.7 9.89998ZM11.7 3.59998C12.257 3.59998 12.7911 3.82122 13.185 4.21505C13.5788 4.60888 13.8 5.14302 13.8 5.69998C13.8 6.25693 13.5788 6.79107 13.185 7.1849C12.7911 7.57873 12.257 7.79998 11.7 7.79998C11.1431 7.79998 10.6089 7.57873 10.2151 7.1849C9.82129 6.79107 9.60004 6.25693 9.60004 5.69998C9.60004 5.14302 9.82129 4.60888 10.2151 4.21505C10.6089 3.82122 11.1431 3.59998 11.7 3.59998Z" fill="black"/>
</svg>
