<svg width="24" height="24" viewBox="0 0 24 24" fill="none" xmlns="http://www.w3.org/2000/svg">
<path d="M16.65 19.2C16.025 19.2 15.4937 18.9812 15.0562 18.5437C14.6187 18.1062 14.4 17.575 14.4 16.95C14.4 16.8625 14.4062 16.7717 14.4187 16.6777C14.4312 16.5842 14.45 16.5 14.475 16.425L9.18749 13.35C8.97499 13.5375 8.73749 13.6842 8.47499 13.7902C8.21249 13.8967 7.93749 13.95 7.64999 13.95C7.02499 13.95 6.49374 13.7312 6.05624 13.2937C5.61874 12.8562 5.39999 12.325 5.39999 11.7C5.39999 11.075 5.61874 10.5437 6.05624 10.1062C6.49374 9.6687 7.02499 9.44995 7.64999 9.44995C7.93749 9.44995 8.21249 9.50295 8.47499 9.60895C8.73749 9.71545 8.97499 9.86245 9.18749 10.05L14.475 6.97495C14.45 6.89995 14.4312 6.8157 14.4187 6.7222C14.4062 6.6282 14.4 6.53745 14.4 6.44995C14.4 5.82495 14.6187 5.2937 15.0562 4.8562C15.4937 4.4187 16.025 4.19995 16.65 4.19995C17.275 4.19995 17.8062 4.4187 18.2437 4.8562C18.6812 5.2937 18.9 5.82495 18.9 6.44995C18.9 7.07495 18.6812 7.6062 18.2437 8.0437C17.8062 8.4812 17.275 8.69995 16.65 8.69995C16.3625 8.69995 16.0875 8.6467 15.825 8.5402C15.5625 8.4342 15.325 8.28745 15.1125 8.09995L9.82499 11.175C9.84999 11.25 9.86874 11.3342 9.88124 11.4277C9.89374 11.5217 9.89999 11.6125 9.89999 11.7C9.89999 11.7875 9.89374 11.878 9.88124 11.9715C9.86874 12.0655 9.84999 12.15 9.82499 12.225L15.1125 15.3C15.325 15.1125 15.5625 14.9655 15.825 14.859C16.0875 14.753 16.3625 14.7 16.65 14.7C17.275 14.7 17.8062 14.9187 18.2437 15.3562C18.6812 15.7937 18.9 16.325 18.9 16.95C18.9 17.575 18.6812 18.1062 18.2437 18.5437C17.8062 18.9812 17.275 19.2 16.65 19.2Z" fill="black"/>
</svg>
