<svg width="24" height="24" viewBox="0 0 24 24" fill="none" xmlns="http://www.w3.org/2000/svg">
<path d="M19.7 24C18.6722 24 17.7986 23.65 17.0792 22.95C16.3597 22.25 16 21.4 16 20.4C16 20.26 16.0103 20.1148 16.0308 19.9644C16.0514 19.8148 16.0822 19.68 16.1233 19.56L7.42833 14.64C7.07889 14.94 6.68833 15.1748 6.25666 15.3444C5.825 15.5148 5.37277 15.6 4.9 15.6C3.87222 15.6 2.99861 15.25 2.27916 14.55C1.55972 13.85 1.2 13 1.2 12C1.2 11 1.55972 10.15 2.27916 9.45C2.99861 8.75 3.87222 8.4 4.9 8.4C5.37277 8.4 5.825 8.4848 6.25666 8.6544C6.68833 8.8248 7.07889 9.06 7.42833 9.36L16.1233 4.44C16.0822 4.32 16.0514 4.1852 16.0308 4.0356C16.0103 3.8852 16 3.74 16 3.6C16 2.6 16.3597 1.75 17.0792 1.05C17.7986 0.35 18.6722 0 19.7 0C20.7278 0 21.6014 0.35 22.3208 1.05C23.0403 1.75 23.4 2.6 23.4 3.6C23.4 4.6 23.0403 5.45 22.3208 6.15C21.6014 6.85 20.7278 7.2 19.7 7.2C19.2272 7.2 18.775 7.1148 18.3433 6.9444C17.9117 6.7748 17.5211 6.54 17.1717 6.24L8.47666 11.16C8.51777 11.28 8.54861 11.4148 8.56916 11.5644C8.58972 11.7148 8.6 11.86 8.6 12C8.6 12.14 8.58972 12.2848 8.56916 12.4344C8.54861 12.5848 8.51777 12.72 8.47666 12.84L17.1717 17.76C17.5211 17.46 17.9117 17.2248 18.3433 17.0544C18.775 16.8848 19.2272 16.8 19.7 16.8C20.7278 16.8 21.6014 17.15 22.3208 17.85C23.0403 18.55 23.4 19.4 23.4 20.4C23.4 21.4 23.0403 22.25 22.3208 22.95C21.6014 23.65 20.7278 24 19.7 24ZM19.7 4.8C20.0494 4.8 20.3422 4.6852 20.5781 4.4556C20.8149 4.2252 20.9333 3.94 20.9333 3.6C20.9333 3.26 20.8149 2.9748 20.5781 2.7444C20.3422 2.5148 20.0494 2.4 19.7 2.4C19.3506 2.4 19.0578 2.5148 18.8219 2.7444C18.5851 2.9748 18.4667 3.26 18.4667 3.6C18.4667 3.94 18.5851 4.2252 18.8219 4.4556C19.0578 4.6852 19.3506 4.8 19.7 4.8ZM4.9 13.2C5.24944 13.2 5.54256 13.0848 5.77936 12.8544C6.01534 12.6248 6.13333 12.34 6.13333 12C6.13333 11.66 6.01534 11.3748 5.77936 11.1444C5.54256 10.9148 5.24944 10.8 4.9 10.8C4.55055 10.8 4.25743 10.9148 4.02063 11.1444C3.78465 11.3748 3.66666 11.66 3.66666 12C3.66666 12.34 3.78465 12.6248 4.02063 12.8544C4.25743 13.0848 4.55055 13.2 4.9 13.2ZM19.7 21.6C20.0494 21.6 20.3422 21.4848 20.5781 21.2544C20.8149 21.0248 20.9333 20.74 20.9333 20.4C20.9333 20.06 20.8149 19.7752 20.5781 19.5456C20.3422 19.3152 20.0494 19.2 19.7 19.2C19.3506 19.2 19.0578 19.3152 18.8219 19.5456C18.5851 19.7752 18.4667 20.06 18.4667 20.4C18.4667 20.74 18.5851 21.0248 18.8219 21.2544C19.0578 21.4848 19.3506 21.6 19.7 21.6Z" fill="black"/>
</svg>
