<svg xmlns="http://www.w3.org/2000/svg" xmlns:xlink="http://www.w3.org/1999/xlink" width="142" zoomAndPan="magnify" viewBox="0 0 106.5 82.499998" height="110" preserveAspectRatio="xMidYMid meet" version="1.0"><defs><clipPath id="37d4e13608"><path d="M 12.066406 39.453125 L 33.53125 39.453125 L 33.53125 60.914062 L 12.066406 60.914062 Z M 12.066406 39.453125 " clip-rule="nonzero"/></clipPath><clipPath id="0ba6922bfa"><path d="M 22.796875 39.453125 C 16.871094 39.453125 12.066406 44.257812 12.066406 50.183594 C 12.066406 56.109375 16.871094 60.914062 22.796875 60.914062 C 28.726562 60.914062 33.53125 56.109375 33.53125 50.183594 C 33.53125 44.257812 28.726562 39.453125 22.796875 39.453125 Z M 22.796875 39.453125 " clip-rule="nonzero"/></clipPath><clipPath id="ccbfbc9b2d"><path d="M 0.0742188 37 L 48 37 L 48 62 L 0.0742188 62 Z M 0.0742188 37 " clip-rule="nonzero"/></clipPath><clipPath id="54f1341007"><path d="M 72 48 L 105.929688 48 L 105.929688 82 L 72 82 Z M 72 48 " clip-rule="nonzero"/></clipPath></defs><g clip-path="url(#37d4e13608)"><g clip-path="url(#0ba6922bfa)"><path fill="#ffffff" d="M 12.066406 39.453125 L 33.53125 39.453125 L 33.53125 60.914062 L 12.066406 60.914062 Z M 12.066406 39.453125 " fill-opacity="1" fill-rule="nonzero"/></g></g><path fill="#00748f" d="M 86.300781 44.613281 C 86.464844 44.613281 86.652344 44.613281 86.820312 44.636719 C 84.769531 40.789062 81.390625 37.761719 77.296875 36.199219 C 74.160156 39.261719 69.992188 41.121094 65.425781 41.121094 C 60.859375 41.121094 56.714844 39.261719 53.578125 36.199219 C 51.027344 37.175781 48.765625 38.695312 46.90625 40.632812 C 49.421875 44.238281 50.851562 48.582031 50.851562 53.125 L 50.851562 59.476562 C 50.851562 60.175781 50.738281 60.832031 50.496094 61.429688 L 68.585938 61.429688 C 69.074219 52.0625 76.8125 44.613281 86.300781 44.613281 Z M 86.300781 44.613281 " fill-opacity="1" fill-rule="nonzero"/><path fill="#00748f" d="M 51.625 22.421875 C 51.625 30.660156 57.824219 37.351562 65.4375 37.351562 C 73.054688 37.351562 79.25 30.660156 79.25 22.421875 C 79.25 21.636719 79.226562 20.835938 79.171875 20.050781 C 81.378906 13.542969 80.292969 1.695312 76.066406 3.535156 C 72.410156 5.128906 52.234375 0.0078125 53.445312 8.5 C 48.6875 8.675781 51.171875 17.976562 51.703125 20.007812 C 51.648438 20.816406 51.625 21.625 51.625 22.421875 Z M 55.828125 22.878906 C 56.335938 22.910156 56.757812 22.488281 56.703125 21.992188 C 56.4375 19.773438 56.027344 14.1875 57.96875 14.695312 C 60.40625 15.328125 63.066406 16.039062 65.4375 16.039062 C 67.808594 16.039062 70.449219 15.316406 72.910156 14.695312 C 74.828125 14.1875 74.425781 19.773438 74.160156 21.992188 C 74.09375 22.5 74.527344 22.910156 75.039062 22.878906 L 75.835938 22.808594 C 75.65625 29.007812 71.058594 33.984375 65.425781 33.984375 C 59.796875 33.984375 55.195312 29.007812 55.019531 22.808594 Z M 55.828125 22.878906 " fill-opacity="1" fill-rule="nonzero"/><g clip-path="url(#ccbfbc9b2d)"><path fill="#00748f" d="M 37.980469 37.398438 C 36.21875 37.53125 34.488281 37.609375 32.839844 37.609375 L 32.570312 37.609375 C 29.777344 39.859375 26.621094 41.089844 23.59375 41.089844 C 20.589844 41.089844 17.398438 39.847656 14.617188 37.609375 L 14.339844 37.609375 C 12.6875 37.609375 10.957031 37.53125 9.195312 37.398438 C 3.730469 40.511719 0.0742188 46.375 0.0742188 53.125 L 0.0742188 59.476562 C 0.0742188 60.554688 0.9375 61.429688 2.011719 61.429688 L 45.164062 61.429688 C 46.238281 61.429688 47.105469 60.542969 47.105469 59.476562 L 47.105469 53.125 C 47.09375 46.375 43.433594 40.511719 37.980469 37.398438 Z M 37.980469 37.398438 " fill-opacity="1" fill-rule="nonzero"/></g><path fill="#00748f" d="M 4.460938 33.050781 C 7.675781 33.550781 11.800781 33.972656 15.980469 33.828125 C 18.285156 36.023438 21.042969 37.332031 23.582031 37.332031 C 26.109375 37.332031 28.882812 36.011719 31.1875 33.828125 C 35.367188 33.960938 39.488281 33.550781 42.703125 33.050781 C 43.890625 32.863281 44.109375 31.277344 43.035156 30.734375 C 40.554688 29.460938 38.238281 26.777344 38.238281 21.203125 C 38.238281 3.964844 27.871094 1.828125 23.582031 3.867188 C 19.238281 1.816406 8.929688 3.964844 8.929688 21.203125 C 8.929688 26.777344 6.613281 29.460938 4.128906 30.734375 C 3.054688 31.277344 3.277344 32.863281 4.460938 33.050781 Z M 14.214844 20.007812 C 18.40625 19.75 24.269531 17.589844 27.660156 13.578125 C 28.648438 15.859375 30.542969 17.757812 32.859375 18.71875 C 32.949219 19.71875 32.980469 20.769531 32.980469 21.914062 C 32.980469 28.550781 27.285156 33.9375 23.570312 33.9375 C 19.859375 33.9375 14.160156 28.550781 14.160156 21.914062 C 14.171875 21.257812 14.195312 20.625 14.214844 20.007812 Z M 14.214844 20.007812 " fill-opacity="1" fill-rule="nonzero"/><g clip-path="url(#54f1341007)"><path fill="#00748f" d="M 104.46875 76.515625 L 97.726562 70.320312 C 99.3125 68.058594 100.253906 65.296875 100.253906 62.328125 C 100.253906 54.625 93.992188 48.359375 86.289062 48.359375 C 78.585938 48.359375 72.320312 54.625 72.320312 62.328125 C 72.320312 70.03125 78.585938 76.292969 86.289062 76.292969 C 89.257812 76.292969 92.007812 75.351562 94.28125 73.765625 L 100.476562 80.496094 C 100.53125 80.550781 100.585938 80.605469 100.644531 80.660156 C 101.785156 81.714844 103.570312 81.636719 104.632812 80.496094 C 105.6875 79.351562 105.609375 77.566406 104.46875 76.515625 Z M 76.089844 62.339844 C 76.089844 56.707031 80.667969 52.128906 86.300781 52.128906 C 91.929688 52.128906 96.507812 56.707031 96.507812 62.339844 C 96.507812 67.96875 91.929688 72.546875 86.300781 72.546875 C 80.667969 72.546875 76.089844 67.957031 76.089844 62.339844 Z M 76.089844 62.339844 " fill-opacity="1" fill-rule="nonzero"/></g><path fill="#00748f" d="M 86.300781 55.355469 C 82.453125 55.355469 79.316406 58.480469 79.316406 62.339844 C 79.316406 63.378906 80.160156 64.210938 81.1875 64.210938 C 82.21875 64.210938 83.0625 63.367188 83.0625 62.339844 C 83.0625 60.566406 84.503906 59.113281 86.289062 59.113281 C 87.328125 59.113281 88.160156 58.269531 88.160156 57.238281 C 88.160156 56.207031 87.328125 55.355469 86.300781 55.355469 Z M 86.300781 55.355469 " fill-opacity="1" fill-rule="nonzero"/></svg>