<svg xmlns="http://www.w3.org/2000/svg" xmlns:xlink="http://www.w3.org/1999/xlink" width="110" zoomAndPan="magnify" viewBox="0 0 82.5 99.749997" height="133" preserveAspectRatio="xMidYMid meet" version="1.0"><defs><g/><clipPath id="24565753c4"><path d="M 18 0.175781 L 82 0.175781 L 82 81 L 18 81 Z M 18 0.175781 " clip-rule="nonzero"/></clipPath><clipPath id="27e171114c"><path d="M 0 56 L 43 56 L 43 99.324219 L 0 99.324219 Z M 0 56 " clip-rule="nonzero"/></clipPath></defs><g clip-path="url(#24565753c4)"><path fill="#00748f" d="M 80.855469 21.238281 L 60.578125 0.964844 C 60.089844 0.472656 59.421875 0.195312 58.726562 0.195312 L 21.214844 0.195312 C 19.765625 0.195312 18.59375 1.367188 18.59375 2.816406 L 18.59375 48.503906 C 18.59375 49.949219 19.765625 51.125 21.214844 51.125 C 22.664062 51.125 23.835938 49.949219 23.835938 48.503906 L 23.835938 5.4375 L 54.210938 5.4375 L 54.210938 24.988281 C 54.210938 26.4375 55.382812 27.609375 56.832031 27.609375 L 76.382812 27.609375 L 76.382812 75.257812 L 50.589844 75.257812 C 49.140625 75.257812 47.96875 76.429688 47.96875 77.878906 C 47.96875 79.324219 49.140625 80.5 50.589844 80.5 L 79.003906 80.5 C 80.449219 80.5 81.625 79.324219 81.625 77.878906 L 81.625 23.09375 C 81.625 22.398438 81.347656 21.730469 80.855469 21.238281 Z M 59.453125 7.25 L 74.570312 22.367188 L 59.453125 22.367188 Z M 59.453125 7.25 " fill-opacity="1" fill-rule="nonzero"/></g><path fill="#00748f" d="M 35.199219 42.96875 L 65.015625 42.96875 C 66.460938 42.96875 67.636719 41.792969 67.636719 40.347656 C 67.636719 38.898438 66.460938 37.726562 65.015625 37.726562 L 35.199219 37.726562 C 33.753906 37.726562 32.578125 38.898438 32.578125 40.347656 C 32.578125 41.792969 33.753906 42.96875 35.199219 42.96875 Z M 35.199219 42.96875 " fill-opacity="1" fill-rule="nonzero"/><path fill="#00748f" d="M 35.199219 54.464844 L 65.015625 54.464844 C 66.460938 54.464844 67.636719 53.292969 67.636719 51.84375 C 67.636719 50.398438 66.460938 49.222656 65.015625 49.222656 L 35.199219 49.222656 C 33.753906 49.222656 32.578125 50.398438 32.578125 51.84375 C 32.578125 53.292969 33.753906 54.464844 35.199219 54.464844 Z M 35.199219 54.464844 " fill-opacity="1" fill-rule="nonzero"/><path fill="#00748f" d="M 67.636719 63.34375 C 67.636719 61.898438 66.460938 60.722656 65.015625 60.722656 L 46.714844 60.722656 C 45.269531 60.722656 44.09375 61.898438 44.09375 63.34375 C 44.09375 64.792969 45.269531 65.964844 46.714844 65.964844 L 65.015625 65.964844 C 66.460938 65.964844 67.636719 64.792969 67.636719 63.34375 Z M 67.636719 63.34375 " fill-opacity="1" fill-rule="nonzero"/><g clip-path="url(#27e171114c)"><path fill="#00748f" d="M 21.214844 56.660156 C 9.511719 56.660156 -0.00390625 66.175781 -0.00390625 77.878906 C -0.00390625 89.578125 9.511719 99.097656 21.214844 99.097656 C 32.914062 99.097656 42.433594 89.578125 42.433594 77.878906 C 42.433594 66.175781 32.914062 56.660156 21.214844 56.660156 Z M 21.214844 93.855469 C 12.402344 93.855469 5.238281 86.6875 5.238281 77.878906 C 5.238281 69.066406 12.402344 61.902344 21.214844 61.902344 C 30.023438 61.902344 37.191406 69.066406 37.191406 77.878906 C 37.191406 86.6875 30.023438 93.855469 21.214844 93.855469 Z M 21.214844 93.855469 " fill-opacity="1" fill-rule="nonzero"/></g><path fill="#00748f" d="M 29.089844 75.257812 L 23.835938 75.257812 L 23.835938 70 C 23.835938 68.550781 22.660156 67.378906 21.214844 67.378906 C 19.765625 67.378906 18.59375 68.550781 18.59375 70 L 18.59375 75.257812 L 13.335938 75.257812 C 11.886719 75.257812 10.714844 76.429688 10.714844 77.878906 C 10.714844 79.324219 11.886719 80.5 13.335938 80.5 L 18.59375 80.5 L 18.59375 85.753906 C 18.59375 87.203125 19.765625 88.375 21.214844 88.375 C 22.664062 88.375 23.835938 87.203125 23.835938 85.753906 L 23.835938 80.5 L 29.089844 80.5 C 30.539062 80.5 31.710938 79.324219 31.710938 77.878906 C 31.710938 76.429688 30.539062 75.257812 29.089844 75.257812 Z M 29.089844 75.257812 " fill-opacity="1" fill-rule="nonzero"/><g fill="#00748f" fill-opacity="1"><g transform="translate(26.949511, 26.726122)"><g><path d="M 7.59375 0 L 4.546875 0 L 0.234375 -12.765625 L 2.90625 -12.765625 L 6.015625 -3.25 L 6.234375 -3.25 L 9.28125 -12.765625 L 11.890625 -12.765625 Z M 7.59375 0 "/></g></g></g><g fill="#00748f" fill-opacity="1"><g transform="translate(39.067346, 26.726122)"><g><path d="M 4.1875 -5.609375 L 4.1875 -2.109375 L 10.28125 -2.109375 L 10.28125 0 L 1.65625 0 L 1.65625 -12.765625 L 10.140625 -12.765625 L 10.140625 -10.65625 L 4.1875 -10.65625 L 4.1875 -7.671875 L 9.390625 -7.671875 L 9.390625 -5.609375 Z M 4.1875 -5.609375 "/></g></g></g></svg>