<svg xmlns="http://www.w3.org/2000/svg" xmlns:xlink="http://www.w3.org/1999/xlink" width="130" zoomAndPan="magnify" viewBox="0 0 97.5 121.499994" height="162" preserveAspectRatio="xMidYMid meet" version="1.0"><defs><clipPath id="42df9ff90e"><path d="M 4.492188 0.0625 L 96.269531 0.0625 L 96.269531 94 L 4.492188 94 Z M 4.492188 0.0625 " clip-rule="nonzero"/></clipPath><clipPath id="93a3bfee5b"><path d="M 0 48.671875 L 56.433594 48.671875 L 56.433594 105.105469 L 0 105.105469 Z M 0 48.671875 " clip-rule="nonzero"/></clipPath><clipPath id="0252d5437b"><path d="M 28.214844 48.671875 C 12.632812 48.671875 0 61.304688 0 76.890625 C 0 92.472656 12.632812 105.105469 28.214844 105.105469 C 43.800781 105.105469 56.433594 92.472656 56.433594 76.890625 C 56.433594 61.304688 43.800781 48.671875 28.214844 48.671875 Z M 28.214844 48.671875 " clip-rule="nonzero"/></clipPath><clipPath id="cdfdfad0f8"><path d="M 7.1875 90 L 27 90 L 27 120.8125 L 7.1875 120.8125 Z M 7.1875 90 " clip-rule="nonzero"/></clipPath><clipPath id="2c7d7417e2"><path d="M 9 56.640625 L 49 56.640625 L 49 96 L 9 96 Z M 9 56.640625 " clip-rule="nonzero"/></clipPath><clipPath id="302748988c"><path d="M 31 90 L 50.464844 90 L 50.464844 120.8125 L 31 120.8125 Z M 31 90 " clip-rule="nonzero"/></clipPath></defs><g clip-path="url(#42df9ff90e)"><path fill="#00748f" d="M 96.03125 65.835938 L 87.953125 48.546875 L 87.953125 20.445312 C 87.953125 19.984375 87.789062 19.59375 87.464844 19.269531 L 72.804688 4.601562 C 72.476562 4.277344 72.085938 4.113281 71.628906 4.113281 L 62.523438 4.113281 L 60.265625 2.753906 C 59.875 2.515625 59.453125 2.453125 59.007812 2.5625 L 56.875 3.085938 L 48.820312 0.164062 C 48.386719 0.00390625 47.964844 0.0234375 47.546875 0.21875 L 39.199219 4.117188 L 24.8125 4.117188 C 24.59375 4.117188 24.382812 4.160156 24.175781 4.246094 C 23.972656 4.328125 23.792969 4.449219 23.636719 4.605469 C 23.480469 4.761719 23.363281 4.941406 23.277344 5.144531 C 23.191406 5.347656 23.152344 5.5625 23.152344 5.78125 L 23.152344 11.382812 L 14.117188 13.605469 C 13.902344 13.660156 13.707031 13.75 13.53125 13.882812 C 13.351562 14.011719 13.207031 14.171875 13.09375 14.359375 C 12.976562 14.546875 12.902344 14.75 12.871094 14.96875 C 12.835938 15.1875 12.847656 15.402344 12.898438 15.617188 L 13.074219 16.324219 L 5.660156 19.792969 C 5.460938 19.882812 5.285156 20.011719 5.136719 20.175781 C 4.988281 20.339844 4.875 20.523438 4.800781 20.730469 C 4.726562 20.9375 4.695312 21.152344 4.703125 21.371094 C 4.714844 21.59375 4.765625 21.800781 4.859375 22.003906 L 23.152344 61.148438 L 23.152344 85.074219 C 23.152344 85.292969 23.195312 85.503906 23.277344 85.707031 C 23.363281 85.910156 23.484375 86.09375 23.636719 86.246094 C 23.792969 86.402344 23.972656 86.523438 24.179688 86.609375 C 24.382812 86.691406 24.59375 86.734375 24.8125 86.734375 L 30.390625 86.734375 L 31.601562 91.664062 C 31.652344 91.878906 31.742188 92.074219 31.875 92.25 C 32.003906 92.429688 32.164062 92.574219 32.351562 92.6875 C 32.542969 92.800781 32.746094 92.875 32.964844 92.910156 C 33.179688 92.941406 33.398438 92.933594 33.609375 92.878906 L 37.527344 91.917969 L 38.011719 92.949219 C 38.105469 93.148438 38.230469 93.324219 38.394531 93.472656 C 38.554688 93.625 38.742188 93.734375 38.949219 93.8125 C 39.15625 93.886719 39.371094 93.921875 39.589844 93.910156 C 39.8125 93.902344 40.019531 93.851562 40.222656 93.757812 L 51.503906 88.484375 L 58.59375 86.738281 L 86.289062 86.738281 C 86.511719 86.738281 86.722656 86.699219 86.925781 86.613281 C 87.128906 86.527344 87.308594 86.410156 87.464844 86.253906 C 87.621094 86.097656 87.742188 85.917969 87.824219 85.714844 C 87.910156 85.511719 87.953125 85.296875 87.953125 85.078125 L 87.953125 79.511719 L 92.574219 78.375 C 92.789062 78.324219 92.984375 78.230469 93.160156 78.101562 C 93.339844 77.972656 93.484375 77.8125 93.597656 77.621094 C 93.714844 77.433594 93.785156 77.230469 93.820312 77.011719 C 93.851562 76.792969 93.84375 76.578125 93.789062 76.363281 L 92.101562 69.503906 L 95.230469 68.042969 C 95.429688 67.949219 95.605469 67.820312 95.753906 67.660156 C 95.90625 67.496094 96.015625 67.3125 96.09375 67.105469 C 96.167969 66.898438 96.203125 66.683594 96.191406 66.460938 C 96.183594 66.242188 96.132812 66.03125 96.039062 65.832031 Z M 73.289062 9.796875 L 82.277344 18.78125 L 73.289062 18.78125 Z M 48.332031 3.519531 L 49.976562 4.117188 L 47.050781 4.117188 Z M 23.152344 14.804688 L 23.152344 43.394531 L 16.519531 16.4375 Z M 13.878906 19.621094 L 21.066406 48.828125 L 8.574219 22.101562 Z M 33.8125 86.734375 L 44.675781 86.734375 L 34.433594 89.257812 Z M 26.476562 83.40625 L 26.476562 7.445312 L 69.964844 7.445312 L 69.964844 20.445312 C 69.964844 20.664062 70.007812 20.878906 70.089844 21.082031 C 70.175781 21.285156 70.296875 21.464844 70.453125 21.621094 C 70.605469 21.777344 70.789062 21.898438 70.992188 21.980469 C 71.195312 22.066406 71.40625 22.105469 71.628906 22.105469 L 84.628906 22.105469 L 84.628906 83.414062 Z M 87.953125 76.082031 L 87.953125 66.5625 L 90.164062 75.542969 Z M 91.292969 66.210938 L 89.910156 60.585938 L 92.316406 65.734375 Z M 31.453125 21.722656 C 31.453125 21.503906 31.496094 21.289062 31.582031 21.085938 C 31.664062 20.882812 31.785156 20.703125 31.941406 20.546875 C 32.097656 20.390625 32.277344 20.269531 32.480469 20.1875 C 32.683594 20.101562 32.894531 20.0625 33.117188 20.0625 L 47.238281 20.0625 C 47.453125 20.066406 47.660156 20.113281 47.859375 20.199219 C 48.058594 20.285156 48.234375 20.40625 48.386719 20.5625 C 48.539062 20.71875 48.65625 20.894531 48.738281 21.097656 C 48.816406 21.296875 48.859375 21.507812 48.859375 21.722656 C 48.859375 21.941406 48.816406 22.148438 48.738281 22.351562 C 48.65625 22.550781 48.539062 22.730469 48.386719 22.882812 C 48.234375 23.039062 48.058594 23.160156 47.859375 23.246094 C 47.660156 23.335938 47.453125 23.378906 47.238281 23.386719 L 33.117188 23.386719 C 32.898438 23.386719 32.6875 23.34375 32.484375 23.257812 C 32.277344 23.175781 32.097656 23.054688 31.945312 22.902344 C 31.789062 22.746094 31.667969 22.566406 31.582031 22.363281 C 31.5 22.160156 31.457031 21.949219 31.453125 21.726562 Z M 31.453125 28.578125 C 31.453125 28.359375 31.496094 28.148438 31.582031 27.941406 C 31.664062 27.738281 31.785156 27.558594 31.941406 27.402344 C 32.097656 27.25 32.277344 27.128906 32.480469 27.042969 C 32.683594 26.960938 32.894531 26.917969 33.117188 26.917969 L 58.617188 26.917969 C 58.839844 26.917969 59.050781 26.960938 59.257812 27.042969 C 59.460938 27.128906 59.640625 27.25 59.796875 27.40625 C 59.953125 27.5625 60.074219 27.742188 60.15625 27.945312 C 60.242188 28.148438 60.285156 28.363281 60.285156 28.582031 C 60.285156 28.804688 60.242188 29.015625 60.15625 29.21875 C 60.074219 29.421875 59.953125 29.605469 59.796875 29.761719 C 59.640625 29.917969 59.460938 30.035156 59.257812 30.121094 C 59.050781 30.207031 58.839844 30.246094 58.617188 30.246094 L 33.117188 30.246094 C 32.898438 30.246094 32.683594 30.207031 32.480469 30.121094 C 32.277344 30.035156 32.097656 29.917969 31.941406 29.761719 C 31.785156 29.605469 31.664062 29.425781 31.582031 29.222656 C 31.496094 29.015625 31.453125 28.804688 31.453125 28.585938 Z M 79.648438 37.789062 C 79.648438 38.011719 79.609375 38.222656 79.523438 38.425781 C 79.4375 38.628906 79.320312 38.808594 79.164062 38.964844 C 79.007812 39.121094 78.828125 39.242188 78.625 39.324219 C 78.417969 39.410156 78.207031 39.453125 77.988281 39.453125 L 33.117188 39.453125 C 32.898438 39.453125 32.683594 39.410156 32.480469 39.324219 C 32.277344 39.242188 32.097656 39.121094 31.941406 38.964844 C 31.785156 38.808594 31.664062 38.628906 31.578125 38.425781 C 31.496094 38.222656 31.453125 38.007812 31.453125 37.789062 C 31.453125 37.566406 31.496094 37.355469 31.578125 37.152344 C 31.664062 36.945312 31.785156 36.765625 31.941406 36.609375 C 32.097656 36.453125 32.277344 36.332031 32.480469 36.25 C 32.683594 36.164062 32.898438 36.121094 33.117188 36.121094 L 77.988281 36.121094 C 78.210938 36.121094 78.421875 36.164062 78.625 36.25 C 78.832031 36.335938 79.011719 36.457031 79.167969 36.613281 C 79.324219 36.769531 79.441406 36.949219 79.527344 37.15625 C 79.609375 37.359375 79.652344 37.574219 79.652344 37.792969 Z M 79.648438 45.414062 C 79.652344 45.636719 79.609375 45.847656 79.527344 46.050781 C 79.441406 46.257812 79.324219 46.4375 79.167969 46.59375 C 79.011719 46.753906 78.832031 46.875 78.625 46.957031 C 78.421875 47.042969 78.207031 47.085938 77.988281 47.085938 L 33.117188 47.085938 C 32.898438 47.085938 32.683594 47.042969 32.480469 46.957031 C 32.277344 46.875 32.097656 46.753906 31.941406 46.597656 C 31.785156 46.441406 31.664062 46.261719 31.578125 46.058594 C 31.496094 45.855469 31.453125 45.640625 31.453125 45.421875 C 31.453125 45.199219 31.496094 44.988281 31.578125 44.785156 C 31.664062 44.578125 31.785156 44.398438 31.941406 44.242188 C 32.097656 44.085938 32.277344 43.96875 32.480469 43.882812 C 32.683594 43.796875 32.898438 43.753906 33.117188 43.753906 L 77.988281 43.753906 C 78.207031 43.753906 78.421875 43.796875 78.625 43.882812 C 78.828125 43.964844 79.007812 44.085938 79.164062 44.242188 C 79.320312 44.398438 79.441406 44.578125 79.523438 44.78125 C 79.609375 44.984375 79.652344 45.199219 79.652344 45.417969 Z M 79.648438 53.039062 C 79.648438 53.257812 79.609375 53.46875 79.523438 53.671875 C 79.4375 53.878906 79.320312 54.058594 79.164062 54.214844 C 79.007812 54.367188 78.828125 54.488281 78.621094 54.574219 C 78.417969 54.65625 78.207031 54.699219 77.988281 54.699219 L 33.117188 54.699219 C 32.898438 54.699219 32.683594 54.65625 32.480469 54.574219 C 32.277344 54.488281 32.09375 54.367188 31.9375 54.210938 C 31.78125 54.054688 31.660156 53.875 31.578125 53.671875 C 31.492188 53.46875 31.449219 53.253906 31.449219 53.035156 C 31.449219 52.8125 31.492188 52.601562 31.578125 52.398438 C 31.660156 52.191406 31.78125 52.011719 31.9375 51.855469 C 32.09375 51.699219 32.277344 51.578125 32.480469 51.496094 C 32.683594 51.410156 32.898438 51.367188 33.117188 51.371094 L 77.988281 51.371094 C 78.207031 51.371094 78.421875 51.410156 78.625 51.496094 C 78.828125 51.582031 79.011719 51.703125 79.167969 51.859375 C 79.320312 52.015625 79.441406 52.195312 79.527344 52.402344 C 79.609375 52.605469 79.652344 52.816406 79.652344 53.039062 Z M 79.648438 60.660156 C 79.648438 60.882812 79.609375 61.09375 79.523438 61.296875 C 79.4375 61.5 79.320312 61.679688 79.164062 61.835938 C 79.007812 61.992188 78.828125 62.113281 78.621094 62.195312 C 78.417969 62.28125 78.207031 62.324219 77.988281 62.324219 L 33.117188 62.324219 C 32.898438 62.324219 32.683594 62.28125 32.480469 62.195312 C 32.277344 62.113281 32.097656 61.992188 31.941406 61.835938 C 31.785156 61.679688 31.664062 61.5 31.578125 61.296875 C 31.496094 61.089844 31.453125 60.878906 31.453125 60.65625 C 31.453125 60.4375 31.496094 60.226562 31.578125 60.019531 C 31.664062 59.816406 31.785156 59.636719 31.941406 59.480469 C 32.097656 59.324219 32.277344 59.203125 32.480469 59.121094 C 32.683594 59.035156 32.898438 58.992188 33.117188 58.992188 L 77.988281 58.992188 C 78.210938 58.992188 78.421875 59.035156 78.625 59.121094 C 78.832031 59.207031 79.011719 59.328125 79.167969 59.484375 C 79.324219 59.640625 79.441406 59.820312 79.527344 60.027344 C 79.609375 60.230469 79.652344 60.445312 79.652344 60.667969 Z M 79.648438 68.285156 C 79.648438 68.503906 79.609375 68.714844 79.523438 68.921875 C 79.4375 69.125 79.320312 69.304688 79.164062 69.460938 C 79.007812 69.617188 78.828125 69.734375 78.625 69.820312 C 78.417969 69.90625 78.207031 69.945312 77.988281 69.945312 L 63.597656 69.945312 C 63.375 69.945312 63.164062 69.90625 62.960938 69.820312 C 62.753906 69.734375 62.574219 69.617188 62.417969 69.460938 C 62.261719 69.304688 62.144531 69.125 62.058594 68.917969 C 61.972656 68.714844 61.933594 68.503906 61.933594 68.28125 C 61.933594 68.0625 61.972656 67.847656 62.058594 67.644531 C 62.144531 67.441406 62.261719 67.261719 62.417969 67.105469 C 62.574219 66.949219 62.753906 66.828125 62.960938 66.742188 C 63.164062 66.660156 63.375 66.617188 63.597656 66.617188 L 77.988281 66.617188 C 78.210938 66.617188 78.421875 66.660156 78.625 66.742188 C 78.832031 66.828125 79.011719 66.949219 79.167969 67.105469 C 79.324219 67.265625 79.441406 67.445312 79.527344 67.648438 C 79.609375 67.855469 79.652344 68.066406 79.652344 68.289062 Z M 79.648438 68.285156 " fill-opacity="1" fill-rule="nonzero"/></g><g clip-path="url(#93a3bfee5b)"><g clip-path="url(#0252d5437b)"><path fill="#ffffff" d="M 0 48.671875 L 56.433594 48.671875 L 56.433594 105.105469 L 0 105.105469 Z M 0 48.671875 " fill-opacity="1" fill-rule="nonzero"/></g></g><g clip-path="url(#cdfdfad0f8)"><path fill="#00748f" d="M 25.125 93.511719 C 24.972656 93.511719 24.746094 93.546875 24.523438 93.71875 L 23.230469 94.710938 C 22.820312 95.027344 22.332031 95.191406 21.820312 95.191406 C 20.65625 95.191406 19.660156 94.324219 19.507812 93.171875 L 19.296875 91.550781 C 19.230469 91.0625 18.808594 90.691406 18.316406 90.691406 C 18.230469 90.691406 18.144531 90.703125 18.058594 90.726562 L 17.011719 91.007812 L 7.191406 112.796875 L 15.296875 107.308594 L 19.679688 120.789062 L 26.246094 94.464844 L 25.984375 94.007812 C 25.804688 93.699219 25.484375 93.511719 25.125 93.511719 " fill-opacity="1" fill-rule="nonzero"/></g><g clip-path="url(#2c7d7417e2)"><path fill="#00748f" d="M 30.164062 90.929688 C 29.71875 90.972656 29.269531 90.992188 28.8125 90.992188 C 28.359375 90.992188 27.90625 90.972656 27.460938 90.929688 C 24.128906 90.632812 21.109375 89.246094 18.757812 87.128906 C 15.710938 84.378906 13.792969 80.398438 13.792969 75.96875 C 13.792969 67.671875 20.515625 60.945312 28.8125 60.945312 C 37.109375 60.945312 43.835938 67.671875 43.835938 75.96875 C 43.835938 80.398438 41.917969 84.378906 38.867188 87.128906 C 36.519531 89.246094 33.5 90.632812 30.164062 90.929688 Z M 33.886719 92.699219 L 35.179688 93.691406 C 35.375 93.839844 35.59375 93.90625 35.808594 93.90625 C 36.300781 93.90625 36.769531 93.554688 36.84375 93.003906 L 37.054688 91.382812 C 37.207031 90.226562 38.199219 89.40625 39.308594 89.40625 C 39.503906 89.40625 39.703125 89.429688 39.902344 89.484375 L 39.933594 89.492188 L 41.476562 89.90625 C 41.570312 89.929688 41.660156 89.941406 41.75 89.941406 C 42.40625 89.941406 42.933594 89.3125 42.75 88.632812 L 42.328125 87.058594 C 41.972656 85.726562 42.867188 84.390625 44.230469 84.210938 L 45.847656 83.996094 C 46.640625 83.894531 47.019531 82.96875 46.535156 82.335938 L 45.542969 81.042969 C 44.703125 79.949219 45.019531 78.371094 46.210938 77.683594 L 47.621094 76.867188 C 48.316406 76.46875 48.316406 75.46875 47.621094 75.070312 L 46.210938 74.253906 C 45.019531 73.566406 44.703125 71.988281 45.542969 70.894531 L 46.535156 69.601562 C 47.019531 68.96875 46.640625 68.046875 45.847656 67.941406 L 44.230469 67.726562 C 42.867188 67.546875 41.972656 66.210938 42.328125 64.878906 L 42.75 63.304688 C 42.933594 62.625 42.40625 61.996094 41.75 61.996094 C 41.660156 61.996094 41.570312 62.007812 41.476562 62.035156 L 39.902344 62.457031 C 39.703125 62.507812 39.503906 62.535156 39.308594 62.535156 C 38.199219 62.535156 37.207031 61.714844 37.054688 60.554688 L 36.84375 58.9375 C 36.769531 58.386719 36.300781 58.03125 35.808594 58.03125 C 35.59375 58.03125 35.375 58.101562 35.179688 58.25 L 33.886719 59.242188 C 33.46875 59.558594 32.984375 59.710938 32.503906 59.710938 C 31.722656 59.710938 30.953125 59.308594 30.527344 58.574219 L 29.714844 57.160156 C 29.511719 56.8125 29.164062 56.640625 28.8125 56.640625 C 28.464844 56.640625 28.113281 56.8125 27.914062 57.160156 L 27.097656 58.574219 C 26.671875 59.308594 25.90625 59.710938 25.125 59.710938 C 24.644531 59.710938 24.15625 59.558594 23.738281 59.242188 L 22.445312 58.25 C 22.253906 58.101562 22.035156 58.03125 21.816406 58.03125 C 21.324219 58.03125 20.859375 58.386719 20.785156 58.9375 L 20.570312 60.554688 C 20.417969 61.714844 19.429688 62.535156 18.316406 62.535156 C 18.121094 62.535156 17.925781 62.507812 17.726562 62.457031 L 16.148438 62.035156 C 16.058594 62.007812 15.964844 61.996094 15.875 61.996094 C 15.222656 61.996094 14.695312 62.625 14.878906 63.304688 L 15.300781 64.878906 C 15.65625 66.210938 14.761719 67.546875 13.398438 67.726562 L 11.78125 67.941406 C 10.988281 68.046875 10.605469 68.96875 11.09375 69.601562 L 12.085938 70.894531 C 12.921875 71.988281 12.609375 73.566406 11.417969 74.253906 L 10.003906 75.070312 C 9.3125 75.46875 9.3125 76.46875 10.003906 76.867188 L 11.417969 77.683594 C 12.609375 78.371094 12.921875 79.949219 12.085938 81.042969 L 11.09375 82.335938 C 10.605469 82.96875 10.988281 83.894531 11.78125 83.996094 L 13.398438 84.210938 C 14.761719 84.390625 15.65625 85.726562 15.300781 87.058594 L 14.878906 88.632812 C 14.695312 89.3125 15.222656 89.941406 15.875 89.941406 C 15.964844 89.941406 16.058594 89.929688 16.148438 89.90625 L 17.695312 89.492188 L 17.726562 89.484375 C 17.925781 89.429688 18.125 89.40625 18.316406 89.40625 C 19.429688 89.40625 20.417969 90.226562 20.570312 91.382812 L 20.785156 93.003906 C 20.859375 93.554688 21.328125 93.90625 21.820312 93.90625 C 22.035156 93.90625 22.253906 93.839844 22.445312 93.691406 L 23.738281 92.699219 C 24.15625 92.378906 24.644531 92.226562 25.125 92.226562 C 25.734375 92.226562 26.335938 92.472656 26.773438 92.929688 C 26.894531 93.058594 27.003906 93.203125 27.097656 93.363281 L 27.914062 94.777344 C 28.113281 95.125 28.464844 95.296875 28.8125 95.296875 C 29.164062 95.296875 29.511719 95.125 29.714844 94.777344 L 30.527344 93.363281 C 30.621094 93.203125 30.730469 93.058594 30.851562 92.929688 C 31.289062 92.472656 31.890625 92.226562 32.503906 92.226562 C 32.984375 92.226562 33.46875 92.378906 33.886719 92.699219 " fill-opacity="1" fill-rule="nonzero"/></g><path fill="#00748f" d="M 28.8125 88.367188 C 21.976562 88.367188 16.417969 82.804688 16.417969 75.96875 C 16.417969 69.132812 21.976562 63.570312 28.8125 63.570312 C 35.648438 63.570312 41.210938 69.132812 41.210938 75.96875 C 41.210938 82.804688 35.648438 88.367188 28.8125 88.367188 Z M 28.8125 62.285156 C 21.269531 62.285156 15.128906 68.421875 15.128906 75.96875 C 15.128906 83.515625 21.269531 89.652344 28.8125 89.652344 C 36.359375 89.652344 42.496094 83.515625 42.496094 75.96875 C 42.496094 68.421875 36.359375 62.285156 28.8125 62.285156 " fill-opacity="1" fill-rule="nonzero"/><path fill="#00748f" d="M 33.460938 77.480469 C 33.359375 77.574219 33.316406 77.71875 33.339844 77.851562 L 34.214844 82.96875 C 34.273438 83.316406 33.914062 83.578125 33.601562 83.414062 L 29.007812 81 C 28.886719 80.933594 28.742188 80.933594 28.613281 81 L 24.019531 83.414062 C 23.710938 83.578125 23.351562 83.316406 23.410156 82.96875 L 24.289062 77.851562 C 24.308594 77.71875 24.265625 77.574219 24.167969 77.480469 L 20.453125 73.855469 C 20.199219 73.613281 20.339844 73.1875 20.6875 73.136719 L 25.820312 72.394531 C 25.957031 72.371094 26.078125 72.285156 26.136719 72.160156 L 28.433594 67.507812 C 28.589844 67.191406 29.039062 67.191406 29.191406 67.507812 L 31.492188 72.160156 C 31.550781 72.285156 31.671875 72.371094 31.808594 72.394531 L 36.941406 73.136719 C 37.289062 73.1875 37.425781 73.613281 37.175781 73.855469 L 33.460938 77.480469 " fill-opacity="1" fill-rule="nonzero"/><g clip-path="url(#302748988c)"><path fill="#00748f" d="M 40.617188 91.007812 L 39.570312 90.726562 C 39.480469 90.703125 39.394531 90.691406 39.308594 90.691406 C 38.816406 90.691406 38.394531 91.0625 38.332031 91.550781 L 38.117188 93.171875 C 37.964844 94.324219 36.972656 95.191406 35.808594 95.191406 C 35.296875 95.191406 34.808594 95.027344 34.398438 94.710938 L 33.101562 93.71875 C 32.882812 93.546875 32.652344 93.511719 32.503906 93.511719 C 32.144531 93.511719 31.820312 93.699219 31.644531 94.007812 L 31.378906 94.464844 L 37.949219 120.789062 L 42.332031 107.308594 L 50.433594 112.796875 L 40.617188 91.007812 " fill-opacity="1" fill-rule="nonzero"/></g></svg>