<?xml version="1.0" standalone="no"?>
<!DOCTYPE svg PUBLIC "-//W3C//DTD SVG 1.1//EN" "http://www.w3.org/Graphics/SVG/1.1/DTD/svg11.dtd" >
<svg xmlns="http://www.w3.org/2000/svg">
<metadata>Generated by IcoMoon</metadata>
<defs>
<font id="icons" horiz-adv-x="1024">
<font-face units-per-em="1024" ascent="960" descent="-64" />
<missing-glyph horiz-adv-x="1024" />
<glyph unicode="&#x20;" horiz-adv-x="512" d="" />
<glyph unicode="&#xe000;" glyph-name="error" d="M554 363.334v256h-84v-256h84zM554 191.334v86h-84v-86h84zM512 831.334c236 0 426-190 426-426s-190-426-426-426-426 190-426 426 190 426 426 426z" />
<glyph unicode="&#xe034;" glyph-name="pause" d="M598 703.334h170v-596h-170v596zM256 107.334v596h170v-596h-170z" />
<glyph unicode="&#xe037;" glyph-name="play_arrow" d="M342 703.334l468-298-468-298v596z" />
<glyph unicode="&#xe313;" glyph-name="keyboard_arrow_down" d="M316 583.334l196-196 196 196 60-60-256-256-256 256z" />
<glyph unicode="&#xe315;" glyph-name="keyboard_arrow_right" d="M366 219.334l196 196-196 196 60 60 256-256-256-256z" />
<glyph unicode="&#xe432;" glyph-name="photo_size_select_actual" d="M237.038 209.526h549.927l-177.156 236.211-136.56-177.156-99.651 118.105zM866.316 761.299c38.754 0 79.351-40.599 79.351-79.351v-549.927c0-38.754-40.599-79.351-79.351-79.351h-708.629c-42.443 0-79.351 36.908-79.351 79.351v549.927c0 38.754 40.599 79.351 79.351 79.351h708.629z" />
<glyph unicode="&#xe433;" glyph-name="medium-warning" d="M788 466.88c-130.126 0.039-235.599 105.535-235.599 235.667 0 39.493 9.714 76.717 26.884 109.413l-0.619-1.293h-450.667c-42 0-86-44-86-86v-596c0-46 40-86 86-86h768c42 0 86 44 86 86v440.2c-43.006-61.942-113.777-101.987-193.901-101.987-0.035 0-0.070 0-0.104 0h0.006zM214 212.667l148 192 108-128 148 192 192-256zM788 907.707c-0.016 0-0.035 0-0.053 0-113.344 0-205.227-91.883-205.227-205.227s91.883-205.227 205.227-205.227c113.344 0 205.227 91.883 205.227 205.227v0c-0.061 113.3-91.877 205.135-205.164 205.227h-0.009zM808.467 599.867h-41.040v41.040h41.040zM808.467 681.96h-41.040v123.133h41.040z" />
<glyph unicode="&#xe5ca;" glyph-name="check" d="M384 227.334l452 452 60-60-512-512-238 238 60 60z" />
<glyph unicode="&#xe5cd;" glyph-name="close" d="M810 643.334l-238-238 238-238-60-60-238 238-238-238-60 60 238 238-238 238 60 60 238-238 238 238z" />
<glyph unicode="&#xe5d5;" glyph-name="refresh" d="M754 647.334l100 100v-300h-300l138 138c-46 46-110 76-180 76-142 0-256-114-256-256s114-256 256-256c112 0 208 70 242 170h88c-38-148-170-256-330-256-188 0-340 154-340 342s152 342 340 342c94 0 180-38 242-100z" />
<glyph unicode="&#xe645;" glyph-name="priority_high" d="M426 789.334h172v-512h-172v512zM426 107.334c0 48 38 84 86 84s86-36 86-84-38-86-86-86-86 38-86 86z" />
<glyph unicode="&#xe884;" glyph-name="get_app" d="M214 149.334h596v-86h-596v86zM810 533.334l-298-298-298 298h170v256h256v-256h170z" />
<glyph unicode="&#xe900;" glyph-name="success" d="M365.733-7.466l-365.733 365.733 103.067 103.067 262.667-261.867 555.2 555.2 103.067-103.867-658.267-658.267z" />
<glyph unicode="&#xe901;" glyph-name="max" horiz-adv-x="576" d="M398.080 708.267v-51.2h84.48l-176.64-176.64 35.84-35.84 176.64 176.64v-84.48h51.2v171.52zM518.4 232.107l-176.64 176.64-35.84-35.84 176.64-176.64h-84.48v-51.2h171.52v171.52h-51.2zM57.6 621.227l176.64-176.64 35.84 35.84-176.64 176.64h84.48v51.2h-171.52v-171.52h51.2zM234.24 408.747l-176.64-176.64v84.48h-51.2v-171.52h171.52v51.2h-84.48l176.64 176.64z" />
<glyph unicode="&#xe902;" glyph-name="min" horiz-adv-x="576" d="M547.84 563.627h-87.040l104.96 104.96-35.84 35.84-104.96-104.96v87.040h-51.2v-174.080h174.080zM565.76 184.747l-104.96 104.96h87.040v51.2h-174.080v-174.080h51.2v87.040l104.96-104.96zM28.16 563.627v-51.2h174.080v174.080h-51.2v-87.040l-104.96 104.96-35.84-35.84 104.96-104.96zM28.16 289.707h87.040l-104.96-104.96 35.84-35.84 104.96 104.96v-87.040h51.2v174.080h-174.080z" />
<glyph unicode="&#xe903;" glyph-name="plus" horiz-adv-x="640" d="M96 458.667h448v-64h-448v64zM288 650.667h64v-448h-64v448z" />
<glyph unicode="&#xe904;" glyph-name="twitter" d="M1024 712.267c-37.6-16.8-78.2-28-120.6-33 43.4 26 76.6 67.2 92.4 116.2-40.6-24-85.6-41.6-133.4-51-38.4 40.8-93 66.2-153.4 66.2-116 0-210-94-210-210 0-16.4 1.8-32.4 5.4-47.8-174.6 8.8-329.4 92.4-433 219.6-18-31-28.4-67.2-28.4-105.6 0-72.8 37-137.2 93.4-174.8-34.4 1-66.8 10.6-95.2 26.2 0-0.8 0-1.8 0-2.6 0-101.8 72.4-186.8 168.6-206-17.6-4.8-36.2-7.4-55.4-7.4-13.6 0-26.6 1.4-39.6 3.8 26.8-83.4 104.4-144.2 196.2-146-72-56.4-162.4-90-261-90-17 0-33.6 1-50.2 3 93.2-59.8 203.6-94.4 322.2-94.4 386.4 0 597.8 320.2 597.8 597.8 0 9.2-0.2 18.2-0.6 27.2 41 29.4 76.6 66.4 104.8 108.6z" />
<glyph unicode="&#xe905;" glyph-name="linkedin" d="M384 554.667h177.106v-90.782h2.532c24.64 44.194 84.958 90.782 174.842 90.782 186.946 0 221.52-116.376 221.52-267.734v-308.266h-184.61v273.278c0 65.184-1.334 149.026-96.028 149.026-96.148 0-110.82-70.986-110.82-144.292v-278.012h-184.542v576zM64 554.667h192v-576h-192v576zM256 714.667c0-53.019-42.981-96-96-96s-96 42.981-96 96c0 53.019 42.981 96 96 96s96-42.981 96-96z" />
<glyph unicode="&#xe906;" glyph-name="xing" d="M155.6 736.467c-8.8 0-16.4-3.2-20.2-9.2-3.8-6.4-3.2-14.4 0.8-22.6l99.8-172.8c0.2-0.4 0.2-0.6 0-0.8l-156.8-277.2c-4-8.2-3.8-16.4 0-22.6 3.8-6 10.4-10 19.2-10h147.6c22 0 32.8 15 40.2 28.6 0 0 153.4 271.4 159.4 282-0.6 1-101.6 177-101.6 177-7.4 13-18.4 27.6-41.2 27.6h-147.2zM776 938.667c-22 0-31.6-13.8-39.6-28.2 0 0-318.2-564.2-328.6-582.8 0.6-1 209.8-385 209.8-385 7.4-13 18.6-28.2 41.2-28.2h147.6c8.8 0 15.8 3.4 19.6 9.4 4 6.4 3.8 14.6-0.4 22.8l-208 380.6c-0.2 0.4-0.2 0.6 0 1l327 578.2c4 8.2 4.2 16.4 0.4 22.8-3.8 6-10.8 9.4-19.6 9.4h-149.4z" />
<glyph unicode="&#xe907;" glyph-name="instagram" d="M512 846.467c136.8 0 153-0.6 206.8-3 50-2.2 77-10.6 95-17.6 23.8-9.2 41-20.4 58.8-38.2 18-18 29-35 38.4-58.8 7-18 15.4-45.2 17.6-95 2.4-54 3-70.2 3-206.8s-0.6-153-3-206.8c-2.2-50-10.6-77-17.6-95-9.2-23.8-20.4-41-38.2-58.8-18-18-35-29-58.8-38.4-18-7-45.2-15.4-95-17.6-54-2.4-70.2-3-206.8-3s-153 0.6-206.8 3c-50 2.2-77 10.6-95 17.6-23.8 9.2-41 20.4-58.8 38.2-18 18-29 35-38.4 58.8-7 18-15.4 45.2-17.6 95-2.4 54-3 70.2-3 206.8s0.6 153 3 206.8c2.2 50 10.6 77 17.6 95 9.2 23.8 20.4 41 38.2 58.8 18 18 35 29 58.8 38.4 18 7 45.2 15.4 95 17.6 53.8 2.4 70 3 206.8 3zM512 938.667c-139 0-156.4-0.6-211-3-54.4-2.4-91.8-11.2-124.2-23.8-33.8-13.2-62.4-30.6-90.8-59.2-28.6-28.4-46-57-59.2-90.6-12.6-32.6-21.4-69.8-23.8-124.2-2.4-54.8-3-72.2-3-211.2s0.6-156.4 3-211c2.4-54.4 11.2-91.8 23.8-124.2 13.2-33.8 30.6-62.4 59.2-90.8 28.4-28.4 57-46 90.6-59 32.6-12.6 69.8-21.4 124.2-23.8 54.6-2.4 72-3 211-3s156.4 0.6 211 3c54.4 2.4 91.8 11.2 124.2 23.8 33.6 13 62.2 30.6 90.6 59s46 57 59 90.6c12.6 32.6 21.4 69.8 23.8 124.2 2.4 54.6 3 72 3 211s-0.6 156.4-3 211c-2.4 54.4-11.2 91.8-23.8 124.2-12.6 34-30 62.6-58.6 91-28.4 28.4-57 46-90.6 59-32.6 12.6-69.8 21.4-124.2 23.8-54.8 2.6-72.2 3.2-211.2 3.2v0zM512 689.667c-145.2 0-263-117.8-263-263s117.8-263 263-263 263 117.8 263 263c0 145.2-117.8 263-263 263zM512 256.067c-94.2 0-170.6 76.4-170.6 170.6s76.4 170.6 170.6 170.6c94.2 0 170.6-76.4 170.6-170.6s-76.4-170.6-170.6-170.6zM846.8 700.067c0-33.91-27.49-61.4-61.4-61.4s-61.4 27.49-61.4 61.4c0 33.91 27.49 61.4 61.4 61.4s61.4-27.49 61.4-61.4z" />
<glyph unicode="&#xe908;" glyph-name="popup" horiz-adv-x="917" d="M917.334 881.164h-679.661v-229.333h-237.673v-679.661h679.661v229.333h237.673v679.661zM596.267 55.564h-512.873v512.873h154.279v-366.934h362.764v-145.939zM833.94 284.897h-517.043v512.873h517.043v-512.873z" />
<glyph unicode="&#xe909;" glyph-name="link_extern" horiz-adv-x="917" d="M542.061 196.849v83.394h166.788c8.339 0 125.091 12.509 125.091 125.091s-116.752 125.091-129.261 125.091h-162.618v83.394h166.788c75.055-4.17 208.485-54.206 208.485-208.485s-133.43-204.315-204.315-208.485h-170.958zM375.273 196.849h-166.788c-75.055 4.17-208.485 54.206-208.485 208.485s133.43 204.315 204.315 208.485h170.958v-83.394h-166.788c-8.339 0-125.091-12.509-125.091-125.091 0-116.752 120.921-125.091 129.261-125.091h162.618v-83.394zM208.485 447.031h500.364v-83.394h-500.364v83.394z" />
<glyph unicode="&#xe90a;" glyph-name="facebook" d="M608 746.667h160v192h-160c-123.514 0-224-100.486-224-224v-96h-128v-192h128v-512h192v512h160l32 192h-192v96c0 17.346 14.654 32 32 32z" />
<glyph unicode="&#xe90b;" glyph-name="back" d="M742.216-85.333l-512 512 512 512 51.568-51.568-460.432-460.432 460.432-460.432z" />
<glyph unicode="&#xe90c;" glyph-name="forward" d="M281.784-85.333l-51.568 51.568 456.748 460.432-456.748 460.432 51.568 51.568 512-512z" />
<glyph unicode="&#xe90d;" glyph-name="link_intern" horiz-adv-x="917" d="M436.957 69.692l281.825 281.825h-718.782v101.926h724.49l-287.533 287.533 72.062 72.062 335.642-335.642 72.673-72.062-72.062-72.062-336.152-335.642-72.164 72.062z" />
<glyph unicode="&#xe90e;" glyph-name="externlink_s" horiz-adv-x="1120" d="M663.707 177.777v82.96h207.406c12.445 0 165.93 16.596 165.93 165.93 0 153.486-161.779 165.93-170.072 165.93h-203.264v82.96h207.406c87.112-4.151 248.891-66.374 248.891-248.891s-161.779-244.739-244.739-248.891h-211.557zM456.292 177.777h-207.406c-87.112 4.151-248.891 66.374-248.891 248.891s161.779 244.739 244.739 248.891h211.557v-82.96h-207.406c-12.445 0-165.93-16.596-165.93-165.93 0-153.486 161.779-165.93 170.072-165.93h203.264v-82.96zM248.886 468.153h622.225v-82.96h-622.225v82.96z" />
<glyph unicode="&#xe90f;" glyph-name="mail" horiz-adv-x="917" d="M0 664.971v-604.606h917.334v604.606h-917.334zM750.546 581.577l-291.879-220.994-291.879 220.994h583.758zM83.394 143.759v396.121l375.273-283.54 375.273 283.54v-396.121h-750.546z" />
<glyph unicode="&#xe910;" glyph-name="globe" horiz-adv-x="878" d="M437.714 867.353c-242.057 0-438.171-196.343-438.171-438.4s196.114-438.4 438.4-438.4 437.943 196.343 437.943 438.4-196.114 438.4-438.171 438.4zM392.229 55.924c-205.943 25.143-352.686 212.343-327.543 418.286 8.914 73.143 39.086 142.171 87.086 198.4 2.514-16.914 3.886-33.829 4.343-50.971-9.829-42.514-2.286-87.086 21.029-123.886 9.6-18.514 16.229-38.629 19.886-59.2 5.486-18.743 27.2-28.343 42.286-40 30.171-23.086 59.2-50.057 91.2-70.629 21.257-13.486 34.286-20.114 28.114-45.943-2.743-18.286-8.457-35.886-17.143-52.114 2.057-16.914 8-33.143 17.6-47.314 15.771-15.771 31.314-30.4 48.686-44.571 26.514-21.714-2.743-50.286-15.543-82.057zM703.314 163.353c-53.257-53.486-121.143-89.371-195.2-103.314 10.057 24.229 25.829 45.486 46.171 61.943 17.371 13.943 31.543 31.543 41.6 51.429 8.229 17.143 17.829 33.371 28.571 48.914 14.857 23.086-36.8 57.6-53.486 64.914-35.2 17.143-68.571 37.714-99.429 61.943-23.771 16.686-72.229-8.686-98.971 2.971-35.657 18.743-68.8 41.6-99.2 68.114-33.143 25.143-31.314 53.943-31.314 90.514 25.829-0.914 62.629 7.086 80-13.714 5.486-6.171 24-35.886 36.571-25.371 10.286 8.457-7.543 42.743-10.971 50.743-10.514 24.686 24 34.286 41.6 50.971 23.086 21.943 72.686 56.457 68.8 71.771-3.657 15.314-49.6 59.886-76.343 53.029-4.114-1.143-39.314-38.171-46.171-43.886 0 12.114 0.229 24.229 0.457 36.343 0 7.543-14.171 15.543-13.486 20.343 1.6 12.571 36.343 34.971 45.029 45.029-6.171 3.657-26.743 21.486-32.914 18.743-15.086-6.171-32.229-10.743-47.314-16.914 0 5.029-0.457 10.057-1.371 15.086 30.4 13.486 62.629 22.857 95.543 27.657l29.714-11.886 21.029-25.143 20.8-21.486 18.286-5.943 29.029 27.429-7.543 19.429v17.829c57.143-8.229 111.771-29.714 159.086-62.629-8.457-0.686-17.829-2.057-28.343-3.429-4.8 2.286-9.6 4.114-14.629 5.486 13.714-29.714 28.114-58.743 42.743-87.543 15.543-31.314 50.057-64.686 56.457-97.6 7.086-38.857 2.286-74.057 6.171-119.771 8-35.2 25.143-67.429 49.6-93.943 12.571-4.114 25.6-5.714 38.857-4.8-16.686-65.6-51.2-125.714-99.429-173.257z" />
<glyph unicode="&#xe911;" glyph-name="lock" d="M769.867 592.534h-42v84.133c0 120.933-94.667 215.467-215.467 215.467s-215.467-94.667-215.467-215.467v-84.133h-42c-47.333 0-84.133-36.8-84.133-84.133v-420.4c0-47.333 36.8-84.133 84.133-84.133h515.067c47.333 0 84.133 36.8 84.133 84.133v420.4c-0.133 47.333-36.933 84.133-84.267 84.133zM512.267 208.8c-47.333 0-84.133 42-84.133 84.133 0 47.333 42 84.133 84.133 84.133 47.333 0 84.133-36.8 84.133-84.133 0-42-36.8-84.133-84.133-84.133zM643.733 592.534h-268v84.133c0 73.6 63.067 131.467 136.667 131.467s131.467-57.867 131.467-131.467v-84.133z" />
<glyph unicode="&#xe912;" glyph-name="glossary" horiz-adv-x="1463" d="M877.787-106.666c-0.183-0.001-0.399-0.001-0.616-0.001-54.913 0-105.061 20.403-143.277 54.041l0.24-0.207c-39.456-33.48-90.961-53.839-147.222-53.839-0.597 0-1.193 0.002-1.788 0.007l0.091-0.001h-365.714c-121.037 0.373-219.056 98.392-219.428 219.393v585.179c0.373 121.037 98.392 219.056 219.393 219.428h365.75c0.153 0 0.333 0.001 0.514 0.001 56.197 0 107.405-21.361 145.948-56.406l-0.177 0.158c38.62 34.767 89.948 56.085 146.252 56.247h365.747c121.053-0.332 219.097-98.375 219.429-219.397v-585.175c0.105-2.493 0.165-5.418 0.165-8.357 0-116.663-94.574-211.237-211.237-211.237-2.939 0-5.864 0.060-8.775 0.179l0.417-0.014zM877.787 39.62h365.714c40.396 0 73.143 32.747 73.143 73.143v0 585.143c0 40.396-32.747 73.143-73.143 73.143v0h-365.714c-40.396 0-73.143-32.747-73.143-73.143v0-585.143c0-2.048 0-4.023 0-5.998 3.197-37.732 34.612-67.146 72.897-67.146 0.087 0 0.173 0 0.26 0h-0.013zM146.359 690.591v-577.829c0-40.396 32.747-73.143 73.143-73.143v0h365.714c40.396 0 73.143 32.747 73.143 73.143v0 585.143c0 40.396-32.747 73.143-73.143 73.143v0h-365.714c-41.176-3.87-73.144-38.264-73.144-80.124 0-0.117 0-0.234 0.001-0.351v0.018z" />
<glyph unicode="&#xe913;" glyph-name="info" d="M554 554.667v86h-84v-86h84zM554 212.667v256h-84v-256h84zM512 852.667q176 0 301-125t125-301-125-301-301-125-301 125-125 301 125 301 301 125z" />
<glyph unicode="&#xe914;" glyph-name="check_circle" d="M426 212.667l384 384-60 62-324-324-152 152-60-60zM512 852.667q176 0 301-125t125-301-125-301-301-125-301 125-125 301 125 301 301 125z" />
<glyph unicode="&#xe915;" glyph-name="locked-circle" d="M512-85.333c-281.6 0-512 230.4-512 512 0 204.8 122.88 391.68 312.32 471.040 261.12 110.080 560.64-12.8 670.72-273.92s-12.8-558.080-271.36-668.16c-64-28.16-130.56-40.96-199.68-40.96zM378.88 516.267c-23.040 0-40.96-17.92-40.96-40.96v-204.8c0-23.040 17.92-40.96 40.96-40.96h250.88c23.040 0 40.96 17.92 40.96 40.96v204.8c0 23.040-17.92 40.96-40.96 40.96h-20.48v40.96c0 58.88-46.080 104.96-104.96 104.96s-104.96-46.080-104.96-104.96v-40.96h-20.48zM504.32 329.387c-23.040 0-40.96 20.48-40.96 40.96 0 23.040 20.48 40.96 40.96 40.96 23.040 0 40.96-17.92 40.96-40.96 0-20.48-17.92-40.96-40.96-40.96v0zM568.32 516.267h-130.56v40.96c0 35.84 30.72 64 66.56 64s64-28.16 64-64v-40.96z" />
<glyph unicode="&#xe917;" glyph-name="access_time" d="M534 640.667v-224l192-114-32-54-224 136v256h64zM512 84.667q140 0 241 101t101 241-101 241-241 101-241-101-101-241 101-241 241-101zM512 852.667q176 0 301-125t125-301-125-301-301-125-301 125-125 301 125 301 301 125z" />
<glyph unicode="&#xe918;" glyph-name="bookmark" d="M951.203 938.667h-630.691c-3.711 0.228-8.048 0.358-12.416 0.358-114.077 0-207.447-88.655-214.97-200.825l-0.035-0.656v-834.746l315.345 159.372 315.345-159.372v834.746c7.558 112.826 100.928 201.481 215.005 201.481 4.368 0 8.705-0.13 13.009-0.386l-0.593 0.028z" />
<glyph unicode="&#xe919;" glyph-name="flip-icon" horiz-adv-x="1026" d="M702.391-84.894l-391.534 66.231c-49.074 5.419-86.903 46.654-86.903 96.725 0 0.478 0.003 0.955 0.010 1.432l-0.001-0.072v100.315c0.021 17.665 14.335 31.979 31.998 32h0.002c17.673 0 32-14.327 32-32v0-100.498c-0.002-0.15-0.004-0.327-0.004-0.505 0-17.684 13.51-32.212 30.772-33.826l0.135-0.010 390.144-65.829c15.367 2.298 27.017 15.405 27.017 31.232 0 0.463-0.010 0.924-0.030 1.382l0.002-0.065v168.229c0.021 17.665 14.335 31.979 31.998 32h0.002c17.665-0.021 31.979-14.335 32-31.998v-166.841c0.034-0.95 0.053-2.067 0.053-3.188 0-50.962-40.014-92.578-90.339-95.143l-0.229-0.009h-1.646c-0.022 0-0.048 0-0.074 0-1.898 0-3.759 0.16-5.57 0.466l0.195-0.027zM363.264 149.821c-6.911 5.9-11.265 14.62-11.265 24.356 0 7.917 2.878 15.161 7.645 20.744l-0.037-0.044 61.074 71.936c-0.914 0-1.829 0-2.816 0l-273.847-0.402c-79.292 0.391-143.482 64.492-144.018 143.711v0.051c0.371 79.366 64.558 143.616 143.863 144.091h0.045c0 0 0 0 0 0 17.635 0 31.937-14.264 32-31.884v-0.006c0-0.033 0-0.071 0-0.11 0-17.627-14.269-31.922-31.886-31.963h-0.004c-44.15-0.207-79.885-35.941-80.091-80.072v-0.020c0.31-44.071 36.005-79.703 80.072-79.909h0.020l273.701 0.402c1.398-0.006 2.769-0.099 4.114-0.273l-0.164 0.017-62.501 75.886c-4.548 5.49-7.307 12.606-7.307 20.366 0 9.911 4.501 18.771 11.57 24.648l0.052 0.042c5.484 4.53 12.586 7.277 20.33 7.277 9.931 0 18.807-4.519 24.683-11.612l0.043-0.053 105.618-128c4.52-5.49 7.261-12.594 7.261-20.337 0-7.924-2.871-15.178-7.629-20.779l0.038 0.046-105.582-124.343c-5.913-6.933-14.657-11.301-24.42-11.301-0.003 0-0.006 0-0.010 0h0.001c-0.006 0-0.014 0-0.022 0-7.85 0-15.035 2.85-20.576 7.571l0.045-0.037zM607.927 266.85c-17.637 0.021-31.927 14.323-31.927 31.963 0 0.026 0 0.051 0 0.077v-0.004c0.021 17.657 14.34 31.963 32 31.963 0 0 0 0 0 0v0l273.883-0.402c44.103 0.269 79.776 35.98 79.982 80.072v0.020c-0.31 44.071-36.005 79.703-80.072 79.909h-0.020c-17.637 0.021-31.927 14.323-31.927 31.963 0 0.039 0 0.077 0 0.116v-0.006c0.042 17.621 14.336 31.89 31.963 31.89 0.013 0 0.026 0 0.039 0h-0.002c79.304-0.433 143.475-64.605 143.908-143.867v-0.042c-0.33-79.395-64.562-143.678-143.906-144.091h-0.040zM735.927 436.176v404.297c0.049 0.668 0.078 1.447 0.078 2.232 0 15.961-11.632 29.205-26.881 31.717l-0.187 0.025-387.474-65.573c-18.558-0.837-33.314-15.976-33.536-34.612v-336.479c0-17.673-14.327-32-32-32v0c-17.673 0-32 14.327-32 32v0 336.311c-0.001 0.121-0.001 0.264-0.001 0.407 0 51.029 38.968 92.957 88.77 97.648l0.392 0.030 389.23 65.829c1.889 0.427 4.059 0.671 6.286 0.671 0.31 0 0.619-0.005 0.927-0.014l-0.045 0.001c50.642-2.732 90.671-44.461 90.671-95.54 0-1.409-0.030-2.812-0.091-4.206l0.007 0.199v-403.017c-0.021-17.665-14.335-31.979-31.998-32h-0.002c-0.022 0-0.047 0-0.073 0-17.64 0-31.943 14.29-31.963 31.925v0.002z" />
<glyph unicode="&#xe91a;" glyph-name="replay-24px" d="M512 725.334v170.667l-213.333-213.333 213.333-213.333v170.667c141.385 0 256-114.615 256-256s-114.615-256-256-256c-141.385 0-256 114.615-256 256v0h-85.333c0-188.513 152.82-341.333 341.333-341.333s341.333 152.82 341.333 341.333c0 188.513-152.82 341.333-341.333 341.333v0z" />
<glyph unicode="&#xe91b;" glyph-name="contains-questions" d="M591.733-42.266h-162.4v160h162.533l-0.133-160zM589.333 199.067h-157.6c0 248.667 236.4 234.133 236.4 391.467-0.4 86.267-70.4 156.133-156.8 156.133-0.267 0-0.533 0-0.8 0v0c-86.667-1.733-156.267-71.867-157.6-158.4v-0.133h-157.6c0 0.4 0 0.8 0 1.2 0 174 141.067 315.2 315.2 315.2 173.6 0 314.4-140.4 315.2-313.867v0c0-196.933-236.4-219.2-236.4-391.6v0z" />
<glyph unicode="&#xe91c;" glyph-name="close1" d="M512 938.667c282.77 0 512-229.23 512-512s-229.23-512-512-512c-282.77 0-512 229.23-512 512v0c0.309 282.645 229.355 511.691 511.97 512h0.030zM545.144 262.952c7.566-7.555 18.012-12.228 29.55-12.228 23.096 0 41.819 18.723 41.819 41.819 0 11.558-4.689 22.022-12.269 29.591l-121.209 120.916 121.208 121.208c7.555 7.566 12.228 18.012 12.228 29.55 0 23.096-18.723 41.819-41.819 41.819-11.558 0-22.022-4.689-29.591-12.269l-180.224-180.433z" />
<glyph unicode="&#xe91d;" glyph-name="open" d="M512-85.333c-282.77 0-512 229.23-512 512s229.23 512 512 512c282.77 0 512-229.23 512-512v0c-0.309-282.645-229.355-511.691-511.97-512h-0.030zM512 875.973c-248.145 0-449.306-201.161-449.306-449.306s201.161-449.306 449.306-449.306c248.145 0 449.306 201.161 449.306 449.306v0c-0.286 248.030-201.276 449.021-449.279 449.306h-0.027zM449.306 250.748c-0.010 0-0.021 0-0.033 0-23.083 0-41.796 18.713-41.796 41.796 0 11.56 4.693 22.024 12.278 29.591l121.209 120.916-121.208 121.208c-7.555 7.566-12.228 18.012-12.228 29.55 0 23.096 18.723 41.819 41.819 41.819 11.558 0 22.022-4.689 29.591-12.269l180.224-180.433-180.266-180.015c-7.556-7.516-17.973-12.163-29.475-12.163-0.041 0-0.082 0-0.123 0h0.006z" />
<glyph unicode="&#xe91e;" glyph-name="tab_lerninhalt" d="M212.224 778.667h-181.888c-0.058 0-0.126 0.001-0.194 0.001-16.513 0-29.925-13.278-30.141-29.74v-655.38c0.216-16.482 13.628-29.761 30.142-29.761 0.068 0 0.137 0 0.205 0.001h181.877c0.058 0 0.126-0.001 0.194-0.001 16.513 0 29.925 13.278 30.141 29.74v655.316c-0.181 16.51-13.607 29.825-30.142 29.825-0.068 0-0.136 0-0.204-0.001h0.010zM181.888 599.979h-121.216v59.584h121.28zM515.392 778.667h-181.888c-0.058 0-0.126 0.001-0.194 0.001-16.513 0-29.925-13.278-30.141-29.74v-655.38c0.216-16.482 13.628-29.761 30.142-29.761 0.068 0 0.137 0 0.205 0.001h181.877c0.058 0 0.126-0.001 0.194-0.001 16.513 0 29.925 13.278 30.141 29.74v655.316c-0.181 16.51-13.607 29.825-30.142 29.825-0.068 0-0.136 0-0.204-0.001h0.010zM485.056 599.979h-121.216v59.584h121.28zM725.056 732.587l-162.432-80.448c-9.926-4.927-16.629-14.994-16.629-26.627 0-4.878 1.179-9.481 3.267-13.539l-0.078 0.166 272.832-532.032c5.247-9.803 15.417-16.359 27.118-16.359 4.949 0 9.624 1.173 13.762 3.255l-0.176-0.080 162.432 80.384c9.926 4.927 16.629 14.994 16.629 26.627 0 4.878-1.179 9.481-3.267 13.539l0.078-0.166-273.024 531.904c-5.247 9.803-15.417 16.359-27.118 16.359-4.949 0-9.624-1.173-13.762-3.255l0.176 0.080z" />
<glyph unicode="&#xe91f;" glyph-name="tab_notizen" d="M1023.481 836.289c0 0.044 0 0.096 0 0.149 0 56.356-45.601 102.061-101.917 102.229h-819.186c-56.474-0.168-102.21-45.904-102.378-102.362v-614.431c0.168-56.474 45.904-102.21 102.362-102.378h716.809l204.83-204.83zM819.17 324.326h-614.415v102.378h614.415zM819.17 477.93h-614.415v102.378h614.415zM819.17 631.534h-614.415v102.378h614.415z" />
<glyph unicode="&#xe920;" glyph-name="bookmark-plus" horiz-adv-x="820" d="M393.938 429.656h-73.228v75.32c0.007 0.178 0.011 0.388 0.011 0.598 0 8.914-7.226 16.14-16.14 16.14-0.004 0-0.008 0-0.012 0h-17.335c-0.003 0-0.007 0-0.011 0-8.914 0-16.14-7.226-16.14-16.14 0-0.21 0.004-0.42 0.012-0.628l-0.001 0.030v-75.32h-73.228c-8.983-0.331-16.14-7.693-16.14-16.727 0-0.004 0-0.008 0-0.011v0.001-16.738c0-0.003 0-0.007 0-0.011 0-9.034 7.157-16.396 16.11-16.726l0.030-0.001h73.228v-75.32c-0.007-0.178-0.011-0.388-0.011-0.598 0-8.914 7.226-16.14 16.14-16.14 0.004 0 0.008 0 0.012 0h16.14c0.003 0 0.007 0 0.011 0 8.914 0 16.14 7.226 16.14 16.14 0 0.21-0.004 0.42-0.012 0.628l0.001-0.030v75.32h73.228c8.951 0.166 16.143 7.461 16.143 16.436 0 0.106-0.001 0.212-0.003 0.317v-0.016 16.738c0.002 0.092 0.003 0.201 0.003 0.309 0 9.035-7.158 16.398-16.113 16.726l-0.030 0.001z" />
<glyph unicode="&#xe921;" glyph-name="info-without-background" d="M512-85.394c-282.77 0-512 229.23-512 512s229.23 512 512 512c282.77 0 512-229.23 512-512v0c-0.326-282.639-229.362-511.674-511.969-512h-0.031zM512 897.646c-260.148 0-471.040-210.892-471.040-471.040s210.892-471.040 471.040-471.040c260.148 0 471.040 210.892 471.040 471.040v0c-0.303 260.027-211.014 470.737-471.011 471.040h-0.029zM487.158 215.313h47.432v304.374h-47.432zM479.949 615.144c-0.006-0.215-0.009-0.469-0.009-0.723 0-16.357 13.090-29.657 29.366-29.997l0.032-0.001h1.229c0.216-0.005 0.47-0.009 0.726-0.009 16.586 0 30.079 13.241 30.485 29.728l0.001 0.038v0.86c0.001 0.091 0.002 0.2 0.002 0.308 0 17.060-13.778 30.902-30.814 31.006h-0.42c-0.067 0.001-0.146 0.001-0.226 0.001-16.799 0-30.425-13.583-30.494-30.366v-0.007z" />
<glyph unicode="&#xe922;" glyph-name="check-without-background" d="M512-85.333c-282.77 0-512 229.23-512 512s229.23 512 512 512c282.77 0 512-229.23 512-512v0c-0.326-282.639-229.362-511.674-511.969-512h-0.031zM512 897.707c-260.148 0-471.040-210.892-471.040-471.040s210.892-471.040 471.040-471.040c260.148 0 471.040 210.892 471.040 471.040v0c-0.303 260.027-211.014 470.737-471.011 471.040h-0.029zM459.162 226.004l-188.027 188.068c-3.557 3.679-5.749 8.697-5.749 14.228 0 11.311 9.169 20.48 20.48 20.48 5.53 0 10.549-2.192 14.233-5.755l157.997-157.997 285.532 307.036c3.752 4.024 9.084 6.533 15.002 6.533 11.316 0 20.49-9.174 20.49-20.49 0-5.398-2.088-10.309-5.5-13.969l0.011 0.012z" />
<glyph unicode="&#xe923;" glyph-name="failed-without-background" d="M512-85.333c-282.77 0-512 229.23-512 512s229.23 512 512 512c282.77 0 512-229.23 512-512v0c-0.326-282.639-229.362-511.674-511.969-512h-0.031zM512 897.707c-260.148 0-471.040-210.892-471.040-471.040s210.892-471.040 471.040-471.040c260.148 0 471.040 210.892 471.040 471.040v0c-0.361 259.982-211.050 470.635-471.011 470.938h-0.029zM540.959 426.667l130.355 130.335c3.557 3.679 5.749 8.697 5.749 14.228 0 11.311-9.169 20.48-20.48 20.48-5.53 0-10.549-2.192-14.233-5.755l-130.349-130.329-130.335 130.335c-3.729 3.857-8.95 6.252-14.731 6.252-11.311 0-20.48-9.169-20.48-20.48 0-5.781 2.395-11.002 6.247-14.725l130.341-130.341-130.335-130.335c-3.704-3.706-5.995-8.825-5.995-14.479 0-11.313 9.171-20.484 20.484-20.484 5.659 0 10.782 2.295 14.489 6.005l130.314 130.314 130.335-130.314c3.679-3.557 8.697-5.749 14.228-5.749 11.311 0 20.48 9.169 20.48 20.48 0 5.53-2.192 10.549-5.755 14.233l0.006-0.006z" />
<glyph unicode="&#xe924;" glyph-name="Icon-feather-layers-01" horiz-adv-x="1325" d="M662.588 938.667c9.818-0.011 19.083-2.369 27.266-6.543l-0.341 0.158 602.353-301.176c19.905-10.108 33.306-30.429 33.306-53.88s-13.401-43.772-32.964-53.723l-0.342-0.158-602.353-301.176c-7.845-4.006-17.111-6.353-26.925-6.353s-19.080 2.347-27.267 6.511l0.342-0.158-602.353 301.176c-19.905 10.108-33.306 30.429-33.306 53.88s13.401 43.772 32.964 53.723l0.342 0.158 602.353 301.176c7.843 4.016 17.107 6.374 26.922 6.385h0.004zM1130.255 577.255l-467.667 233.833-467.667-233.833 467.667-233.833zM662.588-85.333c-9.818 0.011-19.083 2.369-27.266 6.543l0.341-0.158-602.353 301.176c-19.675 10.182-32.89 30.383-32.89 53.671 0 33.267 26.968 60.235 60.235 60.235 9.65 0 18.769-2.269 26.854-6.303l-0.349 0.158 575.428-287.744 575.428 287.684c7.736 3.876 16.856 6.145 26.505 6.145 33.267 0 60.235-26.968 60.235-60.235 0-23.287-13.215-43.488-32.555-53.512l-0.335-0.158-602.353-301.176c-7.83-3.988-17.077-6.325-26.869-6.325-0.020 0-0.040 0-0.059 0h0.003z" />
<glyph unicode="&#xe925;" glyph-name="Icon-feather-layers-02" horiz-adv-x="1325" d="M662.588 938.667c9.818-0.011 19.083-2.369 27.266-6.543l-0.341 0.158 602.353-301.176c19.905-10.108 33.306-30.429 33.306-53.88s-13.401-43.772-32.964-53.723l-0.342-0.158-602.353-301.176c-7.845-4.006-17.111-6.353-26.925-6.353s-19.080 2.347-27.267 6.511l0.342-0.158-602.353 301.176c-19.905 10.108-33.306 30.429-33.306 53.88s13.401 43.772 32.964 53.723l0.342 0.158 602.353 301.176c7.843 4.016 17.107 6.374 26.922 6.385h0.004zM662.588-85.333c-9.818 0.011-19.083 2.369-27.266 6.543l0.341-0.158-602.353 301.176c-19.675 10.182-32.89 30.383-32.89 53.671 0 33.267 26.968 60.235 60.235 60.235 9.65 0 18.769-2.269 26.854-6.303l-0.349 0.158 575.428-287.744 575.428 287.684c7.736 3.876 16.856 6.145 26.505 6.145 33.267 0 60.235-26.968 60.235-60.235 0-23.287-13.215-43.488-32.555-53.512l-0.335-0.158-602.353-301.176c-7.83-3.988-17.077-6.325-26.869-6.325-0.020 0-0.040 0-0.059 0h0.003z" />
<glyph unicode="&#xe926;" glyph-name="layered-image-placeholder" horiz-adv-x="1240" d="M900.711 675.287h-654.437c-35.996 0-65.443-29.453-65.443-65.443v-501.733c0-35.996 29.453-65.443 65.443-65.443h654.437c35.996 0 65.443 29.453 65.443 65.443v501.733c0 35.996-29.453 65.443-65.443 65.443zM322.629 184.463l125.435 158.157 88.349-102.529 131.98 158.157 153.789-213.783h-499.551zM993.427 768.002h-654.439c-34.904 0-63.264-27.268-65.443-61.081 1.092 0 1.092 0 2.185 0h654.439c35.996 0 65.443-29.453 65.443-65.443v-501.733c0-1.092 0-3.273 0-4.361 34.904 1.092 63.264 29.453 63.264 65.443v501.733c0 35.996-29.453 65.443-65.443 65.443z" />
<glyph unicode="&#xe927;" glyph-name="text-box-outline" d="M113.777 938.668c-63.147 0-113.777-50.631-113.777-113.777v-796.445c0-63.147 50.631-113.777 113.777-113.777h796.445c63.147 0 113.777 50.631 113.777 113.777v796.445c0 63.147-50.631 113.777-113.777 113.777h-796.445zM113.777 824.89h796.445v-796.445h-796.445v796.445zM227.556 711.111v-113.777h568.89v113.777h-568.89zM227.556 483.556v-113.777h568.89v113.777h-568.89zM227.556 256v-113.777h398.223v113.777h-398.223z" />
<glyph unicode="&#xe928;" glyph-name="text-box" d="M625.777 142.223h-398.223v113.777h398.223zM796.444 369.778h-568.89v113.777h568.89zM796.444 597.334h-568.89v113.777h568.89zM910.223 938.668h-796.445c-63.147 0-113.777-50.631-113.777-113.777v-796.445c0-62.837 50.94-113.777 113.777-113.777v0h796.445c62.837 0 113.777 50.94 113.777 113.777v0 796.445c0 63.147-51.2 113.777-113.777 113.777z" />
<glyph unicode="&#xe929;" glyph-name="formula-fx-icon" horiz-adv-x="1015" d="M282.1 631.286l-27.557-31.145 2.709-11.782h70.959c-14.488-83.823-25.323-159.386-46.109-275.843-24.849-148.552-39.136-185.048-47.599-198.386-7.448-13.202-18.145-20.041-32.636-20.041-15.911 0-44.687 12.593-60.125 26.879-5.552 3.791-12.121 2.843-19.093-1.761-13.948-11.782-27.488-29.927-27.488-46.177-0.812-21.937 28.504-41.032 56.468-41.032 24.645 0 60.937 15.437 99.125 51.73 52.202 49.496 91.27 117.407 123.907 264.198 20.988 93.709 30.875 154.645 45.636 240.363l88.157 7.988 19.093 35.004h-99.261c25.661 161.416 45.702 185.318 70.349 185.318 16.386 0 35.48-12.593 57.416-37.375 6.5-8.937 16.25-7.988 23.698-1.895 12.525 7.448 27.964 26.541 28.98 43.875 0.746 19.093-22.004 42.791-61.141 42.791-35.48 0-89.849-23.698-135.552-70.282-40.084-42.452-61.073-95.468-75.562-162.432h-54.371zM564.173 523.224c27.355 36.427 43.738 48.548 52.202 48.548 8.734 0 15.709-8.599 30.673-56.943l25.593-82.536c-49.496-75.698-85.718-117.879-107.724-117.879-7.312 0-14.693 2.302-19.907 7.448-5.145 5.145-10.834 9.411-16.386 9.411-18.145 0-40.625-22.004-41.032-49.291-0.407-27.827 19.093-47.734 44.687-47.734 43.943 0 81.113 43.129 152.886 157.488l20.988-70.754c18.011-60.802 39.136-86.734 65.541-86.734 32.636 0 76.511 27.827 124.379 103.052l-20.041 22.886c-28.775-34.666-47.871-50.916-59.177-50.916-12.593 0-23.629 19.23-38.187 66.488l-30.673 99.734c18.145 26.746 36.020 49.224 51.73 67.166 18.687 21.327 33.109 30.4 42.927 30.4 8.261 0 15.437-3.52 19.907-8.464 5.891-6.5 9.411-9.548 16.386-9.548 15.775 0 40.15 20.041 41.032 46.584 0.812 24.645-14.488 45.636-41.032 45.636-40.084 0-75.427-34.532-143.474-135.687l-14.016 43.4c-19.636 60.937-32.636 92.286-59.988 92.286-31.823 0-75.562-39.136-118.355-101.157l21.057-22.886z" />
<glyph unicode="&#xe92a;" glyph-name="Graduate" horiz-adv-x="896" d="M638.754 318.754l-190.498-190.498-190.498 190.498c-143.372-5.74-257.464-123.213-257.758-267.401v-19.225c0.042-52.992 42.989-95.94 95.978-95.982h703.967c52.992 0.042 95.94 42.989 95.982 95.978v19.2c-0.281 144.020-114.052 261.377-256.626 267.411l-0.547 0.018zM27.183 800.348l12.822-3.004v-116.79c-14.27-8.055-23.746-23.119-23.746-40.396 0-16.53 8.675-31.034 21.721-39.207l0.193-0.113-30.846-124.556c-3.37-13.774 4.176-27.989 15.167-27.989h83.306c10.99 0 18.61 14.214 15.167 27.989l-31.139 124.556c13.22 8.29 21.88 22.783 21.88 39.299 0 17.293-9.494 32.368-23.554 40.297l-0.231 0.12v105.214l131.883-31.799c-17.001-33.288-26.963-72.608-26.963-114.255 0-141.142 114.418-255.56 255.56-255.56s255.56 114.418 255.56 255.56c0 0.088 0 0.175 0 0.263v-0.014c-0.221 41.677-10.547 80.892-28.649 115.386l0.66-1.381 192.623 46.379c15.611 2.195 27.491 15.463 27.491 31.505s-11.88 29.311-27.323 31.486l-0.168 0.019-380.849 91.952c-11.928 2.956-25.622 4.652-39.712 4.652s-27.783-1.696-40.888-4.895l1.176 0.243-381.143-91.805c-15.564-2.317-27.367-15.588-27.367-31.615s11.804-29.298 27.192-31.594l0.175-0.021z" />
<glyph unicode="&#xea0f;" glyph-name="failed" d="M889.067 159.334l-106.8-106.8-271.733 271.867-271.733-271.733-106.8 106.8 271.733 271.733-271.6 271.6 106.8 106.8 271.733-271.733 271.733 271.733 106.8-106.8-271.867-271.733 271.733-271.733z" />
<glyph unicode="&#xeb07;" glyph-name="search" d="M992.262 67.271l-242.552 206.294c-25.074 22.566-51.89 32.926-73.552 31.926 57.256 67.068 91.842 154.078 91.842 249.176 0 212.078-171.922 384-384 384-212.076 0-384-171.922-384-384s171.922-384 384-384c95.098 0 182.108 34.586 249.176 91.844-1-21.662 9.36-48.478 31.926-73.552l206.294-242.552c35.322-39.246 93.022-42.554 128.22-7.356s31.892 92.898-7.354 128.22zM384 298.667c-141.384 0-256 114.616-256 256s114.616 256 256 256 256-114.616 256-256-114.614-256-256-256z" />
</font>
</defs>
</svg>
