<svg width="24" height="24" viewBox="0 0 24 24" fill="none" xmlns="http://www.w3.org/2000/svg">
<path d="M4.2 4.80005C3.72261 4.80005 3.26477 4.98969 2.92721 5.32726C2.58964 5.66482 2.4 6.12266 2.4 6.60005V9.00005C2.4 9.47744 2.58964 9.93528 2.92721 10.2728C3.26477 10.6104 3.72261 10.8 4.2 10.8H6.6C7.07739 10.8 7.53523 10.6104 7.87279 10.2728C8.21036 9.93528 8.4 9.47744 8.4 9.00005V6.60005C8.4 6.12266 8.21036 5.66482 7.87279 5.32726C7.53523 4.98969 7.07739 4.80005 6.6 4.80005H4.2ZM3.6 6.60005C3.6 6.44092 3.66322 6.28831 3.77574 6.17578C3.88826 6.06326 4.04087 6.00005 4.2 6.00005H6.6C6.75913 6.00005 6.91174 6.06326 7.02427 6.17578C7.13679 6.28831 7.2 6.44092 7.2 6.60005V9.00005C7.2 9.15918 7.13679 9.31179 7.02427 9.42431C6.91174 9.53683 6.75913 9.60005 6.6 9.60005H4.2C4.04087 9.60005 3.88826 9.53683 3.77574 9.42431C3.66322 9.31179 3.6 9.15918 3.6 9.00005V6.60005ZM11.4 6.00005C11.2409 6.00005 11.0883 6.06326 10.9757 6.17578C10.8632 6.28831 10.8 6.44092 10.8 6.60005C10.8 6.75918 10.8632 6.91179 10.9757 7.02431C11.0883 7.13683 11.2409 7.20005 11.4 7.20005H21C21.1591 7.20005 21.3117 7.13683 21.4243 7.02431C21.5368 6.91179 21.6 6.75918 21.6 6.60005C21.6 6.44092 21.5368 6.28831 21.4243 6.17578C21.3117 6.06326 21.1591 6.00005 21 6.00005H11.4ZM11.4 8.40005C11.2409 8.40005 11.0883 8.46326 10.9757 8.57578C10.8632 8.68831 10.8 8.84092 10.8 9.00005C10.8 9.15918 10.8632 9.31179 10.9757 9.42431C11.0883 9.53683 11.2409 9.60005 11.4 9.60005H18.6C18.7591 9.60005 18.9117 9.53683 19.0243 9.42431C19.1368 9.31179 19.2 9.15918 19.2 9.00005C19.2 8.84092 19.1368 8.68831 19.0243 8.57578C18.9117 8.46326 18.7591 8.40005 18.6 8.40005H11.4ZM4.2 13.2C3.72261 13.2 3.26477 13.3897 2.92721 13.7273C2.58964 14.0648 2.4 14.5227 2.4 15V17.4C2.4 17.8774 2.58964 18.3353 2.92721 18.6728C3.26477 19.0104 3.72261 19.2 4.2 19.2H6.6C7.07739 19.2 7.53523 19.0104 7.87279 18.6728C8.21036 18.3353 8.4 17.8774 8.4 17.4V15C8.4 14.5227 8.21036 14.0648 7.87279 13.7273C7.53523 13.3897 7.07739 13.2 6.6 13.2H4.2ZM3.6 15C3.6 14.8409 3.66322 14.6883 3.77574 14.5758C3.88826 14.4633 4.04087 14.4 4.2 14.4H6.6C6.75913 14.4 6.91174 14.4633 7.02427 14.5758C7.13679 14.6883 7.2 14.8409 7.2 15V17.4C7.2 17.5592 7.13679 17.7118 7.02427 17.8243C6.91174 17.9368 6.75913 18 6.6 18H4.2C4.04087 18 3.88826 17.9368 3.77574 17.8243C3.66322 17.7118 3.6 17.5592 3.6 17.4V15ZM11.4 14.4C11.2409 14.4 11.0883 14.4633 10.9757 14.5758C10.8632 14.6883 10.8 14.8409 10.8 15C10.8 15.1592 10.8632 15.3118 10.9757 15.4243C11.0883 15.5368 11.2409 15.6 11.4 15.6H21C21.1591 15.6 21.3117 15.5368 21.4243 15.4243C21.5368 15.3118 21.6 15.1592 21.6 15C21.6 14.8409 21.5368 14.6883 21.4243 14.5758C21.3117 14.4633 21.1591 14.4 21 14.4H11.4ZM11.4 16.8C11.2409 16.8 11.0883 16.8633 10.9757 16.9758C10.8632 17.0883 10.8 17.2409 10.8 17.4C10.8 17.5592 10.8632 17.7118 10.9757 17.8243C11.0883 17.9368 11.2409 18 11.4 18H18.6C18.7591 18 18.9117 17.9368 19.0243 17.8243C19.1368 17.7118 19.2 17.5592 19.2 17.4C19.2 17.2409 19.1368 17.0883 19.0243 16.9758C18.9117 16.8633 18.7591 16.8 18.6 16.8H11.4Z" fill="black"/>
</svg>
