<svg width="24" height="24" viewBox="0 0 24 24" fill="none" xmlns="http://www.w3.org/2000/svg">
<circle cx="12" cy="12" r="12" fill="#E0E0E0"/>
<path d="M12 22.909C10.4909 22.909 9.07272 22.6225 7.74544 22.0494C6.41817 21.477 5.26362 20.6999 4.28181 19.7181C3.29999 18.7363 2.5229 17.5817 1.95053 16.2545C1.37744 14.9272 1.0909 13.509 1.0909 11.9999C1.0909 10.4908 1.37744 9.07264 1.95053 7.74537C2.5229 6.41809 3.29999 5.26355 4.28181 4.28173C5.26362 3.29991 6.41817 2.52246 7.74544 1.94937C9.07272 1.377 10.4909 1.09082 12 1.09082C13.5091 1.09082 14.9273 1.377 16.2545 1.94937C17.5818 2.52246 18.7364 3.29991 19.7182 4.28173C20.7 5.26355 21.4771 6.41809 22.0494 7.74537C22.6225 9.07264 22.9091 10.4908 22.9091 11.9999C22.9091 13.509 22.6225 14.9272 22.0494 16.2545C21.4771 17.5817 20.7 18.7363 19.7182 19.7181C18.7364 20.6999 17.5818 21.477 16.2545 22.0494C14.9273 22.6225 13.5091 22.909 12 22.909ZM12 20.7272C14.4364 20.7272 16.5 19.8817 18.1909 18.1908C19.8818 16.4999 20.7273 14.4363 20.7273 11.9999C20.7273 9.56355 19.8818 7.49991 18.1909 5.809C16.5 4.11809 14.4364 3.27264 12 3.27264C9.56362 3.27264 7.49999 4.11809 5.80908 5.809C4.11817 7.49991 3.27271 9.56355 3.27271 11.9999C3.27271 14.4363 4.11817 16.4999 5.80908 18.1908C7.49999 19.8817 9.56362 20.7272 12 20.7272Z" fill="black"/>
<path d="M11.43 13.8C11.43 12.99 11.5026 12.4074 11.6478 12.0522C11.7926 11.6974 12.1 11.31 12.57 10.89C12.98 10.53 13.2924 10.2174 13.5072 9.9522C13.7224 9.6874 13.83 9.385 13.83 9.045C13.83 8.635 13.6926 8.295 13.4178 8.025C13.1426 7.755 12.76 7.62 12.27 7.62C11.76 7.62 11.3724 7.775 11.1072 8.085C10.8424 8.395 10.655 8.71 10.545 9.03L9 8.37C9.21 7.73 9.595 7.175 10.155 6.705C10.715 6.235 11.42 6 12.27 6C13.32 6 14.1276 6.2926 14.6928 6.8778C15.2576 7.4626 15.54 8.165 15.54 8.985C15.54 9.485 15.4326 9.9126 15.2178 10.2678C15.0026 10.6226 14.665 11.025 14.205 11.475C13.715 11.945 13.4176 12.3024 13.3128 12.5472C13.2076 12.7924 13.155 13.21 13.155 13.8H11.43ZM12.27 17.4C11.94 17.4 11.6576 17.2826 11.4228 17.0478C11.1876 16.8126 11.07 16.53 11.07 16.2C11.07 15.87 11.1876 15.5874 11.4228 15.3522C11.6576 15.1174 11.94 15 12.27 15C12.6 15 12.8826 15.1174 13.1178 15.3522C13.3526 15.5874 13.47 15.87 13.47 16.2C13.47 16.53 13.3526 16.8126 13.1178 17.0478C12.8826 17.2826 12.6 17.4 12.27 17.4Z" fill="black"/>
</svg>
