<svg width="24" height="24" viewBox="0 0 24 24" fill="none" xmlns="http://www.w3.org/2000/svg">
<circle cx="12" cy="12" r="12" fill="#C76060"/>
<path d="M12 22.909C10.4909 22.909 9.07272 22.6225 7.74544 22.0494C6.41817 21.477 5.26362 20.6999 4.28181 19.7181C3.29999 18.7363 2.5229 17.5817 1.95053 16.2545C1.37744 14.9272 1.0909 13.509 1.0909 11.9999C1.0909 10.4908 1.37744 9.07264 1.95053 7.74537C2.5229 6.41809 3.29999 5.26355 4.28181 4.28173C5.26362 3.29991 6.41817 2.52246 7.74544 1.94937C9.07272 1.377 10.4909 1.09082 12 1.09082C13.5091 1.09082 14.9273 1.377 16.2545 1.94937C17.5818 2.52246 18.7364 3.29991 19.7182 4.28173C20.7 5.26355 21.4771 6.41809 22.0494 7.74537C22.6225 9.07264 22.9091 10.4908 22.9091 11.9999C22.9091 13.509 22.6225 14.9272 22.0494 16.2545C21.4771 17.5817 20.7 18.7363 19.7182 19.7181C18.7364 20.6999 17.5818 21.477 16.2545 22.0494C14.9273 22.6225 13.5091 22.909 12 22.909ZM12 20.7272C14.4364 20.7272 16.5 19.8817 18.1909 18.1908C19.8818 16.4999 20.7273 14.4363 20.7273 11.9999C20.7273 9.56355 19.8818 7.49991 18.1909 5.809C16.5 4.11809 14.4364 3.27264 12 3.27264C9.56362 3.27264 7.49999 4.11809 5.80908 5.809C4.11817 7.49991 3.27271 9.56355 3.27271 11.9999C3.27271 14.4363 4.11817 16.4999 5.80908 18.1908C7.49999 19.8817 9.56362 20.7272 12 20.7272Z" fill="black"/>
<path d="M7.49998 7.5L9.99998 12L7.49998 16.5H10.5L12 14.25L13.5 16.5H16.5L14 12L16.5 7.5H13.5L12 9.75L10.5 7.5H7.49998Z" fill="black"/>
</svg>
